STARTFONT 2.1
FONT -FontForge-Sazanami Mincho-Medium-R-Normal--14-100-100-100-P-137-ISO10646-1
SIZE 10 100 100
FONTBOUNDINGBOX 14 14 0 -2
COMMENT "Generated by fontforge, http://fontforge.sourceforge.net"
COMMENT "(C) 1990-2003 Wada Laboratory, Univ. of Tokyo. 2003-04 /efont/. All rights reserved."
STARTPROPERTIES 40
FOUNDRY "FontForge"
FAMILY_NAME "Sazanami Mincho"
WEIGHT_NAME "Medium"
SLANT "R"
SETWIDTH_NAME "Normal"
ADD_STYLE_NAME ""
PIXEL_SIZE 14
POINT_SIZE 100
RESOLUTION_X 100
RESOLUTION_Y 100
SPACING "P"
AVERAGE_WIDTH 137
CHARSET_REGISTRY "ISO10646"
CHARSET_ENCODING "1"
FONTNAME_REGISTRY ""
CHARSET_COLLECTIONS "ASCII ISO8859-2 ISO8859-5 ISO8859-7 ISO8859-9 ISO8859-4 JISX0208.1997 BIG5 ISO10646-1"
FONT_NAME "Sazanami-Mincho-Regular"
FACE_NAME "Sazanami Mincho Regular"
FONT_VERSION "001.000"
FONT_ASCENT 11
FONT_DESCENT 3
UNDERLINE_POSITION -1
UNDERLINE_THICKNESS 1
X_HEIGHT 6
CAP_HEIGHT 9
DEFAULT_CHAR 0
RAW_ASCENT 859
RAW_DESCENT 140
NORM_SPACE 7
RELATIVE_WEIGHT 50
RELATIVE_SETWIDTH 50
SUPERSCRIPT_X 0
SUPERSCRIPT_Y 6
SUPERSCRIPT_SIZE 9
SUBSCRIPT_X 0
SUBSCRIPT_Y 1
SUBSCRIPT_SIZE 9
FIGURE_WIDTH 7
AVG_LOWERCASE_WIDTH 110
AVG_UPPERCASE_WIDTH 112
ENDPROPERTIES
CHARS 7156
STARTCHAR .notdef.dup1
ENCODING 0
SWIDTH 1000 0
DWIDTH 4 0
BBX 4 10 0 0
BITMAP
F0
90
90
90
90
90
90
90
90
F0
ENDCHAR
STARTCHAR space
ENCODING 32
SWIDTH 500 0
DWIDTH 7 0
BBX 1 1 6 -2
BITMAP
00
ENDCHAR
STARTCHAR exclam
ENCODING 33
SWIDTH 500 0
DWIDTH 7 0
BBX 1 10 3 0
BITMAP
80
80
80
80
80
80
80
00
80
80
ENDCHAR
STARTCHAR quotedbl
ENCODING 34
SWIDTH 500 0
DWIDTH 7 0
BBX 5 4 1 7
BITMAP
D8
48
48
90
ENDCHAR
STARTCHAR numbersign
ENCODING 35
SWIDTH 500 0
DWIDTH 7 0
BBX 5 10 1 0
BITMAP
50
50
50
F8
50
50
F8
50
50
50
ENDCHAR
STARTCHAR dollar
ENCODING 36
SWIDTH 500 0
DWIDTH 7 0
BBX 6 11 0 -1
BITMAP
10
78
94
94
50
38
14
94
94
78
10
ENDCHAR
STARTCHAR percent
ENCODING 37
SWIDTH 500 0
DWIDTH 7 0
BBX 6 10 0 0
BITMAP
64
94
98
70
10
20
38
64
A4
98
ENDCHAR
STARTCHAR ampersand
ENCODING 38
SWIDTH 500 0
DWIDTH 7 0
BBX 6 10 0 0
BITMAP
30
48
48
48
30
64
94
88
98
64
ENDCHAR
STARTCHAR quotesingle
ENCODING 39
SWIDTH 500 0
DWIDTH 7 0
BBX 2 4 2 7
BITMAP
C0
40
40
80
ENDCHAR
STARTCHAR parenleft
ENCODING 40
SWIDTH 500 0
DWIDTH 7 0
BBX 4 13 2 -2
BITMAP
10
20
40
40
80
80
80
80
80
40
40
20
10
ENDCHAR
STARTCHAR parenright
ENCODING 41
SWIDTH 500 0
DWIDTH 7 0
BBX 4 13 1 -2
BITMAP
80
40
20
20
10
10
10
10
10
20
20
40
80
ENDCHAR
STARTCHAR asterisk
ENCODING 42
SWIDTH 500 0
DWIDTH 7 0
BBX 5 7 1 1
BITMAP
20
A8
70
20
70
A8
20
ENDCHAR
STARTCHAR plus
ENCODING 43
SWIDTH 500 0
DWIDTH 7 0
BBX 5 7 1 1
BITMAP
20
20
20
F8
20
20
20
ENDCHAR
STARTCHAR comma
ENCODING 44
SWIDTH 500 0
DWIDTH 7 0
BBX 2 4 2 -2
BITMAP
C0
40
40
80
ENDCHAR
STARTCHAR hyphen
ENCODING 45
SWIDTH 500 0
DWIDTH 7 0
BBX 5 1 1 4
BITMAP
F8
ENDCHAR
STARTCHAR period
ENCODING 46
SWIDTH 500 0
DWIDTH 7 0
BBX 2 2 2 0
BITMAP
C0
C0
ENDCHAR
STARTCHAR slash
ENCODING 47
SWIDTH 500 0
DWIDTH 7 0
BBX 6 13 0 -2
BITMAP
04
04
08
08
10
10
10
20
20
40
40
80
80
ENDCHAR
STARTCHAR zero
ENCODING 48
SWIDTH 500 0
DWIDTH 7 0
BBX 6 10 0 0
BITMAP
30
48
84
84
84
84
84
84
48
30
ENDCHAR
STARTCHAR one
ENCODING 49
SWIDTH 500 0
DWIDTH 7 0
BBX 5 10 1 0
BITMAP
20
60
A0
20
20
20
20
20
20
F8
ENDCHAR
STARTCHAR two
ENCODING 50
SWIDTH 500 0
DWIDTH 7 0
BBX 6 10 0 0
BITMAP
78
84
84
04
08
08
10
20
40
FC
ENDCHAR
STARTCHAR three
ENCODING 51
SWIDTH 500 0
DWIDTH 7 0
BBX 6 10 0 0
BITMAP
FC
04
08
10
38
04
04
84
84
78
ENDCHAR
STARTCHAR four
ENCODING 52
SWIDTH 500 0
DWIDTH 7 0
BBX 6 10 0 0
BITMAP
08
18
28
28
48
48
88
FC
08
08
ENDCHAR
STARTCHAR five
ENCODING 53
SWIDTH 500 0
DWIDTH 7 0
BBX 6 10 0 0
BITMAP
FC
80
80
F8
84
04
04
84
84
78
ENDCHAR
STARTCHAR six
ENCODING 54
SWIDTH 500 0
DWIDTH 7 0
BBX 6 10 0 0
BITMAP
38
40
80
80
B8
C4
84
84
84
78
ENDCHAR
STARTCHAR seven
ENCODING 55
SWIDTH 500 0
DWIDTH 7 0
BBX 6 10 0 0
BITMAP
FC
04
08
08
10
10
20
20
40
40
ENDCHAR
STARTCHAR eight
ENCODING 56
SWIDTH 500 0
DWIDTH 7 0
BBX 6 10 0 0
BITMAP
78
84
84
48
30
48
84
84
84
78
ENDCHAR
STARTCHAR nine
ENCODING 57
SWIDTH 500 0
DWIDTH 7 0
BBX 6 10 0 0
BITMAP
78
84
84
84
8C
74
04
84
88
70
ENDCHAR
STARTCHAR colon
ENCODING 58
SWIDTH 500 0
DWIDTH 7 0
BBX 2 6 2 1
BITMAP
C0
C0
00
00
C0
C0
ENDCHAR
STARTCHAR semicolon
ENCODING 59
SWIDTH 500 0
DWIDTH 7 0
BBX 2 8 2 -1
BITMAP
C0
C0
00
00
C0
40
40
80
ENDCHAR
STARTCHAR less
ENCODING 60
SWIDTH 500 0
DWIDTH 7 0
BBX 5 9 1 0
BITMAP
08
10
20
40
80
40
20
10
08
ENDCHAR
STARTCHAR equal
ENCODING 61
SWIDTH 500 0
DWIDTH 7 0
BBX 6 4 0 3
BITMAP
FC
00
00
FC
ENDCHAR
STARTCHAR greater
ENCODING 62
SWIDTH 500 0
DWIDTH 7 0
BBX 5 9 1 0
BITMAP
80
40
20
10
08
10
20
40
80
ENDCHAR
STARTCHAR question
ENCODING 63
SWIDTH 500 0
DWIDTH 7 0
BBX 6 10 0 0
BITMAP
78
84
84
08
10
10
10
00
10
10
ENDCHAR
STARTCHAR at
ENCODING 64
SWIDTH 500 0
DWIDTH 7 0
BBX 6 10 0 0
BITMAP
38
44
9C
A4
A4
A4
A4
9C
40
3C
ENDCHAR
STARTCHAR A
ENCODING 65
SWIDTH 500 0
DWIDTH 7 0
BBX 6 10 0 0
BITMAP
30
30
48
48
48
78
84
84
84
84
ENDCHAR
STARTCHAR B
ENCODING 66
SWIDTH 500 0
DWIDTH 7 0
BBX 6 10 0 0
BITMAP
F0
88
88
88
F0
88
84
84
88
F0
ENDCHAR
STARTCHAR C
ENCODING 67
SWIDTH 500 0
DWIDTH 7 0
BBX 6 10 0 0
BITMAP
38
44
84
80
80
80
80
84
44
38
ENDCHAR
STARTCHAR D
ENCODING 68
SWIDTH 500 0
DWIDTH 7 0
BBX 6 10 0 0
BITMAP
F0
88
84
84
84
84
84
84
88
F0
ENDCHAR
STARTCHAR E
ENCODING 69
SWIDTH 500 0
DWIDTH 7 0
BBX 6 10 0 0
BITMAP
FC
80
80
80
F0
80
80
80
80
FC
ENDCHAR
STARTCHAR F
ENCODING 70
SWIDTH 500 0
DWIDTH 7 0
BBX 6 10 0 0
BITMAP
FC
80
80
80
F0
80
80
80
80
80
ENDCHAR
STARTCHAR G
ENCODING 71
SWIDTH 500 0
DWIDTH 7 0
BBX 6 10 0 0
BITMAP
38
44
84
80
80
9C
84
84
4C
34
ENDCHAR
STARTCHAR H
ENCODING 72
SWIDTH 500 0
DWIDTH 7 0
BBX 6 10 0 0
BITMAP
84
84
84
84
FC
84
84
84
84
84
ENDCHAR
STARTCHAR I
ENCODING 73
SWIDTH 500 0
DWIDTH 7 0
BBX 3 10 2 0
BITMAP
E0
40
40
40
40
40
40
40
40
E0
ENDCHAR
STARTCHAR J
ENCODING 74
SWIDTH 500 0
DWIDTH 7 0
BBX 5 10 0 0
BITMAP
08
08
08
08
08
08
08
88
88
70
ENDCHAR
STARTCHAR K
ENCODING 75
SWIDTH 500 0
DWIDTH 7 0
BBX 6 10 0 0
BITMAP
84
88
90
90
A0
D0
90
88
88
84
ENDCHAR
STARTCHAR L
ENCODING 76
SWIDTH 500 0
DWIDTH 7 0
BBX 6 10 0 0
BITMAP
80
80
80
80
80
80
80
80
80
FC
ENDCHAR
STARTCHAR M
ENCODING 77
SWIDTH 500 0
DWIDTH 7 0
BBX 6 10 0 0
BITMAP
84
CC
CC
B4
B4
84
84
84
84
84
ENDCHAR
STARTCHAR N
ENCODING 78
SWIDTH 500 0
DWIDTH 7 0
BBX 6 10 0 0
BITMAP
84
84
C4
C4
A4
94
8C
8C
84
84
ENDCHAR
STARTCHAR O
ENCODING 79
SWIDTH 500 0
DWIDTH 7 0
BBX 6 10 0 0
BITMAP
78
84
84
84
84
84
84
84
84
78
ENDCHAR
STARTCHAR P
ENCODING 80
SWIDTH 500 0
DWIDTH 7 0
BBX 6 10 0 0
BITMAP
F8
84
84
84
84
F8
80
80
80
80
ENDCHAR
STARTCHAR Q
ENCODING 81
SWIDTH 500 0
DWIDTH 7 0
BBX 6 12 0 -2
BITMAP
78
84
84
84
84
84
E4
94
8C
78
08
04
ENDCHAR
STARTCHAR R
ENCODING 82
SWIDTH 500 0
DWIDTH 7 0
BBX 6 10 0 0
BITMAP
F8
84
84
84
84
F8
90
88
84
84
ENDCHAR
STARTCHAR S
ENCODING 83
SWIDTH 500 0
DWIDTH 7 0
BBX 6 10 0 0
BITMAP
78
84
84
80
60
18
04
84
84
78
ENDCHAR
STARTCHAR T
ENCODING 84
SWIDTH 500 0
DWIDTH 7 0
BBX 7 10 0 0
BITMAP
FE
10
10
10
10
10
10
10
10
10
ENDCHAR
STARTCHAR U
ENCODING 85
SWIDTH 500 0
DWIDTH 7 0
BBX 6 10 0 0
BITMAP
84
84
84
84
84
84
84
84
84
78
ENDCHAR
STARTCHAR V
ENCODING 86
SWIDTH 500 0
DWIDTH 7 0
BBX 6 10 0 0
BITMAP
84
84
84
84
48
48
48
30
30
30
ENDCHAR
STARTCHAR W
ENCODING 87
SWIDTH 500 0
DWIDTH 7 0
BBX 5 10 1 0
BITMAP
88
88
88
A8
A8
A8
A8
A8
50
50
ENDCHAR
STARTCHAR X
ENCODING 88
SWIDTH 500 0
DWIDTH 7 0
BBX 6 10 0 0
BITMAP
84
84
48
48
30
30
48
48
84
84
ENDCHAR
STARTCHAR Y
ENCODING 89
SWIDTH 500 0
DWIDTH 7 0
BBX 5 10 1 0
BITMAP
88
88
88
50
50
20
20
20
20
20
ENDCHAR
STARTCHAR Z
ENCODING 90
SWIDTH 500 0
DWIDTH 7 0
BBX 6 10 0 0
BITMAP
FC
04
08
10
10
20
40
40
80
FC
ENDCHAR
STARTCHAR bracketleft
ENCODING 91
SWIDTH 500 0
DWIDTH 7 0
BBX 4 13 2 -2
BITMAP
F0
80
80
80
80
80
80
80
80
80
80
80
F0
ENDCHAR
STARTCHAR backslash
ENCODING 92
SWIDTH 500 0
DWIDTH 7 0
BBX 6 13 0 -2
BITMAP
80
80
40
40
20
20
20
10
10
08
08
04
04
ENDCHAR
STARTCHAR bracketright
ENCODING 93
SWIDTH 500 0
DWIDTH 7 0
BBX 4 13 1 -2
BITMAP
F0
10
10
10
10
10
10
10
10
10
10
10
F0
ENDCHAR
STARTCHAR asciicircum
ENCODING 94
SWIDTH 500 0
DWIDTH 7 0
BBX 6 3 0 8
BITMAP
30
48
84
ENDCHAR
STARTCHAR underscore
ENCODING 95
SWIDTH 500 0
DWIDTH 7 0
BBX 6 1 0 -2
BITMAP
FC
ENDCHAR
STARTCHAR grave
ENCODING 96
SWIDTH 500 0
DWIDTH 7 0
BBX 2 4 2 7
BITMAP
C0
80
80
40
ENDCHAR
STARTCHAR a
ENCODING 97
SWIDTH 500 0
DWIDTH 7 0
BBX 6 7 0 0
BITMAP
78
84
04
7C
84
84
7C
ENDCHAR
STARTCHAR b
ENCODING 98
SWIDTH 500 0
DWIDTH 7 0
BBX 6 10 0 0
BITMAP
80
80
80
B8
C4
84
84
84
C4
B8
ENDCHAR
STARTCHAR c
ENCODING 99
SWIDTH 500 0
DWIDTH 7 0
BBX 6 7 0 0
BITMAP
78
84
80
80
80
84
78
ENDCHAR
STARTCHAR d
ENCODING 100
SWIDTH 500 0
DWIDTH 7 0
BBX 6 10 0 0
BITMAP
04
04
04
74
8C
84
84
84
8C
74
ENDCHAR
STARTCHAR e
ENCODING 101
SWIDTH 500 0
DWIDTH 7 0
BBX 6 7 0 0
BITMAP
78
84
84
FC
80
84
78
ENDCHAR
STARTCHAR f
ENCODING 102
SWIDTH 500 0
DWIDTH 7 0
BBX 6 10 0 0
BITMAP
18
24
20
20
F8
20
20
20
20
20
ENDCHAR
STARTCHAR g
ENCODING 103
SWIDTH 500 0
DWIDTH 7 0
BBX 6 9 0 -2
BITMAP
74
88
88
88
70
40
B8
84
78
ENDCHAR
STARTCHAR h
ENCODING 104
SWIDTH 500 0
DWIDTH 7 0
BBX 6 10 0 0
BITMAP
80
80
80
B8
C4
84
84
84
84
84
ENDCHAR
STARTCHAR i
ENCODING 105
SWIDTH 500 0
DWIDTH 7 0
BBX 2 10 2 0
BITMAP
40
40
00
C0
40
40
40
40
40
40
ENDCHAR
STARTCHAR j
ENCODING 106
SWIDTH 500 0
DWIDTH 7 0
BBX 4 12 1 -2
BITMAP
10
10
00
30
10
10
10
10
10
10
20
C0
ENDCHAR
STARTCHAR k
ENCODING 107
SWIDTH 500 0
DWIDTH 7 0
BBX 6 10 0 0
BITMAP
80
80
80
88
90
A0
E0
90
88
84
ENDCHAR
STARTCHAR l
ENCODING 108
SWIDTH 500 0
DWIDTH 7 0
BBX 2 10 2 0
BITMAP
C0
40
40
40
40
40
40
40
40
40
ENDCHAR
STARTCHAR m
ENCODING 109
SWIDTH 500 0
DWIDTH 7 0
BBX 5 7 1 0
BITMAP
D0
A8
A8
A8
A8
A8
88
ENDCHAR
STARTCHAR n
ENCODING 110
SWIDTH 500 0
DWIDTH 7 0
BBX 6 7 0 0
BITMAP
B8
C4
84
84
84
84
84
ENDCHAR
STARTCHAR o
ENCODING 111
SWIDTH 500 0
DWIDTH 7 0
BBX 6 7 0 0
BITMAP
78
84
84
84
84
84
78
ENDCHAR
STARTCHAR p
ENCODING 112
SWIDTH 500 0
DWIDTH 7 0
BBX 6 9 0 -2
BITMAP
B8
C4
84
84
84
C4
B8
80
80
ENDCHAR
STARTCHAR q
ENCODING 113
SWIDTH 500 0
DWIDTH 7 0
BBX 6 9 0 -2
BITMAP
74
8C
84
84
84
8C
74
04
04
ENDCHAR
STARTCHAR r
ENCODING 114
SWIDTH 500 0
DWIDTH 7 0
BBX 6 7 0 0
BITMAP
B8
C4
84
80
80
80
80
ENDCHAR
STARTCHAR s
ENCODING 115
SWIDTH 500 0
DWIDTH 7 0
BBX 6 7 0 0
BITMAP
78
84
40
30
08
84
78
ENDCHAR
STARTCHAR t
ENCODING 116
SWIDTH 500 0
DWIDTH 7 0
BBX 6 10 0 0
BITMAP
20
20
20
F8
20
20
20
20
24
18
ENDCHAR
STARTCHAR u
ENCODING 117
SWIDTH 500 0
DWIDTH 7 0
BBX 6 7 0 0
BITMAP
84
84
84
84
84
8C
74
ENDCHAR
STARTCHAR v
ENCODING 118
SWIDTH 500 0
DWIDTH 7 0
BBX 5 7 1 0
BITMAP
88
88
88
50
50
20
20
ENDCHAR
STARTCHAR w
ENCODING 119
SWIDTH 500 0
DWIDTH 7 0
BBX 5 7 1 0
BITMAP
88
88
A8
A8
A8
50
50
ENDCHAR
STARTCHAR x
ENCODING 120
SWIDTH 500 0
DWIDTH 7 0
BBX 6 7 0 0
BITMAP
84
48
48
30
48
48
84
ENDCHAR
STARTCHAR y
ENCODING 121
SWIDTH 500 0
DWIDTH 7 0
BBX 6 9 0 -2
BITMAP
84
84
48
48
30
10
20
20
C0
ENDCHAR
STARTCHAR z
ENCODING 122
SWIDTH 500 0
DWIDTH 7 0
BBX 6 7 0 0
BITMAP
FC
08
10
20
20
40
FC
ENDCHAR
STARTCHAR braceleft
ENCODING 123
SWIDTH 500 0
DWIDTH 7 0
BBX 4 13 2 -2
BITMAP
30
40
40
40
40
40
80
40
40
40
40
40
30
ENDCHAR
STARTCHAR bar
ENCODING 124
SWIDTH 500 0
DWIDTH 7 0
BBX 1 13 3 -2
BITMAP
80
80
80
80
80
80
80
80
80
80
80
80
80
ENDCHAR
STARTCHAR braceright
ENCODING 125
SWIDTH 500 0
DWIDTH 7 0
BBX 4 13 1 -2
BITMAP
C0
20
20
20
20
20
10
20
20
20
20
20
C0
ENDCHAR
STARTCHAR asciitilde
ENCODING 126
SWIDTH 500 0
DWIDTH 7 0
BBX 6 4 0 7
BITMAP
40
A4
94
08
ENDCHAR
STARTCHAR exclamdown
ENCODING 161
SWIDTH 500 0
DWIDTH 7 0
BBX 1 10 3 0
BITMAP
80
80
00
80
80
80
80
80
80
80
ENDCHAR
STARTCHAR cent
ENCODING 162
SWIDTH 500 0
DWIDTH 7 0
BBX 6 9 0 -1
BITMAP
20
78
A4
A0
A0
A0
A4
78
20
ENDCHAR
STARTCHAR sterling
ENCODING 163
SWIDTH 500 0
DWIDTH 7 0
BBX 5 9 1 0
BITMAP
30
48
40
40
F0
40
40
F0
48
ENDCHAR
STARTCHAR currency
ENCODING 164
SWIDTH 1000 0
DWIDTH 7 0
BBX 6 6 0 2
BITMAP
84
78
48
48
78
84
ENDCHAR
STARTCHAR yen
ENCODING 165
SWIDTH 500 0
DWIDTH 7 0
BBX 5 10 1 0
BITMAP
88
50
50
20
F8
20
F8
20
20
20
ENDCHAR
STARTCHAR brokenbar
ENCODING 166
SWIDTH 500 0
DWIDTH 7 0
BBX 1 10 3 0
BITMAP
80
80
80
80
00
00
80
80
80
80
ENDCHAR
STARTCHAR section
ENCODING 167
SWIDTH 1000 0
DWIDTH 7 0
BBX 6 11 0 0
BITMAP
78
84
40
30
48
84
48
30
08
84
78
ENDCHAR
STARTCHAR dieresis
ENCODING 168
SWIDTH 1000 0
DWIDTH 7 0
BBX 4 2 1 9
BITMAP
90
90
ENDCHAR
STARTCHAR copyright
ENCODING 169
SWIDTH 500 0
DWIDTH 7 0
BBX 6 11 0 0
BITMAP
78
84
B4
CC
C4
C4
C4
CC
B4
84
78
ENDCHAR
STARTCHAR ordfeminine
ENCODING 170
SWIDTH 500 0
DWIDTH 7 0
BBX 5 8 1 3
BITMAP
70
88
78
88
98
68
00
F8
ENDCHAR
STARTCHAR guillemotleft
ENCODING 171
SWIDTH 500 0
DWIDTH 7 0
BBX 6 7 0 0
BITMAP
14
28
50
A0
50
28
14
ENDCHAR
STARTCHAR logicalnot
ENCODING 172
SWIDTH 490 0
DWIDTH 7 0
BBX 5 4 1 0
BITMAP
F8
08
08
08
ENDCHAR
STARTCHAR uni00AD
ENCODING 173
SWIDTH 500 0
DWIDTH 7 0
BBX 4 1 1 4
BITMAP
F0
ENDCHAR
STARTCHAR registered
ENCODING 174
SWIDTH 500 0
DWIDTH 7 0
BBX 6 11 0 0
BITMAP
78
84
F4
CC
CC
F4
CC
CC
CC
84
78
ENDCHAR
STARTCHAR macron
ENCODING 175
SWIDTH 500 0
DWIDTH 7 0
BBX 5 1 1 9
BITMAP
F8
ENDCHAR
STARTCHAR degree
ENCODING 176
SWIDTH 1000 0
DWIDTH 7 0
BBX 4 4 1 7
BITMAP
60
90
90
60
ENDCHAR
STARTCHAR plusminus
ENCODING 177
SWIDTH 1000 0
DWIDTH 7 0
BBX 5 6 1 0
BITMAP
20
20
F8
20
20
F8
ENDCHAR
STARTCHAR uni00B2
ENCODING 178
SWIDTH 500 0
DWIDTH 7 0
BBX 4 7 1 4
BITMAP
60
90
10
20
40
80
F0
ENDCHAR
STARTCHAR uni00B3
ENCODING 179
SWIDTH 500 0
DWIDTH 7 0
BBX 4 7 1 4
BITMAP
60
90
10
60
10
90
60
ENDCHAR
STARTCHAR acute
ENCODING 180
SWIDTH 1000 0
DWIDTH 7 0
BBX 3 3 2 8
BITMAP
20
40
80
ENDCHAR
STARTCHAR uni00B5
ENCODING 181
SWIDTH 500 0
DWIDTH 7 0
BBX 6 8 0 -2
BITMAP
44
44
44
44
6C
54
40
80
ENDCHAR
STARTCHAR paragraph
ENCODING 182
SWIDTH 1000 0
DWIDTH 7 0
BBX 5 12 1 -2
BITMAP
78
E8
E8
E8
E8
68
28
28
28
28
28
28
ENDCHAR
STARTCHAR periodcentered
ENCODING 183
SWIDTH 500 0
DWIDTH 7 0
BBX 2 2 2 4
BITMAP
C0
C0
ENDCHAR
STARTCHAR cedilla
ENCODING 184
SWIDTH 500 0
DWIDTH 7 0
BBX 2 3 2 -2
BITMAP
40
40
80
ENDCHAR
STARTCHAR uni00B9
ENCODING 185
SWIDTH 500 0
DWIDTH 7 0
BBX 3 7 2 4
BITMAP
40
C0
40
40
40
40
E0
ENDCHAR
STARTCHAR ordmasculine
ENCODING 186
SWIDTH 500 0
DWIDTH 7 0
BBX 4 6 1 4
BITMAP
60
90
90
60
00
F0
ENDCHAR
STARTCHAR guillemotright
ENCODING 187
SWIDTH 500 0
DWIDTH 7 0
BBX 6 7 0 0
BITMAP
A0
50
28
14
28
50
A0
ENDCHAR
STARTCHAR onequarter
ENCODING 188
SWIDTH 500 0
DWIDTH 7 0
BBX 6 10 0 0
BITMAP
40
C4
48
48
50
24
2C
54
9C
84
ENDCHAR
STARTCHAR onehalf
ENCODING 189
SWIDTH 500 0
DWIDTH 7 0
BBX 6 10 0 0
BITMAP
40
C4
48
48
50
28
34
44
88
9C
ENDCHAR
STARTCHAR threequarters
ENCODING 190
SWIDTH 500 0
DWIDTH 7 0
BBX 6 10 0 0
BITMAP
C4
24
48
30
D0
24
4C
54
9C
04
ENDCHAR
STARTCHAR questiondown
ENCODING 191
SWIDTH 500 0
DWIDTH 7 0
BBX 6 11 0 -2
BITMAP
20
20
00
20
20
20
20
40
84
84
78
ENDCHAR
STARTCHAR Agrave
ENCODING 192
SWIDTH 500 0
DWIDTH 7 0
BBX 6 12 0 0
BITMAP
20
10
00
30
30
48
48
78
84
84
84
84
ENDCHAR
STARTCHAR Aacute
ENCODING 193
SWIDTH 500 0
DWIDTH 7 0
BBX 6 12 0 0
BITMAP
10
20
00
30
30
48
48
78
84
84
84
84
ENDCHAR
STARTCHAR Acircumflex
ENCODING 194
SWIDTH 500 0
DWIDTH 7 0
BBX 6 12 0 0
BITMAP
30
48
00
30
30
48
48
78
84
84
84
84
ENDCHAR
STARTCHAR Atilde
ENCODING 195
SWIDTH 500 0
DWIDTH 7 0
BBX 6 12 0 0
BITMAP
64
98
00
30
30
48
48
78
84
84
84
84
ENDCHAR
STARTCHAR Adieresis
ENCODING 196
SWIDTH 500 0
DWIDTH 7 0
BBX 6 11 0 0
BITMAP
48
00
30
30
48
48
78
84
84
84
84
ENDCHAR
STARTCHAR Aring
ENCODING 197
SWIDTH 500 0
DWIDTH 7 0
BBX 6 11 0 0
BITMAP
30
48
30
30
48
48
78
84
84
84
84
ENDCHAR
STARTCHAR AE
ENCODING 198
SWIDTH 875 0
DWIDTH 7 0
BBX 6 10 0 0
BITMAP
3C
30
50
50
7C
50
90
90
90
9C
ENDCHAR
STARTCHAR Ccedilla
ENCODING 199
SWIDTH 500 0
DWIDTH 7 0
BBX 6 12 0 -2
BITMAP
38
44
84
80
80
80
80
84
44
38
10
20
ENDCHAR
STARTCHAR Egrave
ENCODING 200
SWIDTH 500 0
DWIDTH 7 0
BBX 6 12 0 0
BITMAP
20
10
00
FC
80
80
80
F8
80
80
80
FC
ENDCHAR
STARTCHAR Eacute
ENCODING 201
SWIDTH 500 0
DWIDTH 7 0
BBX 6 12 0 0
BITMAP
10
20
00
FC
80
80
80
F8
80
80
80
FC
ENDCHAR
STARTCHAR Ecircumflex
ENCODING 202
SWIDTH 500 0
DWIDTH 7 0
BBX 6 12 0 0
BITMAP
30
48
00
FC
80
80
80
F8
80
80
80
FC
ENDCHAR
STARTCHAR Edieresis
ENCODING 203
SWIDTH 500 0
DWIDTH 7 0
BBX 6 11 0 0
BITMAP
48
00
FC
80
80
80
F8
80
80
80
FC
ENDCHAR
STARTCHAR Igrave
ENCODING 204
SWIDTH 500 0
DWIDTH 7 0
BBX 3 12 2 0
BITMAP
80
40
00
E0
40
40
40
40
40
40
40
E0
ENDCHAR
STARTCHAR Iacute
ENCODING 205
SWIDTH 500 0
DWIDTH 7 0
BBX 3 12 2 0
BITMAP
20
40
00
E0
40
40
40
40
40
40
40
E0
ENDCHAR
STARTCHAR Icircumflex
ENCODING 206
SWIDTH 500 0
DWIDTH 7 0
BBX 3 12 2 0
BITMAP
40
A0
00
E0
40
40
40
40
40
40
40
E0
ENDCHAR
STARTCHAR Idieresis
ENCODING 207
SWIDTH 500 0
DWIDTH 7 0
BBX 3 11 2 0
BITMAP
A0
00
E0
40
40
40
40
40
40
40
E0
ENDCHAR
STARTCHAR Eth
ENCODING 208
SWIDTH 500 0
DWIDTH 7 0
BBX 7 10 0 0
BITMAP
78
44
42
42
F2
42
42
42
44
78
ENDCHAR
STARTCHAR Ntilde
ENCODING 209
SWIDTH 500 0
DWIDTH 7 0
BBX 6 12 0 0
BITMAP
64
98
00
C4
C4
A4
A4
94
94
94
8C
8C
ENDCHAR
STARTCHAR Ograve
ENCODING 210
SWIDTH 500 0
DWIDTH 7 0
BBX 6 12 0 0
BITMAP
20
10
00
78
84
84
84
84
84
84
84
78
ENDCHAR
STARTCHAR Oacute
ENCODING 211
SWIDTH 500 0
DWIDTH 7 0
BBX 6 12 0 0
BITMAP
10
20
00
78
84
84
84
84
84
84
84
78
ENDCHAR
STARTCHAR Ocircumflex
ENCODING 212
SWIDTH 500 0
DWIDTH 7 0
BBX 6 12 0 0
BITMAP
30
48
00
78
84
84
84
84
84
84
84
78
ENDCHAR
STARTCHAR Otilde
ENCODING 213
SWIDTH 500 0
DWIDTH 7 0
BBX 6 12 0 0
BITMAP
64
98
00
78
84
84
84
84
84
84
84
78
ENDCHAR
STARTCHAR Odieresis
ENCODING 214
SWIDTH 500 0
DWIDTH 7 0
BBX 6 11 0 0
BITMAP
48
00
78
84
84
84
84
84
84
84
78
ENDCHAR
STARTCHAR multiply
ENCODING 215
SWIDTH 1000 0
DWIDTH 7 0
BBX 7 7 0 1
BITMAP
82
44
28
10
28
44
82
ENDCHAR
STARTCHAR Oslash
ENCODING 216
SWIDTH 500 0
DWIDTH 7 0
BBX 6 14 0 -2
BITMAP
04
04
78
8C
94
94
94
A4
A4
A4
C4
78
80
80
ENDCHAR
STARTCHAR Ugrave
ENCODING 217
SWIDTH 500 0
DWIDTH 7 0
BBX 6 12 0 0
BITMAP
20
10
00
84
84
84
84
84
84
84
84
78
ENDCHAR
STARTCHAR Uacute
ENCODING 218
SWIDTH 500 0
DWIDTH 7 0
BBX 6 12 0 0
BITMAP
10
20
00
84
84
84
84
84
84
84
84
78
ENDCHAR
STARTCHAR Ucircumflex
ENCODING 219
SWIDTH 500 0
DWIDTH 7 0
BBX 6 12 0 0
BITMAP
30
48
00
84
84
84
84
84
84
84
84
78
ENDCHAR
STARTCHAR Udieresis
ENCODING 220
SWIDTH 500 0
DWIDTH 7 0
BBX 6 11 0 0
BITMAP
48
00
84
84
84
84
84
84
84
84
78
ENDCHAR
STARTCHAR Yacute
ENCODING 221
SWIDTH 500 0
DWIDTH 7 0
BBX 5 12 1 0
BITMAP
10
20
00
88
88
50
50
20
20
20
20
20
ENDCHAR
STARTCHAR Thorn
ENCODING 222
SWIDTH 500 0
DWIDTH 7 0
BBX 6 10 0 0
BITMAP
80
80
F8
84
84
84
84
F8
80
80
ENDCHAR
STARTCHAR germandbls
ENCODING 223
SWIDTH 500 0
DWIDTH 7 0
BBX 6 10 0 0
BITMAP
30
48
48
48
70
48
44
44
44
F8
ENDCHAR
STARTCHAR agrave
ENCODING 224
SWIDTH 500 0
DWIDTH 7 0
BBX 1 1 6 -2
BITMAP
00
ENDCHAR
STARTCHAR aacute
ENCODING 225
SWIDTH 500 0
DWIDTH 7 0
BBX 1 1 6 -2
BITMAP
00
ENDCHAR
STARTCHAR acircumflex
ENCODING 226
SWIDTH 500 0
DWIDTH 7 0
BBX 1 1 6 -2
BITMAP
00
ENDCHAR
STARTCHAR atilde
ENCODING 227
SWIDTH 500 0
DWIDTH 7 0
BBX 1 1 6 -2
BITMAP
00
ENDCHAR
STARTCHAR adieresis
ENCODING 228
SWIDTH 500 0
DWIDTH 7 0
BBX 1 1 6 -2
BITMAP
00
ENDCHAR
STARTCHAR aring
ENCODING 229
SWIDTH 500 0
DWIDTH 7 0
BBX 1 1 6 -2
BITMAP
00
ENDCHAR
STARTCHAR ae
ENCODING 230
SWIDTH 812 0
DWIDTH 7 0
BBX 1 1 6 -2
BITMAP
00
ENDCHAR
STARTCHAR ccedilla
ENCODING 231
SWIDTH 500 0
DWIDTH 7 0
BBX 1 1 6 -2
BITMAP
00
ENDCHAR
STARTCHAR egrave
ENCODING 232
SWIDTH 500 0
DWIDTH 7 0
BBX 1 1 6 -2
BITMAP
00
ENDCHAR
STARTCHAR eacute
ENCODING 233
SWIDTH 500 0
DWIDTH 7 0
BBX 1 1 6 -2
BITMAP
00
ENDCHAR
STARTCHAR ecircumflex
ENCODING 234
SWIDTH 500 0
DWIDTH 7 0
BBX 1 1 6 -2
BITMAP
00
ENDCHAR
STARTCHAR edieresis
ENCODING 235
SWIDTH 500 0
DWIDTH 7 0
BBX 1 1 6 -2
BITMAP
00
ENDCHAR
STARTCHAR igrave
ENCODING 236
SWIDTH 500 0
DWIDTH 7 0
BBX 1 1 6 -2
BITMAP
00
ENDCHAR
STARTCHAR iacute
ENCODING 237
SWIDTH 500 0
DWIDTH 7 0
BBX 1 1 6 -2
BITMAP
00
ENDCHAR
STARTCHAR icircumflex
ENCODING 238
SWIDTH 500 0
DWIDTH 7 0
BBX 1 1 6 -2
BITMAP
00
ENDCHAR
STARTCHAR idieresis
ENCODING 239
SWIDTH 500 0
DWIDTH 7 0
BBX 1 1 6 -2
BITMAP
00
ENDCHAR
STARTCHAR eth
ENCODING 240
SWIDTH 500 0
DWIDTH 7 0
BBX 1 1 6 -2
BITMAP
00
ENDCHAR
STARTCHAR ntilde
ENCODING 241
SWIDTH 500 0
DWIDTH 7 0
BBX 1 1 6 -2
BITMAP
00
ENDCHAR
STARTCHAR ograve
ENCODING 242
SWIDTH 500 0
DWIDTH 7 0
BBX 1 1 6 -2
BITMAP
00
ENDCHAR
STARTCHAR oacute
ENCODING 243
SWIDTH 500 0
DWIDTH 7 0
BBX 1 1 6 -2
BITMAP
00
ENDCHAR
STARTCHAR ocircumflex
ENCODING 244
SWIDTH 500 0
DWIDTH 7 0
BBX 1 1 6 -2
BITMAP
00
ENDCHAR
STARTCHAR otilde
ENCODING 245
SWIDTH 500 0
DWIDTH 7 0
BBX 1 1 6 -2
BITMAP
00
ENDCHAR
STARTCHAR odieresis
ENCODING 246
SWIDTH 500 0
DWIDTH 7 0
BBX 1 1 6 -2
BITMAP
00
ENDCHAR
STARTCHAR divide
ENCODING 247
SWIDTH 1000 0
DWIDTH 7 0
BBX 1 1 6 -2
BITMAP
00
ENDCHAR
STARTCHAR oslash
ENCODING 248
SWIDTH 500 0
DWIDTH 7 0
BBX 1 1 6 -2
BITMAP
00
ENDCHAR
STARTCHAR ugrave
ENCODING 249
SWIDTH 500 0
DWIDTH 7 0
BBX 1 1 6 -2
BITMAP
00
ENDCHAR
STARTCHAR uacute
ENCODING 250
SWIDTH 500 0
DWIDTH 7 0
BBX 1 1 6 -2
BITMAP
00
ENDCHAR
STARTCHAR ucircumflex
ENCODING 251
SWIDTH 500 0
DWIDTH 7 0
BBX 1 1 6 -2
BITMAP
00
ENDCHAR
STARTCHAR udieresis
ENCODING 252
SWIDTH 500 0
DWIDTH 7 0
BBX 1 1 6 -2
BITMAP
00
ENDCHAR
STARTCHAR yacute
ENCODING 253
SWIDTH 500 0
DWIDTH 7 0
BBX 1 1 6 -2
BITMAP
00
ENDCHAR
STARTCHAR thorn
ENCODING 254
SWIDTH 500 0
DWIDTH 7 0
BBX 1 1 6 -2
BITMAP
00
ENDCHAR
STARTCHAR ydieresis
ENCODING 255
SWIDTH 500 0
DWIDTH 7 0
BBX 1 1 6 -2
BITMAP
00
ENDCHAR
STARTCHAR Alpha
ENCODING 913
SWIDTH 1000 0
DWIDTH 14 0
BBX 11 11 2 0
BITMAP
0400
0400
0A00
0A00
1100
1100
2080
3F80
4040
4040
E0E0
ENDCHAR
STARTCHAR Beta
ENCODING 914
SWIDTH 1000 0
DWIDTH 14 0
BBX 10 11 3 0
BITMAP
FC00
4300
4080
4080
4300
7E00
4180
4040
4040
4180
FE00
ENDCHAR
STARTCHAR Gamma
ENCODING 915
SWIDTH 1000 0
DWIDTH 14 0
BBX 9 11 3 0
BITMAP
FF00
4100
4080
4000
4000
4000
4000
4000
4000
4000
E000
ENDCHAR
STARTCHAR Delta
ENCODING 916
SWIDTH 1000 0
DWIDTH 14 0
BBX 11 11 2 0
BITMAP
0400
0400
0A00
0A00
1100
1100
2080
2080
4040
4040
FFE0
ENDCHAR
STARTCHAR Epsilon
ENCODING 917
SWIDTH 1000 0
DWIDTH 14 0
BBX 9 11 2 0
BITMAP
FF00
4100
4080
4000
4100
7F00
4100
4000
4000
4080
FF80
ENDCHAR
STARTCHAR Zeta
ENCODING 918
SWIDTH 1000 0
DWIDTH 14 0
BBX 11 11 2 0
BITMAP
7FC0
4080
8100
0200
0400
0400
0800
1000
2020
4040
FFC0
ENDCHAR
STARTCHAR Eta
ENCODING 919
SWIDTH 1000 0
DWIDTH 14 0
BBX 10 11 2 0
BITMAP
E1C0
4080
4080
4080
4080
7F80
4080
4080
4080
4080
E1C0
ENDCHAR
STARTCHAR Theta
ENCODING 920
SWIDTH 1000 0
DWIDTH 14 0
BBX 11 11 2 0
BITMAP
0E00
3180
4040
8020
9120
9F20
9120
8020
4040
3180
0E00
ENDCHAR
STARTCHAR Iota
ENCODING 921
SWIDTH 1000 0
DWIDTH 14 0
BBX 3 11 5 0
BITMAP
E0
40
40
40
40
40
40
40
40
40
E0
ENDCHAR
STARTCHAR Kappa
ENCODING 922
SWIDTH 1000 0
DWIDTH 14 0
BBX 10 11 2 0
BITMAP
E380
4100
4200
4400
5800
6800
4400
4200
4100
4080
E1C0
ENDCHAR
STARTCHAR Lambda
ENCODING 923
SWIDTH 1000 0
DWIDTH 14 0
BBX 11 11 2 0
BITMAP
0400
0400
0A00
0A00
1100
1100
2080
2080
4040
4040
E0E0
ENDCHAR
STARTCHAR Mu
ENCODING 924
SWIDTH 1000 0
DWIDTH 14 0
BBX 12 11 1 0
BITMAP
C030
6060
60A0
50A0
5120
4920
4A20
4420
4420
4020
E070
ENDCHAR
STARTCHAR Nu
ENCODING 925
SWIDTH 1000 0
DWIDTH 14 0
BBX 10 11 2 0
BITMAP
C1C0
6080
6080
5080
4880
4480
4480
4280
4180
4180
E080
ENDCHAR
STARTCHAR Xi
ENCODING 926
SWIDTH 1000 0
DWIDTH 14 0
BBX 10 12 2 -1
BITMAP
7FC0
4080
8080
0000
4080
7F80
4080
0000
0000
4040
4080
FF80
ENDCHAR
STARTCHAR Omicron
ENCODING 927
SWIDTH 1000 0
DWIDTH 14 0
BBX 11 11 2 0
BITMAP
0E00
3180
4040
8020
8020
8020
8020
8020
4040
3180
0E00
ENDCHAR
STARTCHAR Pi
ENCODING 928
SWIDTH 1000 0
DWIDTH 14 0
BBX 10 11 2 0
BITMAP
FFC0
4080
4080
4080
4080
4080
4080
4080
4080
4080
E1C0
ENDCHAR
STARTCHAR Rho
ENCODING 929
SWIDTH 1000 0
DWIDTH 14 0
BBX 9 11 2 0
BITMAP
FC00
4300
4080
4080
4300
7C00
4000
4000
4000
4000
E000
ENDCHAR
STARTCHAR Sigma
ENCODING 931
SWIDTH 1000 0
DWIDTH 14 0
BBX 10 11 2 0
BITMAP
FF00
4100
2080
1000
0800
0400
0400
0800
1040
2080
FF80
ENDCHAR
STARTCHAR Tau
ENCODING 932
SWIDTH 1000 0
DWIDTH 14 0
BBX 11 11 1 0
BITMAP
7FC0
4440
8420
0400
0400
0400
0400
0400
0400
0400
0E00
ENDCHAR
STARTCHAR Upsilon
ENCODING 933
SWIDTH 1000 0
DWIDTH 14 0
BBX 11 11 1 0
BITMAP
71C0
8A20
8420
0400
0400
0400
0400
0400
0400
0400
0E00
ENDCHAR
STARTCHAR Phi
ENCODING 934
SWIDTH 1000 0
DWIDTH 14 0
BBX 11 11 2 0
BITMAP
0E00
0400
1F00
64C0
8420
8420
8420
64C0
1F00
0400
0E00
ENDCHAR
STARTCHAR Chi
ENCODING 935
SWIDTH 1000 0
DWIDTH 14 0
BBX 11 11 2 0
BITMAP
E1C0
4080
2100
1200
0C00
0400
0A00
1100
2080
4040
E0E0
ENDCHAR
STARTCHAR Psi
ENCODING 936
SWIDTH 1000 0
DWIDTH 14 0
BBX 11 11 1 0
BITMAP
0E00
8420
4440
2480
2480
2480
1500
0E00
0400
0400
0E00
ENDCHAR
STARTCHAR Omega
ENCODING 937
SWIDTH 1000 0
DWIDTH 14 0
BBX 10 11 2 0
BITMAP
0C00
3300
4080
8040
8040
8040
4080
2100
1200
9240
F3C0
ENDCHAR
STARTCHAR alpha
ENCODING 945
SWIDTH 1000 0
DWIDTH 14 0
BBX 9 9 3 0
BITMAP
0100
1900
2500
4200
8200
8200
8600
4A00
3180
ENDCHAR
STARTCHAR beta
ENCODING 946
SWIDTH 1000 0
DWIDTH 14 0
BBX 9 13 3 -2
BITMAP
0700
0880
1080
1080
2100
2E00
2100
2100
4100
6200
5C00
8000
8000
ENDCHAR
STARTCHAR gamma
ENCODING 947
SWIDTH 1000 0
DWIDTH 14 0
BBX 8 9 4 -1
BITMAP
63
94
18
10
10
20
20
20
20
ENDCHAR
STARTCHAR delta
ENCODING 948
SWIDTH 1000 0
DWIDTH 14 0
BBX 8 11 4 0
BITMAP
38
46
41
20
38
44
84
84
88
90
60
ENDCHAR
STARTCHAR epsilon
ENCODING 949
SWIDTH 1000 0
DWIDTH 14 0
BBX 6 8 4 0
BITMAP
38
44
40
38
40
80
84
78
ENDCHAR
STARTCHAR zeta
ENCODING 950
SWIDTH 1000 0
DWIDTH 14 0
BBX 6 13 4 -2
BITMAP
40
8C
70
20
40
40
80
80
60
18
04
64
38
ENDCHAR
STARTCHAR eta
ENCODING 951
SWIDTH 1000 0
DWIDTH 14 0
BBX 8 10 3 -2
BITMAP
66
99
11
21
21
22
42
44
04
04
ENDCHAR
STARTCHAR theta
ENCODING 952
SWIDTH 1000 0
DWIDTH 14 0
BBX 8 11 4 0
BITMAP
0E
11
21
41
42
FE
82
84
84
88
70
ENDCHAR
STARTCHAR iota
ENCODING 953
SWIDTH 1000 0
DWIDTH 14 0
BBX 4 8 5 0
BITMAP
20
40
40
80
80
80
90
60
ENDCHAR
STARTCHAR kappa
ENCODING 954
SWIDTH 1000 0
DWIDTH 14 0
BBX 9 8 3 0
BITMAP
2180
2600
2800
7000
4800
4800
8900
8600
ENDCHAR
STARTCHAR lambda
ENCODING 955
SWIDTH 1000 0
DWIDTH 14 0
BBX 8 11 4 0
BITMAP
38
04
04
0C
14
14
24
44
44
84
83
ENDCHAR
STARTCHAR mu
ENCODING 956
SWIDTH 1000 0
DWIDTH 14 0
BBX 10 10 3 -2
BITMAP
2100
2100
2200
2200
4200
4200
6640
5980
8000
8000
ENDCHAR
STARTCHAR nu
ENCODING 957
SWIDTH 1000 0
DWIDTH 14 0
BBX 7 8 4 0
BITMAP
82
42
44
44
48
50
60
80
ENDCHAR
STARTCHAR xi
ENCODING 958
SWIDTH 1000 0
DWIDTH 14 0
BBX 7 14 4 -2
BITMAP
30
46
38
20
40
40
38
44
80
80
60
18
04
78
ENDCHAR
STARTCHAR omicron
ENCODING 959
SWIDTH 1000 0
DWIDTH 14 0
BBX 8 8 4 0
BITMAP
0C
32
41
81
82
82
4C
30
ENDCHAR
STARTCHAR pi
ENCODING 960
SWIDTH 1000 0
DWIDTH 14 0
BBX 11 9 2 0
BITMAP
3020
4FC0
8900
1100
1200
2200
2200
2200
C180
ENDCHAR
STARTCHAR rho
ENCODING 961
SWIDTH 1000 0
DWIDTH 14 0
BBX 9 10 3 -2
BITMAP
0700
0880
1080
2080
2100
6100
6200
5C00
8000
8000
ENDCHAR
STARTCHAR sigma
ENCODING 963
SWIDTH 1000 0
DWIDTH 14 0
BBX 9 8 3 0
BITMAP
0F80
3400
4200
8200
8200
8400
8800
7000
ENDCHAR
STARTCHAR tau
ENCODING 964
SWIDTH 1000 0
DWIDTH 14 0
BBX 9 8 3 0
BITMAP
3180
4E00
8800
1000
1000
2000
2400
1800
ENDCHAR
STARTCHAR upsilon
ENCODING 965
SWIDTH 1000 0
DWIDTH 14 0
BBX 7 8 4 0
BITMAP
44
42
82
82
84
84
88
70
ENDCHAR
STARTCHAR phi
ENCODING 966
SWIDTH 1000 0
DWIDTH 14 0
BBX 8 13 3 -2
BITMAP
04
04
04
1C
6A
89
89
91
92
54
38
20
20
ENDCHAR
STARTCHAR chi
ENCODING 967
SWIDTH 1000 0
DWIDTH 14 0
BBX 10 13 2 -2
BITMAP
1840
2440
0480
0500
0600
0400
0C00
1400
1400
2400
4400
8480
8300
ENDCHAR
STARTCHAR psi
ENCODING 968
SWIDTH 1000 0
DWIDTH 14 0
BBX 11 13 1 -2
BITMAP
0100
0100
0100
6140
9220
1220
1220
2440
2480
2700
1C00
0800
0800
ENDCHAR
STARTCHAR omega
ENCODING 969
SWIDTH 1000 0
DWIDTH 14 0
BBX 10 8 2 0
BITMAP
2080
4040
4440
8840
8880
8880
9900
6600
ENDCHAR
STARTCHAR afii10023
ENCODING 1025
SWIDTH 1000 0
DWIDTH 14 0
BBX 9 12 2 0
BITMAP
2400
2400
FF00
4080
4000
4200
7E00
4200
4000
4000
4080
FF80
ENDCHAR
STARTCHAR afii10017
ENCODING 1040
SWIDTH 1000 0
DWIDTH 14 0
BBX 11 11 2 0
BITMAP
0400
0400
0A00
0A00
1100
1100
2080
3F80
4040
4040
E0E0
ENDCHAR
STARTCHAR afii10018
ENCODING 1041
SWIDTH 1000 0
DWIDTH 14 0
BBX 10 11 3 0
BITMAP
FF00
4100
4080
4000
4000
7E00
4180
4040
4040
4180
FE00
ENDCHAR
STARTCHAR afii10019
ENCODING 1042
SWIDTH 1000 0
DWIDTH 14 0
BBX 10 11 3 0
BITMAP
FC00
4300
4080
4080
4300
7E00
4180
4040
4040
4180
FE00
ENDCHAR
STARTCHAR afii10020
ENCODING 1043
SWIDTH 1000 0
DWIDTH 14 0
BBX 9 11 3 0
BITMAP
FF00
4100
4080
4000
4000
4000
4000
4000
4000
4000
E000
ENDCHAR
STARTCHAR afii10021
ENCODING 1044
SWIDTH 1000 0
DWIDTH 14 0
BBX 11 13 2 -2
BITMAP
3FC0
1080
1080
1080
1080
1080
1080
1080
2080
2080
FFE0
8020
8020
ENDCHAR
STARTCHAR afii10022
ENCODING 1045
SWIDTH 1000 0
DWIDTH 14 0
BBX 9 11 2 0
BITMAP
FF00
4100
4080
4000
4100
7F00
4100
4000
4000
4080
FF80
ENDCHAR
STARTCHAR afii10024
ENCODING 1046
SWIDTH 1000 0
DWIDTH 14 0
BBX 11 11 2 0
BITMAP
CE60
A4A0
2480
2480
2480
1F00
1500
2480
4440
4440
CE60
ENDCHAR
STARTCHAR afii10025
ENCODING 1047
SWIDTH 1000 0
DWIDTH 14 0
BBX 9 11 3 0
BITMAP
1C00
6300
8080
0080
0300
1E00
0300
0080
8080
6300
1C00
ENDCHAR
STARTCHAR afii10026
ENCODING 1048
SWIDTH 1000 0
DWIDTH 14 0
BBX 10 11 2 0
BITMAP
E0C0
4180
4180
4280
4480
4880
4880
5080
6080
6080
41C0
ENDCHAR
STARTCHAR afii10027
ENCODING 1049
SWIDTH 1000 0
DWIDTH 14 0
BBX 10 12 2 0
BITMAP
1200
0C00
E0C0
4180
4280
4280
4480
4880
5080
6080
6080
41C0
ENDCHAR
STARTCHAR afii10028
ENCODING 1050
SWIDTH 1000 0
DWIDTH 14 0
BBX 10 11 2 0
BITMAP
E180
4240
4400
4800
5800
6800
4400
4200
4100
4080
E1C0
ENDCHAR
STARTCHAR afii10029
ENCODING 1051
SWIDTH 1000 0
DWIDTH 14 0
BBX 11 11 2 0
BITMAP
0FE0
0840
0840
0840
0840
0840
0840
0840
9040
9040
60E0
ENDCHAR
STARTCHAR afii10030
ENCODING 1052
SWIDTH 1000 0
DWIDTH 14 0
BBX 12 11 1 0
BITMAP
6060
2040
30C0
3140
2940
2A40
4620
4420
4420
4020
E070
ENDCHAR
STARTCHAR afii10031
ENCODING 1053
SWIDTH 1000 0
DWIDTH 14 0
BBX 10 11 2 0
BITMAP
E1C0
4080
4080
4080
4080
7F80
4080
4080
4080
4080
E1C0
ENDCHAR
STARTCHAR afii10032
ENCODING 1054
SWIDTH 1000 0
DWIDTH 14 0
BBX 11 11 2 0
BITMAP
0E00
3180
4040
8020
8020
8020
8020
8020
4040
3180
0E00
ENDCHAR
STARTCHAR afii10033
ENCODING 1055
SWIDTH 1000 0
DWIDTH 14 0
BBX 10 11 2 0
BITMAP
FFC0
4080
4080
4080
4080
4080
4080
4080
4080
4080
E1C0
ENDCHAR
STARTCHAR afii10034
ENCODING 1056
SWIDTH 1000 0
DWIDTH 14 0
BBX 9 11 2 0
BITMAP
FC00
4300
4080
4080
4300
7C00
4000
4000
4000
4000
E000
ENDCHAR
STARTCHAR afii10035
ENCODING 1057
SWIDTH 1000 0
DWIDTH 14 0
BBX 10 11 2 0
BITMAP
0F40
30C0
4040
8000
8000
8000
8000
8000
4040
3080
0F00
ENDCHAR
STARTCHAR afii10036
ENCODING 1058
SWIDTH 1000 0
DWIDTH 14 0
BBX 11 11 1 0
BITMAP
7FC0
4440
8420
0400
0400
0400
0400
0400
0400
0400
0E00
ENDCHAR
STARTCHAR afii10037
ENCODING 1059
SWIDTH 1000 0
DWIDTH 14 0
BBX 11 13 2 -2
BITMAP
E0E0
4040
2040
2080
1080
0900
0900
0600
0200
0400
0400
0800
3000
ENDCHAR
STARTCHAR afii10038
ENCODING 1060
SWIDTH 1000 0
DWIDTH 14 0
BBX 11 11 2 0
BITMAP
0E00
0400
1F00
64C0
8420
8420
8420
64C0
1F00
0400
0E00
ENDCHAR
STARTCHAR afii10039
ENCODING 1061
SWIDTH 1000 0
DWIDTH 14 0
BBX 11 11 2 0
BITMAP
E1C0
4080
2100
1200
0C00
0400
0A00
1100
2080
4040
E0E0
ENDCHAR
STARTCHAR afii10040
ENCODING 1062
SWIDTH 1000 0
DWIDTH 14 0
BBX 11 13 2 -2
BITMAP
E1C0
4080
4080
4080
4080
4080
4080
4080
4080
4080
FFE0
0020
0020
ENDCHAR
STARTCHAR afii10041
ENCODING 1063
SWIDTH 1000 0
DWIDTH 14 0
BBX 10 11 2 0
BITMAP
E1C0
4080
4080
4080
4080
4180
2280
1C80
0080
0080
01C0
ENDCHAR
STARTCHAR afii10042
ENCODING 1064
SWIDTH 1000 0
DWIDTH 14 0
BBX 11 11 2 0
BITMAP
EEE0
4440
4440
4440
4440
4440
4440
4440
4440
4440
FFE0
ENDCHAR
STARTCHAR afii10043
ENCODING 1065
SWIDTH 1000 0
DWIDTH 14 0
BBX 11 13 2 -2
BITMAP
EEE0
4440
4440
4440
4440
4440
4440
4440
4440
4440
FFE0
0020
0020
ENDCHAR
STARTCHAR afii10044
ENCODING 1066
SWIDTH 1000 0
DWIDTH 14 0
BBX 11 11 2 0
BITMAP
7C00
4800
8800
0800
0F00
08C0
0820
0820
0820
08C0
1F00
ENDCHAR
STARTCHAR afii10045
ENCODING 1067
SWIDTH 1000 0
DWIDTH 14 0
BBX 10 11 2 0
BITMAP
E1C0
4080
4080
4080
7880
4480
4280
4280
4280
4C80
F1C0
ENDCHAR
STARTCHAR afii10046
ENCODING 1068
SWIDTH 1000 0
DWIDTH 14 0
BBX 8 11 4 0
BITMAP
E0
40
40
40
78
46
41
41
41
46
F8
ENDCHAR
STARTCHAR afii10047
ENCODING 1069
SWIDTH 1000 0
DWIDTH 14 0
BBX 10 11 3 0
BITMAP
1C00
6300
8080
0080
3040
49C0
0640
0080
8080
6300
1C00
ENDCHAR
STARTCHAR afii10048
ENCODING 1070
SWIDTH 1000 0
DWIDTH 14 0
BBX 11 11 2 0
BITMAP
E380
4440
4440
4820
4820
7820
4820
4820
4440
4440
E380
ENDCHAR
STARTCHAR afii10049
ENCODING 1071
SWIDTH 1000 0
DWIDTH 14 0
BBX 10 11 2 0
BITMAP
0FC0
3080
4080
4080
3080
0F80
1080
2080
2080
4080
E1C0
ENDCHAR
STARTCHAR afii10065
ENCODING 1072
SWIDTH 1000 0
DWIDTH 14 0
BBX 8 8 3 0
BITMAP
3C
42
42
1E
62
82
86
79
ENDCHAR
STARTCHAR afii10066
ENCODING 1073
SWIDTH 1000 0
DWIDTH 14 0
BBX 8 12 4 0
BITMAP
01
0E
30
40
58
E6
81
81
81
81
66
18
ENDCHAR
STARTCHAR afii10067
ENCODING 1074
SWIDTH 1000 0
DWIDTH 14 0
BBX 8 8 4 0
BITMAP
FC
42
42
7C
42
41
41
FE
ENDCHAR
STARTCHAR afii10068
ENCODING 1075
SWIDTH 1000 0
DWIDTH 14 0
BBX 8 8 3 0
BITMAP
FE
42
41
40
40
40
40
E0
ENDCHAR
STARTCHAR afii10069
ENCODING 1076
SWIDTH 1000 0
DWIDTH 14 0
BBX 10 10 2 -2
BITMAP
1FC0
1080
1080
1080
1080
1080
2080
FF80
8080
8080
ENDCHAR
STARTCHAR afii10070
ENCODING 1077
SWIDTH 1000 0
DWIDTH 14 0
BBX 8 8 3 0
BITMAP
3C
42
81
FF
80
81
62
1C
ENDCHAR
STARTCHAR afii10072
ENCODING 1078
SWIDTH 1000 0
DWIDTH 14 0
BBX 11 8 2 0
BITMAP
CE60
2480
1500
0E00
1500
2480
2480
CE60
ENDCHAR
STARTCHAR afii10073
ENCODING 1079
SWIDTH 1000 0
DWIDTH 14 0
BBX 8 8 3 0
BITMAP
3C
43
81
1E
03
81
42
3C
ENDCHAR
STARTCHAR afii10074
ENCODING 1080
SWIDTH 1000 0
DWIDTH 14 0
BBX 10 8 2 0
BITMAP
E1C0
4180
4280
4480
4880
5080
6080
E1C0
ENDCHAR
STARTCHAR afii10075
ENCODING 1081
SWIDTH 1000 0
DWIDTH 14 0
BBX 10 10 2 0
BITMAP
1200
0C00
E1C0
4180
4280
4480
4880
5080
6080
E1C0
ENDCHAR
STARTCHAR afii10076
ENCODING 1082
SWIDTH 1000 0
DWIDTH 14 0
BBX 9 8 3 0
BITMAP
E300
4500
4800
7800
4400
4200
4100
E380
ENDCHAR
STARTCHAR afii10077
ENCODING 1083
SWIDTH 1000 0
DWIDTH 14 0
BBX 10 8 2 0
BITMAP
1FC0
0880
0880
0880
0880
9080
9080
61C0
ENDCHAR
STARTCHAR afii10078
ENCODING 1084
SWIDTH 1000 0
DWIDTH 14 0
BBX 11 8 2 0
BITMAP
E0E0
60C0
5140
5140
4A40
4A40
4440
E0E0
ENDCHAR
STARTCHAR afii10079
ENCODING 1085
SWIDTH 1000 0
DWIDTH 14 0
BBX 9 8 3 0
BITMAP
E380
4100
4100
7F00
4100
4100
4100
E380
ENDCHAR
STARTCHAR afii10080
ENCODING 1086
SWIDTH 1000 0
DWIDTH 14 0
BBX 8 8 3 0
BITMAP
3C
42
81
81
81
81
42
3C
ENDCHAR
STARTCHAR afii10081
ENCODING 1087
SWIDTH 1000 0
DWIDTH 14 0
BBX 9 8 3 0
BITMAP
FF80
4100
4100
4100
4100
4100
4100
E380
ENDCHAR
STARTCHAR afii10082
ENCODING 1088
SWIDTH 1000 0
DWIDTH 14 0
BBX 8 10 3 -2
BITMAP
5C
62
41
41
41
41
62
5C
40
E0
ENDCHAR
STARTCHAR afii10083
ENCODING 1089
SWIDTH 1000 0
DWIDTH 14 0
BBX 8 8 3 0
BITMAP
3C
42
81
80
80
81
42
3C
ENDCHAR
STARTCHAR afii10084
ENCODING 1090
SWIDTH 1000 0
DWIDTH 14 0
BBX 9 8 3 0
BITMAP
7F00
4900
8880
0800
0800
0800
0800
1C00
ENDCHAR
STARTCHAR afii10085
ENCODING 1091
SWIDTH 1000 0
DWIDTH 14 0
BBX 9 10 3 -2
BITMAP
E380
4100
2100
2200
1200
1400
0C00
0800
1000
6000
ENDCHAR
STARTCHAR afii10086
ENCODING 1092
SWIDTH 1000 0
DWIDTH 14 0
BBX 11 13 2 -2
BITMAP
0E00
0400
0400
3580
4E40
8420
8420
8420
8420
4E40
3580
0400
0E00
ENDCHAR
STARTCHAR afii10087
ENCODING 1093
SWIDTH 1000 0
DWIDTH 14 0
BBX 8 8 3 0
BITMAP
C3
42
24
18
18
24
42
C3
ENDCHAR
STARTCHAR afii10088
ENCODING 1094
SWIDTH 1000 0
DWIDTH 14 0
BBX 9 10 3 -2
BITMAP
E380
4100
4100
4100
4100
4100
4100
FF80
0080
0080
ENDCHAR
STARTCHAR afii10089
ENCODING 1095
SWIDTH 1000 0
DWIDTH 14 0
BBX 9 8 3 0
BITMAP
E380
4100
4100
4300
3D00
0100
0100
0380
ENDCHAR
STARTCHAR afii10090
ENCODING 1096
SWIDTH 1000 0
DWIDTH 14 0
BBX 11 8 2 0
BITMAP
EEE0
4440
4440
4440
4440
4440
4440
7FE0
ENDCHAR
STARTCHAR afii10091
ENCODING 1097
SWIDTH 1000 0
DWIDTH 14 0
BBX 11 10 2 -2
BITMAP
EEE0
4440
4440
4440
4440
4440
4440
7FE0
0020
0020
ENDCHAR
STARTCHAR afii10092
ENCODING 1098
SWIDTH 1000 0
DWIDTH 14 0
BBX 10 8 2 0
BITMAP
7C00
4800
8800
0F00
08C0
0840
08C0
1F00
ENDCHAR
STARTCHAR afii10093
ENCODING 1099
SWIDTH 1000 0
DWIDTH 14 0
BBX 9 8 3 0
BITMAP
E380
4100
4100
7100
4D00
4500
4D00
F380
ENDCHAR
STARTCHAR afii10094
ENCODING 1100
SWIDTH 1000 0
DWIDTH 14 0
BBX 7 8 4 0
BITMAP
E0
40
40
78
46
42
46
F8
ENDCHAR
STARTCHAR afii10095
ENCODING 1101
SWIDTH 1000 0
DWIDTH 14 0
BBX 9 8 3 0
BITMAP
3C00
4300
8100
1B80
2480
8100
4200
3C00
ENDCHAR
STARTCHAR afii10096
ENCODING 1102
SWIDTH 1000 0
DWIDTH 14 0
BBX 10 8 2 0
BITMAP
E300
4480
4840
7840
4840
4840
4480
E300
ENDCHAR
STARTCHAR afii10097
ENCODING 1103
SWIDTH 1000 0
DWIDTH 14 0
BBX 8 8 3 0
BITMAP
3F
42
42
42
3E
22
42
E7
ENDCHAR
STARTCHAR afii10071
ENCODING 1105
SWIDTH 1000 0
DWIDTH 14 0
BBX 8 11 3 0
BITMAP
24
24
00
3C
42
81
FF
80
81
62
1C
ENDCHAR
STARTCHAR uni2003
ENCODING 8195
SWIDTH 1000 0
DWIDTH 14 0
BBX 1 1 13 -2
BITMAP
00
ENDCHAR
STARTCHAR uni2010
ENCODING 8208
SWIDTH 1000 0
DWIDTH 14 0
BBX 5 1 5 5
BITMAP
F8
ENDCHAR
STARTCHAR afii00208
ENCODING 8213
SWIDTH 1000 0
DWIDTH 14 0
BBX 14 1 0 5
BITMAP
FFFC
ENDCHAR
STARTCHAR uni2016
ENCODING 8214
SWIDTH 915 0
DWIDTH 14 0
BBX 4 14 5 -2
BITMAP
90
90
90
90
90
90
90
90
90
90
90
90
90
90
ENDCHAR
STARTCHAR dagger
ENCODING 8224
SWIDTH 1000 0
DWIDTH 14 0
BBX 9 14 3 -2
BITMAP
0800
1C00
0800
4900
FF80
4900
1C00
1C00
0800
0800
0800
0800
0800
0800
ENDCHAR
STARTCHAR daggerdbl
ENCODING 8225
SWIDTH 1000 0
DWIDTH 14 0
BBX 9 14 3 -2
BITMAP
0800
1C00
4900
FF80
4900
1C00
0800
0800
1C00
4900
FF80
4900
1C00
0800
ENDCHAR
STARTCHAR twodotenleader
ENCODING 8229
SWIDTH 1000 0
DWIDTH 14 0
BBX 8 2 3 4
BITMAP
C3
C3
ENDCHAR
STARTCHAR ellipsis
ENCODING 8230
SWIDTH 1000 0
DWIDTH 14 0
BBX 10 2 2 4
BITMAP
CCC0
CCC0
ENDCHAR
STARTCHAR perthousand
ENCODING 8240
SWIDTH 1000 0
DWIDTH 14 0
BBX 13 12 1 -1
BITMAP
3040
4880
CD00
CD00
4A00
3400
0620
0D50
1DD8
2DD8
2550
4220
ENDCHAR
STARTCHAR minute
ENCODING 8242
SWIDTH 1000 0
DWIDTH 14 0
BBX 4 5 1 6
BITMAP
30
30
60
40
80
ENDCHAR
STARTCHAR second
ENCODING 8243
SWIDTH 1000 0
DWIDTH 14 0
BBX 7 5 1 6
BITMAP
36
36
6C
48
90
ENDCHAR
STARTCHAR uni203B
ENCODING 8251
SWIDTH 1000 0
DWIDTH 14 0
BBX 11 11 2 -1
BITMAP
8420
4E40
2480
1100
4A40
E4E0
4A40
1100
2480
4E40
8420
ENDCHAR
STARTCHAR uni203E
ENCODING 8254
SWIDTH 500 0
DWIDTH 7 0
BBX 7 1 0 11
BITMAP
FE
ENDCHAR
STARTCHAR uni2103
ENCODING 8451
SWIDTH 1000 0
DWIDTH 14 0
BBX 12 12 1 -1
BITMAP
6000
91D0
9230
6610
0C10
0C00
0C00
0C00
0C00
0410
0220
01C0
ENDCHAR
STARTCHAR uni212B
ENCODING 8491
SWIDTH 1000 0
DWIDTH 14 0
BBX 11 13 2 -1
BITMAP
0C00
1200
1200
0C00
0400
0E00
0E00
1300
1300
2180
3F80
40C0
E1E0
ENDCHAR
STARTCHAR arrowleft
ENCODING 8592
SWIDTH 1000 0
DWIDTH 14 0
BBX 12 7 1 2
BITMAP
0400
0800
3000
FFF0
3000
0800
0400
ENDCHAR
STARTCHAR arrowup
ENCODING 8593
SWIDTH 1000 0
DWIDTH 14 0
BBX 7 12 4 -1
BITMAP
10
10
38
38
54
92
10
10
10
10
10
10
ENDCHAR
STARTCHAR arrowright
ENCODING 8594
SWIDTH 1000 0
DWIDTH 14 0
BBX 12 7 1 2
BITMAP
0200
0100
00C0
FFF0
00C0
0100
0200
ENDCHAR
STARTCHAR arrowdown
ENCODING 8595
SWIDTH 1000 0
DWIDTH 14 0
BBX 7 12 4 -1
BITMAP
10
10
10
10
10
10
92
54
38
38
10
10
ENDCHAR
STARTCHAR arrowdblright
ENCODING 8658
SWIDTH 1000 0
DWIDTH 14 0
BBX 12 7 1 2
BITMAP
0080
0040
FFE0
0010
FFE0
0040
0080
ENDCHAR
STARTCHAR arrowdblboth
ENCODING 8660
SWIDTH 1000 0
DWIDTH 14 0
BBX 12 7 1 2
BITMAP
1080
2040
7FE0
8010
7FE0
2040
1080
ENDCHAR
STARTCHAR universal
ENCODING 8704
SWIDTH 1000 0
DWIDTH 14 0
BBX 11 12 2 -1
BITMAP
8020
8020
4040
7FC0
2080
2080
1100
1100
0A00
0A00
0400
0400
ENDCHAR
STARTCHAR partialdiff
ENCODING 8706
SWIDTH 1000 0
DWIDTH 14 0
BBX 7 12 4 -1
BITMAP
1C
26
02
02
3A
66
46
C6
C4
CC
58
30
ENDCHAR
STARTCHAR existential
ENCODING 8707
SWIDTH 1000 0
DWIDTH 14 0
BBX 8 11 3 0
BITMAP
FF
01
01
01
01
FF
01
01
01
01
FF
ENDCHAR
STARTCHAR gradient
ENCODING 8711
SWIDTH 1000 0
DWIDTH 14 0
BBX 11 11 2 -1
BITMAP
FFE0
7FC0
6040
2080
3080
1100
1900
0A00
0E00
0400
0400
ENDCHAR
STARTCHAR element
ENCODING 8712
SWIDTH 1000 0
DWIDTH 14 0
BBX 10 9 2 1
BITMAP
0FC0
3000
4000
8000
FFC0
8000
4000
3000
0FC0
ENDCHAR
STARTCHAR suchthat
ENCODING 8715
SWIDTH 1000 0
DWIDTH 14 0
BBX 10 9 2 1
BITMAP
FC00
0300
0080
0040
FFC0
0040
0080
0300
FC00
ENDCHAR
STARTCHAR minus
ENCODING 8722
SWIDTH 500 0
DWIDTH 14 0
BBX 11 1 2 5
BITMAP
FFE0
ENDCHAR
STARTCHAR radical
ENCODING 8730
SWIDTH 1000 0
DWIDTH 14 0
BBX 12 12 1 -1
BITMAP
03F0
0200
0200
0200
0400
0400
0400
4400
E800
3800
1800
0800
ENDCHAR
STARTCHAR proportional
ENCODING 8733
SWIDTH 1000 0
DWIDTH 14 0
BBX 9 6 3 2
BITMAP
3180
4A00
8400
8400
4A00
3180
ENDCHAR
STARTCHAR infinity
ENCODING 8734
SWIDTH 1000 0
DWIDTH 14 0
BBX 11 6 2 2
BITMAP
71C0
DB60
8E20
8E20
DB60
71C0
ENDCHAR
STARTCHAR angle
ENCODING 8736
SWIDTH 1000 0
DWIDTH 14 0
BBX 10 10 2 0
BITMAP
0040
0080
0100
0200
0400
0800
1000
2000
4000
FFC0
ENDCHAR
STARTCHAR logicaland
ENCODING 8743
SWIDTH 1000 0
DWIDTH 14 0
BBX 9 10 3 0
BITMAP
0800
0800
1400
1400
2200
2200
4100
4100
8080
8080
ENDCHAR
STARTCHAR logicalor
ENCODING 8744
SWIDTH 1000 0
DWIDTH 14 0
BBX 9 10 3 0
BITMAP
8080
8080
4100
4100
2200
2200
1400
1400
0800
0800
ENDCHAR
STARTCHAR intersection
ENCODING 8745
SWIDTH 1000 0
DWIDTH 14 0
BBX 10 10 2 0
BITMAP
1E00
2100
4080
4080
8040
8040
8040
8040
8040
8040
ENDCHAR
STARTCHAR union
ENCODING 8746
SWIDTH 1000 0
DWIDTH 14 0
BBX 10 10 2 0
BITMAP
8040
8040
8040
8040
8040
8040
4080
4080
2100
1E00
ENDCHAR
STARTCHAR integral
ENCODING 8747
SWIDTH 1000 0
DWIDTH 14 0
BBX 4 14 6 -2
BITMAP
30
70
80
80
C0
C0
60
60
30
30
10
10
E0
C0
ENDCHAR
STARTCHAR uni222C
ENCODING 8748
SWIDTH 1000 0
DWIDTH 14 0
BBX 8 14 3 -2
BITMAP
33
77
88
88
CC
CC
66
66
33
33
11
11
EE
CC
ENDCHAR
STARTCHAR therefore
ENCODING 8756
SWIDTH 1000 0
DWIDTH 14 0
BBX 11 10 2 0
BITMAP
0400
0E00
0400
0000
0000
0000
0000
4040
E0E0
4040
ENDCHAR
STARTCHAR uni2235
ENCODING 8757
SWIDTH 1000 0
DWIDTH 14 0
BBX 11 10 2 0
BITMAP
4040
E0E0
4040
0000
0000
0000
0000
0400
0E00
0400
ENDCHAR
STARTCHAR uni223D
ENCODING 8765
SWIDTH 1000 0
DWIDTH 14 0
BBX 11 6 2 2
BITMAP
3180
4240
8420
8420
4840
3180
ENDCHAR
STARTCHAR uni2252
ENCODING 8786
SWIDTH 1000 0
DWIDTH 14 0
BBX 10 10 2 0
BITMAP
2000
7000
2000
FFC0
0000
0000
FFC0
0100
0380
0100
ENDCHAR
STARTCHAR notequal
ENCODING 8800
SWIDTH 1000 0
DWIDTH 14 0
BBX 11 11 2 0
BITMAP
0200
0200
0200
FFE0
0400
0400
0400
FFE0
0800
0800
0800
ENDCHAR
STARTCHAR equivalence
ENCODING 8801
SWIDTH 1000 0
DWIDTH 14 0
BBX 10 7 2 2
BITMAP
FFC0
0000
0000
FFC0
0000
0000
FFC0
ENDCHAR
STARTCHAR uni2266
ENCODING 8806
SWIDTH 1000 0
DWIDTH 14 0
BBX 11 13 2 -1
BITMAP
00C0
0300
0C00
3000
C000
3000
0C00
0300
00C0
0000
FFE0
0000
FFE0
ENDCHAR
STARTCHAR uni2267
ENCODING 8807
SWIDTH 1000 0
DWIDTH 14 0
BBX 11 13 2 -1
BITMAP
C000
3000
0C00
0300
00C0
0300
0C00
3000
C000
0000
FFE0
0000
FFE0
ENDCHAR
STARTCHAR uni226A
ENCODING 8810
SWIDTH 1000 0
DWIDTH 14 0
BBX 10 11 2 0
BITMAP
0440
0880
1100
2200
4400
8800
4400
2200
1100
0880
0440
ENDCHAR
STARTCHAR uni226B
ENCODING 8811
SWIDTH 1000 0
DWIDTH 14 0
BBX 10 11 2 0
BITMAP
8800
4400
2200
1100
0880
0440
0880
1100
2200
4400
8800
ENDCHAR
STARTCHAR propersubset
ENCODING 8834
SWIDTH 1000 0
DWIDTH 14 0
BBX 10 10 2 0
BITMAP
0FC0
3000
4000
8000
8000
8000
8000
4000
3000
0FC0
ENDCHAR
STARTCHAR propersuperset
ENCODING 8835
SWIDTH 1000 0
DWIDTH 14 0
BBX 10 10 2 0
BITMAP
FC00
0300
0080
0040
0040
0040
0040
0080
0300
FC00
ENDCHAR
STARTCHAR reflexsubset
ENCODING 8838
SWIDTH 1000 0
DWIDTH 14 0
BBX 10 10 2 0
BITMAP
3FC0
4000
8000
8000
8000
4000
3FC0
0000
0000
FFC0
ENDCHAR
STARTCHAR reflexsuperset
ENCODING 8839
SWIDTH 1000 0
DWIDTH 14 0
BBX 10 10 2 0
BITMAP
FF00
0080
0040
0040
0040
0080
FF00
0000
0000
FFC0
ENDCHAR
STARTCHAR perpendicular
ENCODING 8869
SWIDTH 1000 0
DWIDTH 14 0
BBX 11 10 2 0
BITMAP
0400
0400
0400
0400
0400
0400
0400
0400
0400
FFE0
ENDCHAR
STARTCHAR uni2312
ENCODING 8978
SWIDTH 1000 0
DWIDTH 14 0
BBX 13 3 1 8
BITMAP
1FC0
6030
8008
ENDCHAR
STARTCHAR SF100000
ENCODING 9472
SWIDTH 1000 0
DWIDTH 14 0
BBX 14 1 0 4
BITMAP
FFFC
ENDCHAR
STARTCHAR uni2501
ENCODING 9473
SWIDTH 1000 0
DWIDTH 14 0
BBX 14 2 0 4
BITMAP
FFFC
FFFC
ENDCHAR
STARTCHAR SF110000
ENCODING 9474
SWIDTH 1000 0
DWIDTH 14 0
BBX 1 14 7 -2
BITMAP
80
80
80
80
80
80
80
80
80
80
80
80
80
80
ENDCHAR
STARTCHAR uni2503
ENCODING 9475
SWIDTH 1000 0
DWIDTH 14 0
BBX 2 14 6 -2
BITMAP
C0
C0
C0
C0
C0
C0
C0
C0
C0
C0
C0
C0
C0
C0
ENDCHAR
STARTCHAR SF010000
ENCODING 9484
SWIDTH 1000 0
DWIDTH 14 0
BBX 7 7 7 -2
BITMAP
FE
80
80
80
80
80
80
ENDCHAR
STARTCHAR uni250F
ENCODING 9487
SWIDTH 1000 0
DWIDTH 14 0
BBX 8 8 6 -2
BITMAP
FF
FF
C0
C0
C0
C0
C0
C0
ENDCHAR
STARTCHAR SF030000
ENCODING 9488
SWIDTH 1000 0
DWIDTH 14 0
BBX 8 7 0 -2
BITMAP
FF
01
01
01
01
01
01
ENDCHAR
STARTCHAR uni2513
ENCODING 9491
SWIDTH 1000 0
DWIDTH 14 0
BBX 8 8 0 -2
BITMAP
FF
FF
03
03
03
03
03
03
ENDCHAR
STARTCHAR SF020000
ENCODING 9492
SWIDTH 1000 0
DWIDTH 14 0
BBX 7 8 7 4
BITMAP
80
80
80
80
80
80
80
FE
ENDCHAR
STARTCHAR uni2517
ENCODING 9495
SWIDTH 1000 0
DWIDTH 14 0
BBX 8 8 6 4
BITMAP
C0
C0
C0
C0
C0
C0
FF
FF
ENDCHAR
STARTCHAR SF040000
ENCODING 9496
SWIDTH 1000 0
DWIDTH 14 0
BBX 8 8 0 4
BITMAP
01
01
01
01
01
01
01
FF
ENDCHAR
STARTCHAR uni251B
ENCODING 9499
SWIDTH 1000 0
DWIDTH 14 0
BBX 8 8 0 4
BITMAP
03
03
03
03
03
03
FF
FF
ENDCHAR
STARTCHAR SF080000
ENCODING 9500
SWIDTH 1000 0
DWIDTH 14 0
BBX 7 14 7 -2
BITMAP
80
80
80
80
80
80
80
FE
80
80
80
80
80
80
ENDCHAR
STARTCHAR uni251D
ENCODING 9501
SWIDTH 1000 0
DWIDTH 14 0
BBX 7 14 7 -2
BITMAP
80
80
80
80
80
80
FE
FE
80
80
80
80
80
80
ENDCHAR
STARTCHAR uni2520
ENCODING 9504
SWIDTH 1000 0
DWIDTH 14 0
BBX 8 14 6 -2
BITMAP
C0
C0
C0
C0
C0
C0
C0
FF
C0
C0
C0
C0
C0
C0
ENDCHAR
STARTCHAR uni2523
ENCODING 9507
SWIDTH 1000 0
DWIDTH 14 0
BBX 8 14 6 -2
BITMAP
C0
C0
C0
C0
C0
C0
FF
FF
C0
C0
C0
C0
C0
C0
ENDCHAR
STARTCHAR SF090000
ENCODING 9508
SWIDTH 1000 0
DWIDTH 14 0
BBX 8 14 0 -2
BITMAP
01
01
01
01
01
01
01
FF
01
01
01
01
01
01
ENDCHAR
STARTCHAR uni2525
ENCODING 9509
SWIDTH 1000 0
DWIDTH 14 0
BBX 8 14 0 -2
BITMAP
01
01
01
01
01
01
FF
FF
01
01
01
01
01
01
ENDCHAR
STARTCHAR uni2528
ENCODING 9512
SWIDTH 1000 0
DWIDTH 14 0
BBX 8 14 0 -2
BITMAP
03
03
03
03
03
03
03
FF
03
03
03
03
03
03
ENDCHAR
STARTCHAR uni252B
ENCODING 9515
SWIDTH 1000 0
DWIDTH 14 0
BBX 8 14 0 -2
BITMAP
03
03
03
03
03
03
FF
FF
03
03
03
03
03
03
ENDCHAR
STARTCHAR SF060000
ENCODING 9516
SWIDTH 1000 0
DWIDTH 14 0
BBX 14 7 0 -2
BITMAP
FFFC
0100
0100
0100
0100
0100
0100
ENDCHAR
STARTCHAR uni252F
ENCODING 9519
SWIDTH 1000 0
DWIDTH 14 0
BBX 14 8 0 -2
BITMAP
FFFC
FFFC
0100
0100
0100
0100
0100
0100
ENDCHAR
STARTCHAR uni2530
ENCODING 9520
SWIDTH 1000 0
DWIDTH 14 0
BBX 14 7 0 -2
BITMAP
FFFC
0300
0300
0300
0300
0300
0300
ENDCHAR
STARTCHAR uni2533
ENCODING 9523
SWIDTH 1000 0
DWIDTH 14 0
BBX 14 8 0 -2
BITMAP
FFFC
FFFC
0300
0300
0300
0300
0300
0300
ENDCHAR
STARTCHAR SF070000
ENCODING 9524
SWIDTH 1000 0
DWIDTH 14 0
BBX 14 8 0 4
BITMAP
0100
0100
0100
0100
0100
0100
0100
FFFC
ENDCHAR
STARTCHAR uni2537
ENCODING 9527
SWIDTH 1000 0
DWIDTH 14 0
BBX 14 8 0 4
BITMAP
0100
0100
0100
0100
0100
0100
FFFC
FFFC
ENDCHAR
STARTCHAR uni2538
ENCODING 9528
SWIDTH 1000 0
DWIDTH 14 0
BBX 14 8 0 4
BITMAP
0300
0300
0300
0300
0300
0300
0300
FFFC
ENDCHAR
STARTCHAR uni253B
ENCODING 9531
SWIDTH 1000 0
DWIDTH 14 0
BBX 14 8 0 4
BITMAP
0300
0300
0300
0300
0300
0300
FFFC
FFFC
ENDCHAR
STARTCHAR SF050000
ENCODING 9532
SWIDTH 1000 0
DWIDTH 14 0
BBX 14 14 0 -2
BITMAP
0100
0100
0100
0100
0100
0100
0100
FFFC
0100
0100
0100
0100
0100
0100
ENDCHAR
STARTCHAR uni253F
ENCODING 9535
SWIDTH 1000 0
DWIDTH 14 0
BBX 14 14 0 -2
BITMAP
0100
0100
0100
0100
0100
0100
FFFC
FFFC
0100
0100
0100
0100
0100
0100
ENDCHAR
STARTCHAR uni2542
ENCODING 9538
SWIDTH 1000 0
DWIDTH 14 0
BBX 14 14 0 -2
BITMAP
0300
0300
0300
0300
0300
0300
0300
FFFC
0300
0300
0300
0300
0300
0300
ENDCHAR
STARTCHAR uni254B
ENCODING 9547
SWIDTH 1000 0
DWIDTH 14 0
BBX 14 14 0 -2
BITMAP
0300
0300
0300
0300
0300
0300
FFFC
FFFC
0300
0300
0300
0300
0300
0300
ENDCHAR
STARTCHAR filledbox
ENCODING 9632
SWIDTH 1000 0
DWIDTH 14 0
BBX 12 12 1 -1
BITMAP
FFF0
FFF0
FFF0
FFF0
FFF0
FFF0
FFF0
FFF0
FFF0
FFF0
FFF0
FFF0
ENDCHAR
STARTCHAR H22073
ENCODING 9633
SWIDTH 1000 0
DWIDTH 14 0
BBX 12 12 1 -1
BITMAP
FFF0
8010
8010
8010
8010
8010
8010
8010
8010
8010
8010
FFF0
ENDCHAR
STARTCHAR triagup
ENCODING 9650
SWIDTH 1000 0
DWIDTH 14 0
BBX 11 11 2 0
BITMAP
0400
0400
0E00
0E00
1F00
1F00
3F80
3F80
7FC0
7FC0
FFE0
ENDCHAR
STARTCHAR uni25B3
ENCODING 9651
SWIDTH 1000 0
DWIDTH 14 0
BBX 11 11 2 0
BITMAP
0400
0400
0A00
0A00
1100
1100
2080
2080
4040
4040
FFE0
ENDCHAR
STARTCHAR triagdn
ENCODING 9660
SWIDTH 1000 0
DWIDTH 14 0
BBX 11 11 2 0
BITMAP
FFE0
7FC0
7FC0
3F80
3F80
1F00
1F00
0E00
0E00
0400
0400
ENDCHAR
STARTCHAR uni25BD
ENCODING 9661
SWIDTH 1000 0
DWIDTH 14 0
BBX 11 11 2 0
BITMAP
FFE0
4040
4040
2080
2080
1100
1100
0A00
0A00
0400
0400
ENDCHAR
STARTCHAR uni25C6
ENCODING 9670
SWIDTH 1000 0
DWIDTH 14 0
BBX 13 13 1 -2
BITMAP
0200
0700
0F80
1FC0
3FE0
7FF0
FFF8
7FF0
3FE0
1FC0
0F80
0700
0200
ENDCHAR
STARTCHAR uni25C7
ENCODING 9671
SWIDTH 1000 0
DWIDTH 14 0
BBX 13 13 1 -2
BITMAP
0200
0500
0880
1040
2020
4010
8008
4010
2020
1040
0880
0500
0200
ENDCHAR
STARTCHAR circle
ENCODING 9675
SWIDTH 1000 0
DWIDTH 14 0
BBX 11 11 2 -1
BITMAP
0E00
3180
4040
4040
8020
8020
8020
4040
4040
3180
0E00
ENDCHAR
STARTCHAR uni25CE
ENCODING 9678
SWIDTH 1000 0
DWIDTH 14 0
BBX 11 11 2 -1
BITMAP
0E00
3180
4E40
5140
A0A0
A0A0
A0A0
5140
4E40
3180
0E00
ENDCHAR
STARTCHAR H18533
ENCODING 9679
SWIDTH 1000 0
DWIDTH 14 0
BBX 11 11 2 -1
BITMAP
0E00
3F80
7FC0
7FC0
FFE0
FFE0
FFE0
7FC0
7FC0
3F80
0E00
ENDCHAR
STARTCHAR uni25EF
ENCODING 9711
SWIDTH 1000 0
DWIDTH 14 0
BBX 13 13 1 -2
BITMAP
0F80
3060
4010
4010
8008
8008
8008
8008
8008
4010
4010
3060
0F80
ENDCHAR
STARTCHAR uni2605
ENCODING 9733
SWIDTH 1000 0
DWIDTH 14 0
BBX 13 12 1 -1
BITMAP
0200
0200
0700
0700
FFF8
7FF0
1FC0
0F80
1FC0
1DC0
38E0
2020
ENDCHAR
STARTCHAR uni2606
ENCODING 9734
SWIDTH 1000 0
DWIDTH 14 0
BBX 13 12 1 -1
BITMAP
0200
0200
0500
0500
F8F8
6030
18C0
0880
1240
1540
38E0
2020
ENDCHAR
STARTCHAR female
ENCODING 9792
SWIDTH 1000 0
DWIDTH 14 0
BBX 9 13 3 -2
BITMAP
1C00
2200
4100
4100
4100
2200
1C00
0800
0800
FF80
0800
0800
0800
ENDCHAR
STARTCHAR male
ENCODING 9794
SWIDTH 1000 0
DWIDTH 14 0
BBX 12 12 1 -1
BITMAP
07F0
0030
0050
0090
0110
3A10
4410
8200
8200
8200
4400
3800
ENDCHAR
STARTCHAR musicalnote
ENCODING 9834
SWIDTH 1000 0
DWIDTH 14 0
BBX 8 13 4 -1
BITMAP
10
18
1C
16
12
13
11
11
11
72
F0
F0
60
ENDCHAR
STARTCHAR uni266D
ENCODING 9837
SWIDTH 1000 0
DWIDTH 14 0
BBX 6 12 5 -1
BITMAP
80
80
80
80
80
B8
CC
8C
88
90
A0
C0
ENDCHAR
STARTCHAR uni266F
ENCODING 9839
SWIDTH 1000 0
DWIDTH 14 0
BBX 8 13 3 -1
BITMAP
04
24
27
3F
FC
E4
24
27
3F
FC
E4
24
20
ENDCHAR
STARTCHAR uni3001
ENCODING 12289
SWIDTH 1000 0
DWIDTH 14 0
BBX 4 4 1 -2
BITMAP
80
60
30
10
ENDCHAR
STARTCHAR uni3002
ENCODING 12290
SWIDTH 1000 0
DWIDTH 14 0
BBX 4 4 1 -2
BITMAP
60
90
90
60
ENDCHAR
STARTCHAR uni3003
ENCODING 12291
SWIDTH 1000 0
DWIDTH 14 0
BBX 7 6 3 2
BITMAP
22
22
22
44
44
88
ENDCHAR
STARTCHAR uni3005
ENCODING 12293
SWIDTH 1000 0
DWIDTH 14 0
BBX 9 10 3 -2
BITMAP
1000
1000
1F80
2100
2100
4200
9400
0C00
0200
0100
ENDCHAR
STARTCHAR uni3006
ENCODING 12294
SWIDTH 1000 0
DWIDTH 14 0
BBX 10 11 2 -1
BITMAP
0040
0040
0080
1900
2600
2400
4A00
5000
6000
4000
8000
ENDCHAR
STARTCHAR uni3007
ENCODING 12295
SWIDTH 1000 0
DWIDTH 14 0
BBX 13 13 1 -2
BITMAP
0F80
3060
4010
4010
8008
8008
8008
8008
8008
4010
4010
3060
0F80
ENDCHAR
STARTCHAR uni3008
ENCODING 12296
SWIDTH 1000 0
DWIDTH 14 0
BBX 7 14 6 -2
BITMAP
02
04
08
10
20
40
80
80
40
20
10
08
04
02
ENDCHAR
STARTCHAR uni3009
ENCODING 12297
SWIDTH 1000 0
DWIDTH 14 0
BBX 7 14 1 -2
BITMAP
80
40
20
10
08
04
02
02
04
08
10
20
40
80
ENDCHAR
STARTCHAR uni300A
ENCODING 12298
SWIDTH 1000 0
DWIDTH 14 0
BBX 7 14 6 -2
BITMAP
12
12
24
24
48
48
90
90
48
48
24
24
12
12
ENDCHAR
STARTCHAR uni300B
ENCODING 12299
SWIDTH 1000 0
DWIDTH 14 0
BBX 7 14 1 -2
BITMAP
90
90
48
48
24
24
12
12
24
24
48
48
90
90
ENDCHAR
STARTCHAR uni300C
ENCODING 12300
SWIDTH 1000 0
DWIDTH 14 0
BBX 6 14 7 -2
BITMAP
FC
80
80
80
80
80
80
80
80
80
80
80
80
80
ENDCHAR
STARTCHAR uni300D
ENCODING 12301
SWIDTH 1000 0
DWIDTH 14 0
BBX 6 14 1 -2
BITMAP
04
04
04
04
04
04
04
04
04
04
04
04
04
FC
ENDCHAR
STARTCHAR uni300E
ENCODING 12302
SWIDTH 1000 0
DWIDTH 14 0
BBX 7 14 6 -2
BITMAP
FE
82
BE
A0
A0
A0
A0
A0
A0
A0
A0
A0
A0
E0
ENDCHAR
STARTCHAR uni300F
ENCODING 12303
SWIDTH 1000 0
DWIDTH 14 0
BBX 7 14 1 -2
BITMAP
0E
0A
0A
0A
0A
0A
0A
0A
0A
0A
0A
FA
82
FE
ENDCHAR
STARTCHAR uni3010
ENCODING 12304
SWIDTH 1000 0
DWIDTH 14 0
BBX 5 14 8 -2
BITMAP
F8
F0
E0
E0
C0
C0
C0
C0
C0
C0
E0
E0
F0
F8
ENDCHAR
STARTCHAR uni3011
ENCODING 12305
SWIDTH 1000 0
DWIDTH 14 0
BBX 5 14 1 -2
BITMAP
F8
78
38
38
18
18
18
18
18
18
38
38
78
F8
ENDCHAR
STARTCHAR uni3012
ENCODING 12306
SWIDTH 1000 0
DWIDTH 14 0
BBX 12 12 1 -1
BITMAP
7FE0
7FE0
0000
0000
FFF0
FFF0
0600
0600
0600
0600
0600
0600
ENDCHAR
STARTCHAR uni3013
ENCODING 12307
SWIDTH 1000 0
DWIDTH 14 0
BBX 10 6 2 2
BITMAP
FFC0
FFC0
0000
0000
FFC0
FFC0
ENDCHAR
STARTCHAR uni3014
ENCODING 12308
SWIDTH 1000 0
DWIDTH 14 0
BBX 4 14 9 -2
BITMAP
10
20
40
80
80
80
80
80
80
80
80
40
20
10
ENDCHAR
STARTCHAR uni3015
ENCODING 12309
SWIDTH 1000 0
DWIDTH 14 0
BBX 4 14 1 -2
BITMAP
80
40
20
10
10
10
10
10
10
10
10
20
40
80
ENDCHAR
STARTCHAR uni301C
ENCODING 12316
SWIDTH 1000 0
DWIDTH 14 0
BBX 12 4 1 3
BITMAP
3800
4410
8220
01C0
ENDCHAR
STARTCHAR uni3041
ENCODING 12353
SWIDTH 1000 0
DWIDTH 14 0
BBX 10 11 2 -2
BITMAP
1000
0800
4E00
3800
1200
1F80
3440
5840
9840
A880
4300
ENDCHAR
STARTCHAR uni3042
ENCODING 12354
SWIDTH 1000 0
DWIDTH 14 0
BBX 11 13 2 -1
BITMAP
1000
0800
0B00
7C00
1200
1200
1F80
3440
5420
8820
9820
A840
4180
ENDCHAR
STARTCHAR uni3043
ENCODING 12355
SWIDTH 1000 0
DWIDTH 14 0
BBX 9 7 3 -1
BITMAP
8200
8100
8080
8180
5000
6000
2000
ENDCHAR
STARTCHAR uni3044
ENCODING 12356
SWIDTH 1000 0
DWIDTH 14 0
BBX 12 9 1 0
BITMAP
8000
40C0
4020
4010
4410
4830
2810
3000
1000
ENDCHAR
STARTCHAR uni3045
ENCODING 12357
SWIDTH 1000 0
DWIDTH 14 0
BBX 7 10 3 -2
BITMAP
10
0C
00
9C
62
02
02
02
04
18
ENDCHAR
STARTCHAR uni3046
ENCODING 12358
SWIDTH 1000 0
DWIDTH 14 0
BBX 8 14 3 -2
BITMAP
10
0E
00
00
1E
E1
01
01
01
01
02
02
04
08
ENDCHAR
STARTCHAR uni3047
ENCODING 12359
SWIDTH 1000 0
DWIDTH 14 0
BBX 9 10 3 -2
BITMAP
1000
0C00
0000
0E00
7400
0800
1000
3800
4800
8780
ENDCHAR
STARTCHAR uni3048
ENCODING 12360
SWIDTH 1000 0
DWIDTH 14 0
BBX 11 13 2 -1
BITMAP
1000
0E00
0000
0000
4700
3A00
0400
0800
1000
3800
4400
8400
83E0
ENDCHAR
STARTCHAR uni3049
ENCODING 12361
SWIDTH 1000 0
DWIDTH 14 0
BBX 10 10 2 -2
BITMAP
4100
20C0
3080
E000
2F00
3080
6080
A080
6300
2000
ENDCHAR
STARTCHAR uni304A
ENCODING 12362
SWIDTH 1000 0
DWIDTH 14 0
BBX 12 12 2 -1
BITMAP
2000
10C0
1420
1830
7000
1180
1640
1820
3020
D220
31C0
1000
ENDCHAR
STARTCHAR uni304B
ENCODING 12363
SWIDTH 1000 0
DWIDTH 14 0
BBX 12 12 1 -1
BITMAP
1000
0800
08C0
8E20
7910
1130
1100
1100
2100
2200
4A00
4400
ENDCHAR
STARTCHAR uni304C
ENCODING 12364
SWIDTH 1000 0
DWIDTH 14 0
BBX 13 13 1 -1
BITMAP
0010
1048
0820
0880
8E40
7920
1110
1130
1100
2100
2200
4A00
4400
ENDCHAR
STARTCHAR uni304D
ENCODING 12365
SWIDTH 1000 0
DWIDTH 14 0
BBX 9 14 3 -2
BITMAP
1000
0800
0B00
7C00
0400
0780
FA00
0100
0100
3F80
4080
4000
3000
0E00
ENDCHAR
STARTCHAR uni304E
ENCODING 12366
SWIDTH 1000 0
DWIDTH 14 0
BBX 12 14 2 -2
BITMAP
1020
0890
0B40
7C00
0400
0780
FA00
0100
0100
3F80
4080
4000
3000
0E00
ENDCHAR
STARTCHAR uni304F
ENCODING 12367
SWIDTH 1000 0
DWIDTH 14 0
BBX 6 14 4 -2
BITMAP
08
04
04
08
10
60
80
80
40
20
10
08
04
04
ENDCHAR
STARTCHAR uni3050
ENCODING 12368
SWIDTH 1000 0
DWIDTH 14 0
BBX 10 14 4 -2
BITMAP
0800
0400
0400
0880
1240
6100
8000
8000
4000
2000
1000
0800
0400
0400
ENDCHAR
STARTCHAR uni3051
ENCODING 12369
SWIDTH 1000 0
DWIDTH 14 0
BBX 12 14 2 -2
BITMAP
0200
8100
4080
4080
40F0
8F80
8080
8080
8080
8080
6080
4100
4100
0200
ENDCHAR
STARTCHAR uni3052
ENCODING 12370
SWIDTH 1000 0
DWIDTH 14 0
BBX 13 14 1 -2
BITMAP
0210
8148
40A0
4080
40F0
8F80
8080
8080
8080
8080
6080
4100
4100
0200
ENDCHAR
STARTCHAR uni3053
ENCODING 12371
SWIDTH 1000 0
DWIDTH 14 0
BBX 10 12 2 -1
BITMAP
2000
1F80
0200
0400
0000
0000
0000
0000
8000
8000
4040
3F80
ENDCHAR
STARTCHAR uni3054
ENCODING 12372
SWIDTH 1000 0
DWIDTH 14 0
BBX 12 13 2 -1
BITMAP
0020
2010
1FC0
0220
0400
0000
0000
0000
0000
8000
8000
4040
3F80
ENDCHAR
STARTCHAR uni3055
ENCODING 12373
SWIDTH 1000 0
DWIDTH 14 0
BBX 10 13 2 -1
BITMAP
1000
0800
04C0
8700
7A00
0100
0100
1F80
2080
4000
4000
3000
0F00
ENDCHAR
STARTCHAR uni3056
ENCODING 12374
SWIDTH 1000 0
DWIDTH 14 0
BBX 12 13 2 -1
BITMAP
1020
0810
04C0
8720
7A00
0100
0100
1F80
2080
4000
4000
3000
0F00
ENDCHAR
STARTCHAR uni3057
ENCODING 12375
SWIDTH 1000 0
DWIDTH 14 0
BBX 10 12 3 -1
BITMAP
8000
4000
4000
4000
4000
4000
4000
4000
4040
4080
2300
1C00
ENDCHAR
STARTCHAR uni3058
ENCODING 12376
SWIDTH 1000 0
DWIDTH 14 0
BBX 10 12 3 -1
BITMAP
8100
4480
4200
4000
4000
4000
4000
4000
4040
4080
2300
1C00
ENDCHAR
STARTCHAR uni3059
ENCODING 12377
SWIDTH 1000 0
DWIDTH 14 0
BBX 12 14 1 -2
BITMAP
0200
0100
81F0
7F00
0100
0700
0980
0880
0780
0080
0100
0100
0200
0400
ENDCHAR
STARTCHAR uni305A
ENCODING 12378
SWIDTH 1000 0
DWIDTH 14 0
BBX 13 14 1 -2
BITMAP
0250
0128
81F0
7F00
0100
0700
0980
0880
0780
0080
0100
0100
0200
0400
ENDCHAR
STARTCHAR uni305B
ENCODING 12379
SWIDTH 1000 0
DWIDTH 14 0
BBX 12 12 1 -1
BITMAP
0100
2080
1080
10F0
9780
7880
1080
1080
1180
1080
0800
07C0
ENDCHAR
STARTCHAR uni305C
ENCODING 12380
SWIDTH 1000 0
DWIDTH 14 0
BBX 13 13 1 -1
BITMAP
0010
0108
20A0
1090
10F0
9780
7880
1080
1080
1180
1080
0800
07C0
ENDCHAR
STARTCHAR uni305D
ENCODING 12381
SWIDTH 1000 0
DWIDTH 14 0
BBX 11 13 2 -2
BITMAP
2700
1900
0200
0400
08E0
1F00
E200
0400
0800
0800
0800
0400
0380
ENDCHAR
STARTCHAR uni305E
ENCODING 12382
SWIDTH 1000 0
DWIDTH 14 0
BBX 12 13 2 -2
BITMAP
2720
1990
0240
0400
08E0
1F00
E200
0400
0800
0800
0800
0400
0380
ENDCHAR
STARTCHAR uni305F
ENCODING 12383
SWIDTH 1000 0
DWIDTH 14 0
BBX 11 12 2 -1
BITMAP
2000
1200
1C00
F000
23C0
2060
2080
4000
4000
4400
8400
83E0
ENDCHAR
STARTCHAR uni3060
ENCODING 12384
SWIDTH 1000 0
DWIDTH 14 0
BBX 12 13 2 -1
BITMAP
0020
2090
1240
1C00
F000
23C0
2060
2080
4000
4000
4400
8400
83E0
ENDCHAR
STARTCHAR uni3061
ENCODING 12385
SWIDTH 1000 0
DWIDTH 14 0
BBX 11 14 1 -2
BITMAP
1000
0800
0980
8E00
7800
1000
1180
1640
3820
2020
0020
0040
0180
0E00
ENDCHAR
STARTCHAR uni3062
ENCODING 12386
SWIDTH 1000 0
DWIDTH 14 0
BBX 13 14 1 -2
BITMAP
1000
0810
0988
8E20
7810
1000
1180
1640
3820
2020
0020
0040
0180
0E00
ENDCHAR
STARTCHAR uni3063
ENCODING 12387
SWIDTH 1000 0
DWIDTH 14 0
BBX 10 8 2 -2
BITMAP
0700
1880
E040
0040
0040
0080
0300
1C00
ENDCHAR
STARTCHAR uni3064
ENCODING 12388
SWIDTH 1000 0
DWIDTH 14 0
BBX 12 9 1 0
BITMAP
07C0
9820
6010
0010
0010
0010
0020
00C0
0700
ENDCHAR
STARTCHAR uni3065
ENCODING 12389
SWIDTH 1000 0
DWIDTH 14 0
BBX 13 12 1 0
BITMAP
0010
0048
0020
07C0
9820
6010
0010
0010
0010
0020
00C0
0700
ENDCHAR
STARTCHAR uni3066
ENCODING 12390
SWIDTH 1000 0
DWIDTH 14 0
BBX 12 12 1 -1
BITMAP
0070
8780
7900
0200
0200
0400
0400
0400
0400
0400
0200
01C0
ENDCHAR
STARTCHAR uni3067
ENCODING 12391
SWIDTH 1000 0
DWIDTH 14 0
BBX 13 12 1 -1
BITMAP
0070
8780
7910
0248
0220
0400
0400
0400
0400
0400
0200
01C0
ENDCHAR
STARTCHAR uni3068
ENCODING 12392
SWIDTH 1000 0
DWIDTH 14 0
BBX 9 12 3 -1
BITMAP
2000
1000
1000
1000
1380
1C00
3000
4000
8000
8000
4000
3F80
ENDCHAR
STARTCHAR uni3069
ENCODING 12393
SWIDTH 1000 0
DWIDTH 14 0
BBX 11 12 3 -1
BITMAP
2040
1120
1080
1000
1380
1C00
3000
4000
8000
8000
4000
3F80
ENDCHAR
STARTCHAR uni306A
ENCODING 12394
SWIDTH 1000 0
DWIDTH 14 0
BBX 11 14 2 -2
BITMAP
1000
0800
0A00
FC00
11C0
2060
2080
4100
4100
8100
0F00
1180
1140
0E00
ENDCHAR
STARTCHAR uni306B
ENCODING 12395
SWIDTH 1000 0
DWIDTH 14 0
BBX 11 13 2 -2
BITMAP
8000
4000
43C0
4C60
8080
8000
8000
8000
8800
A800
47E0
4000
4000
ENDCHAR
STARTCHAR uni306C
ENCODING 12396
SWIDTH 1000 0
DWIDTH 14 0
BBX 12 12 1 -1
BITMAP
0200
0100
0100
27C0
2A20
3210
2410
5410
9810
98D0
A920
40D0
ENDCHAR
STARTCHAR uni306D
ENCODING 12397
SWIDTH 1000 0
DWIDTH 14 0
BBX 12 13 1 -1
BITMAP
2000
1000
1000
1000
99C0
7E20
1820
1020
3020
3020
51E0
B230
11C0
ENDCHAR
STARTCHAR uni306E
ENCODING 12398
SWIDTH 1000 0
DWIDTH 14 0
BBX 11 11 2 -1
BITMAP
0F00
3480
4440
4420
8820
8820
9020
9040
A040
4180
0600
ENDCHAR
STARTCHAR uni306F
ENCODING 12399
SWIDTH 1000 0
DWIDTH 14 0
BBX 11 13 2 -1
BITMAP
0100
8080
4080
50E0
4F80
8080
8080
8080
8080
A780
48C0
48A0
4700
ENDCHAR
STARTCHAR uni3070
ENCODING 12400
SWIDTH 1000 0
DWIDTH 14 0
BBX 13 13 1 -1
BITMAP
0110
8088
40A0
50F0
4F80
8080
8080
8080
8080
A780
48C0
48A0
4700
ENDCHAR
STARTCHAR uni3071
ENCODING 12401
SWIDTH 1000 0
DWIDTH 14 0
BBX 13 13 1 -1
BITMAP
0130
80C8
40C8
50F0
4F80
8080
8080
8080
8080
A780
48C0
48A0
4700
ENDCHAR
STARTCHAR uni3072
ENCODING 12402
SWIDTH 1000 0
DWIDTH 14 0
BBX 11 12 2 -1
BITMAP
0100
1100
F080
2080
20C0
40A0
4080
4080
4100
4100
2200
1C00
ENDCHAR
STARTCHAR uni3073
ENCODING 12403
SWIDTH 1000 0
DWIDTH 14 0
BBX 12 13 2 -1
BITMAP
0020
0110
1140
F0A0
2080
20C0
40A0
4080
4080
4100
4100
2200
1C00
ENDCHAR
STARTCHAR uni3074
ENCODING 12404
SWIDTH 1000 0
DWIDTH 14 0
BBX 11 13 2 -1
BITMAP
00C0
0120
1120
F0C0
2080
20C0
40A0
4080
4080
4100
4100
2200
1C00
ENDCHAR
STARTCHAR uni3075
ENCODING 12405
SWIDTH 1000 0
DWIDTH 14 0
BBX 13 12 1 -1
BITMAP
0800
0700
0100
0200
0400
0400
0200
0560
9910
7138
4900
0600
ENDCHAR
STARTCHAR uni3076
ENCODING 12406
SWIDTH 1000 0
DWIDTH 14 0
BBX 13 12 1 -1
BITMAP
0800
0710
0148
0220
0400
0400
0200
0560
9910
7138
4900
0600
ENDCHAR
STARTCHAR uni3077
ENCODING 12407
SWIDTH 1000 0
DWIDTH 14 0
BBX 13 12 1 -1
BITMAP
0800
0730
0148
0248
0430
0400
0200
0560
9910
7138
4900
0600
ENDCHAR
STARTCHAR uni3078
ENCODING 12408
SWIDTH 1000 0
DWIDTH 14 0
BBX 13 6 1 2
BITMAP
0C00
1200
A100
4080
0060
0018
ENDCHAR
STARTCHAR uni3079
ENCODING 12409
SWIDTH 1000 0
DWIDTH 14 0
BBX 13 8 1 2
BITMAP
0020
0090
0C40
1200
A100
4080
0060
0018
ENDCHAR
STARTCHAR uni307A
ENCODING 12410
SWIDTH 1000 0
DWIDTH 14 0
BBX 13 9 1 2
BITMAP
0060
0090
0090
0C60
1200
A100
4080
0060
0018
ENDCHAR
STARTCHAR uni307B
ENCODING 12411
SWIDTH 1000 0
DWIDTH 14 0
BBX 11 12 2 -1
BITMAP
88C0
4700
4100
40E0
8F80
8080
8080
8080
A780
48C0
48A0
4700
ENDCHAR
STARTCHAR uni307C
ENCODING 12412
SWIDTH 1000 0
DWIDTH 14 0
BBX 13 12 1 -1
BITMAP
88D0
4708
4120
40F0
8F80
8080
8080
8080
A780
48C0
48A0
4700
ENDCHAR
STARTCHAR uni307D
ENCODING 12413
SWIDTH 1000 0
DWIDTH 14 0
BBX 13 13 1 -1
BITMAP
0030
88C8
4748
4130
40E0
8F80
8080
8080
8080
A780
48C0
48A0
4700
ENDCHAR
STARTCHAR uni307E
ENCODING 12414
SWIDTH 1000 0
DWIDTH 14 0
BBX 9 13 3 -1
BITMAP
0800
0400
8780
7C00
0400
8700
7C00
0400
0400
7C00
8700
8480
7800
ENDCHAR
STARTCHAR uni307F
ENCODING 12415
SWIDTH 1000 0
DWIDTH 14 0
BBX 13 12 1 -1
BITMAP
1100
0F00
0200
0200
0440
0420
1FE0
6830
8848
9040
6080
0100
ENDCHAR
STARTCHAR uni3080
ENCODING 12416
SWIDTH 1000 0
DWIDTH 14 0
BBX 12 13 2 -1
BITMAP
2000
1000
9C00
70C0
1020
7030
9000
9000
B080
6040
2040
2040
1F80
ENDCHAR
STARTCHAR uni3081
ENCODING 12417
SWIDTH 1000 0
DWIDTH 14 0
BBX 12 12 1 -1
BITMAP
0200
0100
2100
2780
3940
2220
5210
5410
8C10
8810
9420
60C0
ENDCHAR
STARTCHAR uni3082
ENCODING 12418
SWIDTH 1000 0
DWIDTH 14 0
BBX 10 14 2 -2
BITMAP
0800
0400
4400
3800
0E00
4800
9080
7080
1C40
1040
1040
1040
0880
0700
ENDCHAR
STARTCHAR uni3083
ENCODING 12419
SWIDTH 1000 0
DWIDTH 14 0
BBX 10 10 2 -2
BITMAP
0400
2200
2780
3840
F040
1180
0800
0800
0400
0400
ENDCHAR
STARTCHAR uni3084
ENCODING 12420
SWIDTH 1000 0
DWIDTH 14 0
BBX 12 14 1 -2
BITMAP
0200
0100
0380
3000
21E0
1610
9810
6810
04E0
0400
0200
0200
0100
0100
ENDCHAR
STARTCHAR uni3085
ENCODING 12421
SWIDTH 1000 0
DWIDTH 14 0
BBX 10 10 2 -2
BITMAP
0800
0400
8780
9C40
A440
C440
8C80
8700
0400
0800
ENDCHAR
STARTCHAR uni3086
ENCODING 12422
SWIDTH 1000 0
DWIDTH 14 0
BBX 12 13 1 -2
BITMAP
0600
8100
43C0
4520
4910
5110
6110
6910
4520
43C0
0100
0200
0400
ENDCHAR
STARTCHAR uni3087
ENCODING 12423
SWIDTH 1000 0
DWIDTH 14 0
BBX 8 11 3 -2
BITMAP
10
08
09
0E
08
08
08
78
8E
89
70
ENDCHAR
STARTCHAR uni3088
ENCODING 12424
SWIDTH 1000 0
DWIDTH 14 0
BBX 10 13 2 -1
BITMAP
0800
0400
0400
04C0
0700
0400
0400
0400
0400
7E00
8580
8440
7800
ENDCHAR
STARTCHAR uni3089
ENCODING 12425
SWIDTH 1000 0
DWIDTH 14 0
BBX 8 14 4 -2
BITMAP
20
10
1C
60
80
80
80
9E
E1
81
81
02
0C
30
ENDCHAR
STARTCHAR uni308A
ENCODING 12426
SWIDTH 1000 0
DWIDTH 14 0
BBX 8 14 3 -2
BITMAP
80
4C
52
61
61
41
41
41
41
02
02
04
08
10
ENDCHAR
STARTCHAR uni308B
ENCODING 12427
SWIDTH 1000 0
DWIDTH 14 0
BBX 10 13 2 -2
BITMAP
2300
1D00
0200
0400
0800
1F00
3080
4040
8040
0E40
1180
1100
0E00
ENDCHAR
STARTCHAR uni308C
ENCODING 12428
SWIDTH 1000 0
DWIDTH 14 0
BBX 13 13 1 -2
BITMAP
2000
1000
1380
1440
3840
D840
1040
3040
3040
5040
9048
3030
1000
ENDCHAR
STARTCHAR uni308D
ENCODING 12429
SWIDTH 1000 0
DWIDTH 14 0
BBX 10 13 2 -2
BITMAP
4600
3A00
0400
0800
1000
3F00
2080
4040
8040
0040
0080
0300
1C00
ENDCHAR
STARTCHAR uni308E
ENCODING 12430
SWIDTH 1000 0
DWIDTH 14 0
BBX 9 10 3 -2
BITMAP
4000
2000
2000
3700
E880
3080
6080
6080
A100
2200
ENDCHAR
STARTCHAR uni308F
ENCODING 12431
SWIDTH 1000 0
DWIDTH 14 0
BBX 12 14 1 -2
BITMAP
2000
1000
1000
1000
99C0
7E20
1810
1010
3010
3010
5020
9040
3180
1000
ENDCHAR
STARTCHAR uni3090
ENCODING 12432
SWIDTH 1000 0
DWIDTH 14 0
BBX 11 12 2 -1
BITMAP
2600
1A00
0400
0400
0F80
3840
4820
9020
9020
A320
64C0
4380
ENDCHAR
STARTCHAR uni3091
ENCODING 12433
SWIDTH 1000 0
DWIDTH 14 0
BBX 12 13 1 -2
BITMAP
1300
0E00
0400
0F80
1040
2040
0C40
1380
0E00
1000
39C0
4620
8070
ENDCHAR
STARTCHAR uni3092
ENCODING 12434
SWIDTH 1000 0
DWIDTH 14 0
BBX 11 14 2 -2
BITMAP
1000
0800
4B00
3C00
1000
1080
3CE0
6300
8600
0A00
1200
2000
2000
1F80
ENDCHAR
STARTCHAR uni3093
ENCODING 12435
SWIDTH 1000 0
DWIDTH 14 0
BBX 11 13 2 -1
BITMAP
0800
0400
0400
0800
0800
1000
1000
3C00
2200
4200
4220
8240
8180
ENDCHAR
STARTCHAR uni309B
ENCODING 12443
SWIDTH 1000 0
DWIDTH 14 0
BBX 4 3 1 9
BITMAP
20
90
40
ENDCHAR
STARTCHAR uni309C
ENCODING 12444
SWIDTH 1000 0
DWIDTH 14 0
BBX 4 4 1 8
BITMAP
60
90
90
60
ENDCHAR
STARTCHAR uni309D
ENCODING 12445
SWIDTH 1000 0
DWIDTH 14 0
BBX 6 5 4 3
BITMAP
C0
30
08
0C
10
ENDCHAR
STARTCHAR uni309E
ENCODING 12446
SWIDTH 1000 0
DWIDTH 14 0
BBX 8 7 4 3
BITMAP
02
09
C4
30
08
0C
10
ENDCHAR
STARTCHAR uni30A1
ENCODING 12449
SWIDTH 1000 0
DWIDTH 14 0
BBX 9 8 2 -2
BITMAP
8780
7880
0900
0600
0400
0400
0800
1000
ENDCHAR
STARTCHAR uni30A2
ENCODING 12450
SWIDTH 1000 0
DWIDTH 14 0
BBX 10 12 2 -2
BITMAP
87C0
7840
0080
0900
0600
0400
0400
0400
0800
0800
1000
2000
ENDCHAR
STARTCHAR uni30A3
ENCODING 12451
SWIDTH 1000 0
DWIDTH 14 0
BBX 8 10 3 -2
BITMAP
01
02
04
1C
E4
04
04
04
04
04
ENDCHAR
STARTCHAR uni30A4
ENCODING 12452
SWIDTH 1000 0
DWIDTH 14 0
BBX 9 13 2 -2
BITMAP
0080
0080
0100
0200
0C00
3400
C200
0200
0200
0200
0200
0200
0200
ENDCHAR
STARTCHAR uni30A5
ENCODING 12453
SWIDTH 1000 0
DWIDTH 14 0
BBX 8 10 3 -2
BITMAP
10
08
0F
F1
41
42
02
04
08
10
ENDCHAR
STARTCHAR uni30A6
ENCODING 12454
SWIDTH 1000 0
DWIDTH 14 0
BBX 10 13 2 -2
BITMAP
0800
0400
0400
07C0
F840
4040
4080
2080
2100
0100
0200
0400
0800
ENDCHAR
STARTCHAR uni30A7
ENCODING 12455
SWIDTH 1000 0
DWIDTH 14 0
BBX 9 7 3 -1
BITMAP
0700
7800
0800
0800
0800
0F00
F080
ENDCHAR
STARTCHAR uni30A8
ENCODING 12456
SWIDTH 1000 0
DWIDTH 14 0
BBX 11 9 2 0
BITMAP
01C0
7E00
0800
0400
0400
0400
0400
0FC0
F020
ENDCHAR
STARTCHAR uni30A9
ENCODING 12457
SWIDTH 1000 0
DWIDTH 14 0
BBX 8 10 3 -2
BITMAP
08
04
87
7C
0C
14
24
44
8C
04
ENDCHAR
STARTCHAR uni30AA
ENCODING 12458
SWIDTH 1000 0
DWIDTH 14 0
BBX 11 13 2 -2
BITMAP
0200
0100
0100
81E0
7F00
0300
0500
0900
1100
2100
4100
0300
0100
ENDCHAR
STARTCHAR uni30AB
ENCODING 12459
SWIDTH 1000 0
DWIDTH 14 0
BBX 10 13 2 -2
BITMAP
0800
0400
0400
87C0
7C40
0840
0840
1080
1080
2080
4500
8300
0200
ENDCHAR
STARTCHAR uni30AC
ENCODING 12460
SWIDTH 1000 0
DWIDTH 14 0
BBX 12 14 2 -2
BITMAP
0020
0890
0450
0440
87C0
7C40
0840
0840
1080
1080
2080
4500
8300
0200
ENDCHAR
STARTCHAR uni30AD
ENCODING 12461
SWIDTH 1000 0
DWIDTH 14 0
BBX 11 13 2 -2
BITMAP
1000
0800
09C0
0E00
7400
0400
05E0
0E00
F200
0200
0100
0100
0100
ENDCHAR
STARTCHAR uni30AE
ENCODING 12462
SWIDTH 1000 0
DWIDTH 14 0
BBX 12 14 2 -2
BITMAP
0020
1090
0850
09C0
0E00
7400
0400
05E0
0E00
F200
0200
0100
0100
0100
ENDCHAR
STARTCHAR uni30AF
ENCODING 12463
SWIDTH 1000 0
DWIDTH 14 0
BBX 9 13 3 -2
BITMAP
2000
1380
1C80
1100
2100
2200
4200
8400
0400
0800
1000
2000
4000
ENDCHAR
STARTCHAR uni30B0
ENCODING 12464
SWIDTH 1000 0
DWIDTH 14 0
BBX 12 14 2 -2
BITMAP
0020
2090
1350
1D40
1100
2100
2200
4200
8400
0400
0800
1000
2000
4000
ENDCHAR
STARTCHAR uni30B1
ENCODING 12465
SWIDTH 1000 0
DWIDTH 14 0
BBX 11 13 2 -2
BITMAP
2000
1000
1000
10E0
3F00
2400
4200
8200
0200
0400
0400
0800
1000
ENDCHAR
STARTCHAR uni30B2
ENCODING 12466
SWIDTH 1000 0
DWIDTH 14 0
BBX 12 14 2 -2
BITMAP
0020
2090
1050
1040
10E0
3F00
2400
4200
8200
0200
0400
0400
0800
1000
ENDCHAR
STARTCHAR uni30B3
ENCODING 12467
SWIDTH 1000 0
DWIDTH 14 0
BBX 10 9 2 0
BITMAP
87C0
7840
0040
0040
0040
0080
0080
0F80
7080
ENDCHAR
STARTCHAR uni30B4
ENCODING 12468
SWIDTH 1000 0
DWIDTH 14 0
BBX 13 12 1 0
BITMAP
0010
0048
0028
87A0
7880
0080
0080
0080
0100
0100
0F00
7100
ENDCHAR
STARTCHAR uni30B5
ENCODING 12469
SWIDTH 1000 0
DWIDTH 14 0
BBX 11 13 2 -2
BITMAP
0200
2100
1100
1100
93E0
7D00
1100
1100
1100
0200
0200
0400
0800
ENDCHAR
STARTCHAR uni30B6
ENCODING 12470
SWIDTH 1000 0
DWIDTH 14 0
BBX 12 14 2 -2
BITMAP
0020
0290
2150
1140
1100
93E0
7D00
1100
1100
1100
0200
0200
0400
0800
ENDCHAR
STARTCHAR uni30B7
ENCODING 12471
SWIDTH 1000 0
DWIDTH 14 0
BBX 10 11 3 -1
BITMAP
6000
1000
0000
C000
2040
0080
0100
0200
0400
9800
6000
ENDCHAR
STARTCHAR uni30B8
ENCODING 12472
SWIDTH 1000 0
DWIDTH 14 0
BBX 11 12 3 -1
BITMAP
0040
6120
10A0
0080
C000
2040
0080
0100
0200
0400
9800
6000
ENDCHAR
STARTCHAR uni30B9
ENCODING 12473
SWIDTH 1000 0
DWIDTH 14 0
BBX 10 10 2 0
BITMAP
4380
3C80
0100
0100
0200
0200
0500
0880
3040
C040
ENDCHAR
STARTCHAR uni30BA
ENCODING 12474
SWIDTH 1000 0
DWIDTH 14 0
BBX 13 12 1 0
BITMAP
0010
0048
43A8
3CA0
0100
0100
0200
0200
0500
0880
3040
C040
ENDCHAR
STARTCHAR uni30BB
ENCODING 12475
SWIDTH 1000 0
DWIDTH 14 0
BBX 11 12 2 -1
BITMAP
2000
1000
1000
11E0
1620
9840
7080
1100
1000
1000
0800
07C0
ENDCHAR
STARTCHAR uni30BC
ENCODING 12476
SWIDTH 1000 0
DWIDTH 14 0
BBX 12 13 2 -1
BITMAP
0020
2090
1050
1040
11E0
1620
9840
7080
1100
1000
1000
0800
07E0
ENDCHAR
STARTCHAR uni30BD
ENCODING 12477
SWIDTH 1000 0
DWIDTH 14 0
BBX 9 13 3 -2
BITMAP
0100
8080
4080
2080
2100
2100
0200
0200
0400
0400
0800
1000
2000
ENDCHAR
STARTCHAR uni30BE
ENCODING 12478
SWIDTH 1000 0
DWIDTH 14 0
BBX 12 14 2 -2
BITMAP
0020
0290
8150
4140
2100
2100
2100
0200
0200
0400
0400
0800
1000
2000
ENDCHAR
STARTCHAR uni30BF
ENCODING 12479
SWIDTH 1000 0
DWIDTH 14 0
BBX 10 13 2 -2
BITMAP
0800
0400
07C0
0840
0880
1480
2300
4100
0200
0400
0800
3000
C000
ENDCHAR
STARTCHAR uni30C0
ENCODING 12480
SWIDTH 1000 0
DWIDTH 14 0
BBX 13 14 1 -2
BITMAP
0010
0848
0428
07E0
0840
0840
1480
2280
4100
0200
0400
0800
3000
C000
ENDCHAR
STARTCHAR uni30C1
ENCODING 12481
SWIDTH 1000 0
DWIDTH 14 0
BBX 11 13 2 -2
BITMAP
0100
0600
7800
0400
03E0
8E00
7200
0200
0200
0400
0400
0800
1000
ENDCHAR
STARTCHAR uni30C2
ENCODING 12482
SWIDTH 1000 0
DWIDTH 14 0
BBX 12 14 2 -2
BITMAP
0020
0190
0650
7840
0400
03E0
8E00
7200
0200
0200
0400
0400
0800
1000
ENDCHAR
STARTCHAR uni30C3
ENCODING 12483
SWIDTH 1000 0
DWIDTH 14 0
BBX 8 8 3 -2
BITMAP
22
91
51
42
02
04
08
10
ENDCHAR
STARTCHAR uni30C4
ENCODING 12484
SWIDTH 1000 0
DWIDTH 14 0
BBX 11 11 2 -1
BITMAP
1040
8820
4420
2440
2040
0080
0080
0100
0200
0400
0800
ENDCHAR
STARTCHAR uni30C5
ENCODING 12485
SWIDTH 1000 0
DWIDTH 14 0
BBX 13 13 1 -1
BITMAP
0010
0048
2128
10A0
8880
4880
2080
2100
0100
0200
0400
0800
1000
ENDCHAR
STARTCHAR uni30C6
ENCODING 12486
SWIDTH 1000 0
DWIDTH 14 0
BBX 11 12 2 -2
BITMAP
4780
3800
0000
01E0
8E00
7200
0200
0400
0400
0800
1000
2000
ENDCHAR
STARTCHAR uni30C7
ENCODING 12487
SWIDTH 1000 0
DWIDTH 14 0
BBX 12 14 2 -2
BITMAP
0020
0090
4750
3840
0000
83C0
7C00
0200
0200
0400
0400
0800
1000
2000
ENDCHAR
STARTCHAR uni30C8
ENCODING 12488
SWIDTH 1000 0
DWIDTH 14 0
BBX 7 13 4 -2
BITMAP
80
40
40
40
40
70
4C
42
40
40
40
40
40
ENDCHAR
STARTCHAR uni30C9
ENCODING 12489
SWIDTH 1000 0
DWIDTH 14 0
BBX 9 14 3 -2
BITMAP
0100
8480
4280
4200
4000
4000
7000
4C00
4200
4000
4000
4000
4000
4000
ENDCHAR
STARTCHAR uni30CA
ENCODING 12490
SWIDTH 1000 0
DWIDTH 14 0
BBX 11 13 2 -2
BITMAP
0400
0200
0200
83E0
7E00
0200
0200
0200
0400
0400
0800
1000
2000
ENDCHAR
STARTCHAR uni30CB
ENCODING 12491
SWIDTH 1000 0
DWIDTH 14 0
BBX 11 8 2 1
BITMAP
0380
7C00
0000
0000
0000
0000
07C0
F820
ENDCHAR
STARTCHAR uni30CC
ENCODING 12492
SWIDTH 1000 0
DWIDTH 14 0
BBX 10 11 2 -1
BITMAP
43C0
3C40
0080
0080
3900
0700
0300
0480
0840
3040
C000
ENDCHAR
STARTCHAR uni30CD
ENCODING 12493
SWIDTH 1000 0
DWIDTH 14 0
BBX 11 13 2 -2
BITMAP
0800
0400
0780
7880
0100
0200
0400
0D00
34C0
C420
0400
0400
0400
ENDCHAR
STARTCHAR uni30CE
ENCODING 12494
SWIDTH 1000 0
DWIDTH 14 0
BBX 8 13 3 -2
BITMAP
02
01
01
01
02
02
04
04
08
10
20
40
80
ENDCHAR
STARTCHAR uni30CF
ENCODING 12495
SWIDTH 1000 0
DWIDTH 14 0
BBX 12 8 1 0
BITMAP
1100
0880
0840
1020
1020
2010
4010
8010
ENDCHAR
STARTCHAR uni30D0
ENCODING 12496
SWIDTH 1000 0
DWIDTH 14 0
BBX 13 11 1 0
BITMAP
0010
0048
0028
1120
0880
0840
1020
1020
2010
4010
8010
ENDCHAR
STARTCHAR uni30D1
ENCODING 12497
SWIDTH 1000 0
DWIDTH 14 0
BBX 13 12 1 0
BITMAP
0030
0048
0048
0030
1100
0880
0840
1020
1020
2010
4010
8010
ENDCHAR
STARTCHAR uni30D2
ENCODING 12498
SWIDTH 1000 0
DWIDTH 14 0
BBX 9 11 3 -1
BITMAP
8000
4000
4000
4700
7800
4000
4000
4000
4000
2000
1F80
ENDCHAR
STARTCHAR uni30D3
ENCODING 12499
SWIDTH 1000 0
DWIDTH 14 0
BBX 10 12 3 -1
BITMAP
0080
8240
4140
4100
4000
4700
7800
4000
4000
4000
2000
1F80
ENDCHAR
STARTCHAR uni30D4
ENCODING 12500
SWIDTH 1000 0
DWIDTH 14 0
BBX 10 12 3 -1
BITMAP
0180
8240
4240
4180
4000
4700
7800
4000
4000
4000
2000
1F80
ENDCHAR
STARTCHAR uni30D5
ENCODING 12501
SWIDTH 1000 0
DWIDTH 14 0
BBX 9 11 3 -1
BITMAP
8780
7880
0080
0100
0100
0200
0200
0400
0800
1000
2000
ENDCHAR
STARTCHAR uni30D6
ENCODING 12502
SWIDTH 1000 0
DWIDTH 14 0
BBX 12 13 2 -1
BITMAP
0020
0090
8F50
7140
0100
0200
0200
0400
0400
0800
1000
2000
4000
ENDCHAR
STARTCHAR uni30D7
ENCODING 12503
SWIDTH 1000 0
DWIDTH 14 0
BBX 12 13 2 -1
BITMAP
0060
0090
8F90
7160
0100
0200
0200
0400
0400
0800
1000
2000
4000
ENDCHAR
STARTCHAR uni30D8
ENCODING 12504
SWIDTH 1000 0
DWIDTH 14 0
BBX 13 6 1 2
BITMAP
0400
0A00
9100
6080
0060
0018
ENDCHAR
STARTCHAR uni30D9
ENCODING 12505
SWIDTH 1000 0
DWIDTH 14 0
BBX 13 9 1 2
BITMAP
0040
0120
00A0
0480
0A00
9100
6080
0060
0018
ENDCHAR
STARTCHAR uni30DA
ENCODING 12506
SWIDTH 1000 0
DWIDTH 14 0
BBX 13 9 1 2
BITMAP
00C0
0120
0120
04C0
0A00
9100
6080
0060
0018
ENDCHAR
STARTCHAR uni30DB
ENCODING 12507
SWIDTH 1000 0
DWIDTH 14 0
BBX 10 13 2 -2
BITMAP
0800
0400
0400
87C0
7C00
0400
0500
2480
2440
4440
8400
0C00
0400
ENDCHAR
STARTCHAR uni30DC
ENCODING 12508
SWIDTH 1000 0
DWIDTH 14 0
BBX 12 14 2 -2
BITMAP
0020
0890
0450
0440
87C0
7C00
0400
0500
2480
2440
4440
8400
0C00
0400
ENDCHAR
STARTCHAR uni30DD
ENCODING 12509
SWIDTH 1000 0
DWIDTH 14 0
BBX 12 14 2 -2
BITMAP
0060
0890
0490
0460
87C0
7C00
0400
0500
2480
2440
4440
8400
0C00
0400
ENDCHAR
STARTCHAR uni30DE
ENCODING 12510
SWIDTH 1000 0
DWIDTH 14 0
BBX 11 9 2 0
BITMAP
83C0
7C20
0040
0080
0100
3200
0C00
0200
0100
ENDCHAR
STARTCHAR uni30DF
ENCODING 12511
SWIDTH 1000 0
DWIDTH 14 0
BBX 8 13 3 -2
BITMAP
20
18
06
01
40
30
0C
02
80
60
18
06
01
ENDCHAR
STARTCHAR uni30E0
ENCODING 12512
SWIDTH 1000 0
DWIDTH 14 0
BBX 11 11 2 0
BITMAP
0800
0400
0400
0400
0800
0800
0900
1080
10C0
A720
7820
ENDCHAR
STARTCHAR uni30E1
ENCODING 12513
SWIDTH 1000 0
DWIDTH 14 0
BBX 10 13 2 -2
BITMAP
0100
0080
0080
0080
1880
0700
0100
0280
0240
0400
0800
3000
C000
ENDCHAR
STARTCHAR uni30E2
ENCODING 12514
SWIDTH 1000 0
DWIDTH 14 0
BBX 11 10 2 0
BITMAP
4380
3C00
0800
0800
8FE0
7800
0800
0800
0800
07C0
ENDCHAR
STARTCHAR uni30E3
ENCODING 12515
SWIDTH 1000 0
DWIDTH 14 0
BBX 9 9 3 -2
BITMAP
2000
1380
1C80
F100
0A00
0800
0400
0400
0400
ENDCHAR
STARTCHAR uni30E4
ENCODING 12516
SWIDTH 1000 0
DWIDTH 14 0
BBX 11 12 2 -1
BITMAP
2000
1000
11E0
0E20
9840
6880
0500
0400
0400
0200
0200
0200
ENDCHAR
STARTCHAR uni30E5
ENCODING 12517
SWIDTH 1000 0
DWIDTH 14 0
BBX 9 6 3 0
BITMAP
0E00
7200
0200
0400
0F00
F080
ENDCHAR
STARTCHAR uni30E6
ENCODING 12518
SWIDTH 1000 0
DWIDTH 14 0
BBX 11 7 2 1
BITMAP
4700
3900
0100
0200
0200
07C0
F820
ENDCHAR
STARTCHAR uni30E7
ENCODING 12519
SWIDTH 1000 0
DWIDTH 14 0
BBX 7 8 4 -1
BITMAP
1E
E2
02
1E
E4
04
1C
E2
ENDCHAR
STARTCHAR uni30E8
ENCODING 12520
SWIDTH 1000 0
DWIDTH 14 0
BBX 9 11 3 -1
BITMAP
0F80
F080
0080
0080
0F00
7100
0100
0100
0100
0F00
7080
ENDCHAR
STARTCHAR uni30E9
ENCODING 12521
SWIDTH 1000 0
DWIDTH 14 0
BBX 10 12 2 -2
BITMAP
4700
3800
01C0
8E40
7040
0040
0080
0080
0100
0200
0C00
3000
ENDCHAR
STARTCHAR uni30EA
ENCODING 12522
SWIDTH 1000 0
DWIDTH 14 0
BBX 7 13 4 -2
BITMAP
04
82
42
42
42
42
42
42
04
04
08
10
20
ENDCHAR
STARTCHAR uni30EB
ENCODING 12523
SWIDTH 1000 0
DWIDTH 14 0
BBX 11 11 2 -1
BITMAP
0400
2200
1200
1200
1220
1220
1240
2240
2280
4300
8200
ENDCHAR
STARTCHAR uni30EC
ENCODING 12524
SWIDTH 1000 0
DWIDTH 14 0
BBX 9 12 3 -1
BITMAP
8000
4000
4000
4000
4000
4000
4080
4100
4200
4400
5800
6000
ENDCHAR
STARTCHAR uni30ED
ENCODING 12525
SWIDTH 1000 0
DWIDTH 14 0
BBX 10 9 2 0
BITMAP
87C0
7840
4040
4040
2080
2080
2780
3840
2000
ENDCHAR
STARTCHAR uni30EE
ENCODING 12526
SWIDTH 1000 0
DWIDTH 14 0
BBX 9 8 3 -2
BITMAP
8780
7880
4100
2100
2200
0200
0400
0800
ENDCHAR
STARTCHAR uni30EF
ENCODING 12527
SWIDTH 1000 0
DWIDTH 14 0
BBX 10 12 2 -2
BITMAP
87C0
7840
4040
2040
2080
2080
0100
0100
0200
0400
0800
1000
ENDCHAR
STARTCHAR uni30F0
ENCODING 12528
SWIDTH 1000 0
DWIDTH 14 0
BBX 11 13 2 -2
BITMAP
0400
0200
0200
07C0
7A00
2200
1200
17C0
FA20
0200
0200
0200
0200
ENDCHAR
STARTCHAR uni30F1
ENCODING 12529
SWIDTH 1000 0
DWIDTH 14 0
BBX 11 8 2 1
BITMAP
0780
7880
0900
0600
0400
0400
07C0
F820
ENDCHAR
STARTCHAR uni30F2
ENCODING 12530
SWIDTH 1000 0
DWIDTH 14 0
BBX 9 12 3 -2
BITMAP
0F80
F080
0080
0100
0F00
7100
0200
0200
0400
0800
3000
C000
ENDCHAR
STARTCHAR uni30F3
ENCODING 12531
SWIDTH 1000 0
DWIDTH 14 0
BBX 10 10 3 -1
BITMAP
C000
2040
1040
0080
0080
0100
0200
0400
9800
6000
ENDCHAR
STARTCHAR uni30F4
ENCODING 12532
SWIDTH 1000 0
DWIDTH 14 0
BBX 13 14 1 -2
BITMAP
0010
0848
0428
0420
87C0
7840
4040
2080
2080
0100
0100
0200
0400
0800
ENDCHAR
STARTCHAR uni30F5
ENCODING 12533
SWIDTH 1000 0
DWIDTH 14 0
BBX 8 9 3 -2
BITMAP
10
08
8F
71
11
11
21
46
82
ENDCHAR
STARTCHAR uni30F6
ENCODING 12534
SWIDTH 1000 0
DWIDTH 14 0
BBX 8 9 3 -2
BITMAP
40
20
23
3C
44
84
08
10
20
ENDCHAR
STARTCHAR uni30FB
ENCODING 12539
SWIDTH 1000 0
DWIDTH 14 0
BBX 3 3 6 3
BITMAP
40
E0
40
ENDCHAR
STARTCHAR uni30FC
ENCODING 12540
SWIDTH 1000 0
DWIDTH 14 0
BBX 12 2 1 4
BITMAP
81F0
7E00
ENDCHAR
STARTCHAR uni30FD
ENCODING 12541
SWIDTH 1000 0
DWIDTH 14 0
BBX 7 5 4 3
BITMAP
C0
30
08
04
02
ENDCHAR
STARTCHAR uni30FE
ENCODING 12542
SWIDTH 1000 0
DWIDTH 14 0
BBX 8 7 4 3
BITMAP
02
09
C4
30
08
04
02
ENDCHAR
STARTCHAR uni4E00
ENCODING 19968
SWIDTH 1000 0
DWIDTH 14 0
BBX 13 1 1 5
BITMAP
FFF8
ENDCHAR
STARTCHAR uni4E01
ENCODING 19969
SWIDTH 1000 0
DWIDTH 14 0
BBX 13 13 1 -2
BITMAP
FFF8
0200
0200
0200
0200
0200
0200
0200
0200
0200
0200
0200
0600
ENDCHAR
STARTCHAR uni4E03
ENCODING 19971
SWIDTH 1000 0
DWIDTH 14 0
BBX 13 14 1 -2
BITMAP
0800
0800
0800
0800
0878
0F80
F800
0800
0800
0800
0800
0810
0810
07F0
ENDCHAR
STARTCHAR uni4E07
ENCODING 19975
SWIDTH 1000 0
DWIDTH 14 0
BBX 13 13 1 -2
BITMAP
FFF8
0400
0400
0400
07E0
0420
0420
0820
0820
1020
2020
4020
80C0
ENDCHAR
STARTCHAR uni4E08
ENCODING 19976
SWIDTH 1000 0
DWIDTH 14 0
BBX 13 14 1 -2
BITMAP
0200
0200
0200
FFF8
0200
0200
2200
1200
0A00
0600
0600
0980
3060
C018
ENDCHAR
STARTCHAR uni4E09
ENCODING 19977
SWIDTH 1000 0
DWIDTH 14 0
BBX 13 12 1 -1
BITMAP
7FF0
0000
0000
0000
0000
3FE0
0000
0000
0000
0000
0000
FFF8
ENDCHAR
STARTCHAR uni4E0A
ENCODING 19978
SWIDTH 1000 0
DWIDTH 14 0
BBX 13 13 1 -1
BITMAP
0400
0400
0400
0400
0400
07E0
0400
0400
0400
0400
0400
0400
FFF8
ENDCHAR
STARTCHAR uni4E0B
ENCODING 19979
SWIDTH 1000 0
DWIDTH 14 0
BBX 13 13 1 -2
BITMAP
FFF8
0200
0200
0300
0280
0240
0220
0220
0200
0200
0200
0200
0200
ENDCHAR
STARTCHAR uni4E0D
ENCODING 19981
SWIDTH 1000 0
DWIDTH 14 0
BBX 13 13 1 -2
BITMAP
FFF8
0100
0100
0200
0700
0AC0
3220
C210
0208
0200
0200
0200
0200
ENDCHAR
STARTCHAR uni4E0E
ENCODING 19982
SWIDTH 1000 0
DWIDTH 14 0
BBX 13 14 1 -2
BITMAP
0800
0800
0FE0
0800
0800
0F80
0880
0080
FFF8
0080
0080
0080
0080
0700
ENDCHAR
STARTCHAR uni4E10
ENCODING 19984
SWIDTH 1000 0
DWIDTH 14 0
BBX 13 13 1 -2
BITMAP
FFF8
0200
0200
43F0
4200
4200
7FF0
4010
0010
0010
0020
0020
00C0
ENDCHAR
STARTCHAR uni4E11
ENCODING 19985
SWIDTH 1000 0
DWIDTH 14 0
BBX 13 12 1 -1
BITMAP
3FC0
0440
0440
0440
0440
7FF0
0840
0840
0840
0840
0840
FFF8
ENDCHAR
STARTCHAR uni4E14
ENCODING 19988
SWIDTH 1000 0
DWIDTH 14 0
BBX 13 12 1 -1
BITMAP
1FC0
1040
1040
1040
1FC0
1040
1040
1FC0
1040
1040
1040
FFF8
ENDCHAR
STARTCHAR uni4E15
ENCODING 19989
SWIDTH 1000 0
DWIDTH 14 0
BBX 13 12 1 -1
BITMAP
7FF0
0100
0200
0700
0AC0
1220
6210
8208
0200
0200
0000
7FF0
ENDCHAR
STARTCHAR uni4E16
ENCODING 19990
SWIDTH 1000 0
DWIDTH 14 0
BBX 13 14 1 -2
BITMAP
2440
2440
2440
2440
FFF8
2440
2440
2440
27C0
2440
2000
2000
3FF0
2000
ENDCHAR
STARTCHAR uni4E17
ENCODING 19991
SWIDTH 1000 0
DWIDTH 14 0
BBX 13 14 1 -2
BITMAP
2220
2220
2220
2220
2220
FFF8
2220
2220
2220
2220
2220
2220
3FE0
2020
ENDCHAR
STARTCHAR uni4E18
ENCODING 19992
SWIDTH 1000 0
DWIDTH 14 0
BBX 13 13 1 -1
BITMAP
0040
0180
1E00
1000
1000
1FF0
1080
1080
1080
1080
1080
1080
FFF8
ENDCHAR
STARTCHAR uni4E19
ENCODING 19993
SWIDTH 1000 0
DWIDTH 14 0
BBX 13 13 1 -2
BITMAP
FFF8
0200
0200
7FF0
4210
4210
4510
4490
4850
5050
4010
4010
4030
ENDCHAR
STARTCHAR uni4E1E
ENCODING 19998
SWIDTH 1000 0
DWIDTH 14 0
BBX 13 12 1 -1
BITMAP
1FC0
0080
0110
7A90
0AA0
1240
1240
2220
4210
8608
0000
7FF0
ENDCHAR
STARTCHAR uni4E21
ENCODING 20001
SWIDTH 1000 0
DWIDTH 14 0
BBX 13 13 1 -2
BITMAP
FFF8
0200
0200
7FF0
4210
5250
5250
5250
5250
5FD0
5050
4010
4030
ENDCHAR
STARTCHAR uni4E26
ENCODING 20006
SWIDTH 1000 0
DWIDTH 14 0
BBX 13 13 1 -1
BITMAP
1040
0840
0880
FFF8
0880
0880
4890
2890
28A0
28C0
0880
0880
FFF8
ENDCHAR
STARTCHAR uni4E2A
ENCODING 20010
SWIDTH 1000 0
DWIDTH 14 0
BBX 13 14 1 -2
BITMAP
0200
0200
0500
0500
0880
1040
2220
4210
8208
0200
0200
0200
0200
0200
ENDCHAR
STARTCHAR uni4E2D
ENCODING 20013
SWIDTH 1000 0
DWIDTH 14 0
BBX 11 14 2 -2
BITMAP
0400
0400
0400
FFE0
8420
8420
8420
8420
FFE0
8420
0400
0400
0400
0400
ENDCHAR
STARTCHAR uni4E31
ENCODING 20017
SWIDTH 1000 0
DWIDTH 14 0
BBX 12 14 1 -2
BITMAP
0900
0900
8910
8910
8910
8910
8910
8910
F9F0
8910
1100
1100
2100
4100
ENDCHAR
STARTCHAR uni4E32
ENCODING 20018
SWIDTH 1000 0
DWIDTH 14 0
BBX 11 14 2 -2
BITMAP
0400
0400
7FC0
4440
4440
7FC0
0400
FFE0
8420
8420
FFE0
8420
0400
0400
ENDCHAR
STARTCHAR uni4E36
ENCODING 20022
SWIDTH 1000 0
DWIDTH 14 0
BBX 3 4 6 4
BITMAP
80
40
20
20
ENDCHAR
STARTCHAR uni4E38
ENCODING 20024
SWIDTH 1000 0
DWIDTH 14 0
BBX 13 14 1 -2
BITMAP
0400
0400
0400
0400
FF80
0480
0480
3480
0C80
0A80
1188
2088
4088
8078
ENDCHAR
STARTCHAR uni4E39
ENCODING 20025
SWIDTH 1000 0
DWIDTH 14 0
BBX 13 13 1 -2
BITMAP
1FC0
1040
1440
1240
1240
1040
FFF8
1040
1040
2040
2040
4040
80C0
ENDCHAR
STARTCHAR uni4E3B
ENCODING 20027
SWIDTH 1000 0
DWIDTH 14 0
BBX 13 13 1 -1
BITMAP
0400
0200
0200
7FF0
0200
0200
0200
3FE0
0200
0200
0200
0200
FFF8
ENDCHAR
STARTCHAR uni4E3C
ENCODING 20028
SWIDTH 1000 0
DWIDTH 14 0
BBX 13 14 1 -2
BITMAP
0840
0840
0840
7FF8
0840
0A40
0940
0940
FFF8
0840
1040
1040
2040
4040
ENDCHAR
STARTCHAR uni4E3F
ENCODING 20031
SWIDTH 1000 0
DWIDTH 14 0
BBX 8 14 3 -2
BITMAP
01
01
01
01
01
01
01
01
02
02
04
08
30
C0
ENDCHAR
STARTCHAR uni4E42
ENCODING 20034
SWIDTH 1000 0
DWIDTH 14 0
BBX 13 14 1 -2
BITMAP
0040
2040
2040
1040
1080
1080
0880
0900
0500
0200
0500
0880
3060
C018
ENDCHAR
STARTCHAR uni4E43
ENCODING 20035
SWIDTH 1000 0
DWIDTH 14 0
BBX 12 13 1 -2
BITMAP
7F80
0880
0880
0880
0880
08F0
0890
0810
1010
1010
2010
4010
80E0
ENDCHAR
STARTCHAR uni4E45
ENCODING 20037
SWIDTH 1000 0
DWIDTH 14 0
BBX 13 14 1 -2
BITMAP
0400
0400
0400
07C0
0840
0840
1080
2080
4180
0240
0440
0820
3010
C008
ENDCHAR
STARTCHAR uni4E4B
ENCODING 20043
SWIDTH 1000 0
DWIDTH 14 0
BBX 13 14 1 -2
BITMAP
0200
0200
0200
7FE0
0020
0040
0040
0080
0100
2200
3400
2800
4600
81F8
ENDCHAR
STARTCHAR uni4E4D
ENCODING 20045
SWIDTH 1000 0
DWIDTH 14 0
BBX 13 14 1 -2
BITMAP
0800
0800
0800
1FF8
1200
2200
43F0
8200
0200
03F0
0200
0200
0200
0200
ENDCHAR
STARTCHAR uni4E4E
ENCODING 20046
SWIDTH 1000 0
DWIDTH 14 0
BBX 13 14 1 -2
BITMAP
0060
7F80
0220
2220
1240
1280
0200
FFF8
0200
0200
0200
0200
0200
0600
ENDCHAR
STARTCHAR uni4E4F
ENCODING 20047
SWIDTH 1000 0
DWIDTH 14 0
BBX 13 14 1 -2
BITMAP
0030
01C0
7E00
0200
0200
3FE0
0020
0040
0080
1300
1C00
2800
4600
81F8
ENDCHAR
STARTCHAR uni4E55
ENCODING 20053
SWIDTH 1000 0
DWIDTH 14 0
BBX 13 14 1 -2
BITMAP
00F0
3F00
2100
3FF8
2100
3FF8
2100
2FF0
2910
2910
4910
4960
8100
0100
ENDCHAR
STARTCHAR uni4E56
ENCODING 20054
SWIDTH 1000 0
DWIDTH 14 0
BBX 13 14 1 -2
BITMAP
0060
3F80
0200
0200
FFF8
0200
1240
F258
1260
1240
3248
D238
0200
0200
ENDCHAR
STARTCHAR uni4E57
ENCODING 20055
SWIDTH 1000 0
DWIDTH 14 0
BBX 13 14 1 -2
BITMAP
00C0
3F00
0200
7FF0
1240
FFF8
1240
7FF0
0700
0A80
3260
C218
0200
0200
ENDCHAR
STARTCHAR uni4E58
ENCODING 20056
SWIDTH 1000 0
DWIDTH 14 0
BBX 13 14 1 -2
BITMAP
00C0
3F00
0200
FFF8
0A90
7AE0
0A80
3A90
CA70
0700
0A80
3260
C218
0200
ENDCHAR
STARTCHAR uni4E59
ENCODING 20057
SWIDTH 1000 0
DWIDTH 14 0
BBX 11 12 2 -1
BITMAP
FF80
0100
0200
0400
0800
1000
2000
4000
8020
8020
8020
7FE0
ENDCHAR
STARTCHAR uni4E5D
ENCODING 20061
SWIDTH 1000 0
DWIDTH 14 0
BBX 13 14 1 -2
BITMAP
0400
0400
0400
0400
FF80
0480
0480
0480
0880
0880
1088
2088
4088
8078
ENDCHAR
STARTCHAR uni4E5E
ENCODING 20062
SWIDTH 1000 0
DWIDTH 14 0
BBX 12 14 1 -2
BITMAP
1000
1000
1000
3FF0
2000
4000
9F80
0200
0400
0800
1000
2010
2010
1FF0
ENDCHAR
STARTCHAR uni4E5F
ENCODING 20063
SWIDTH 1000 0
DWIDTH 14 0
BBX 13 14 1 -2
BITMAP
0200
2200
2200
2260
23A0
2E20
3220
E220
2220
2220
22C0
2008
2008
1FF8
ENDCHAR
STARTCHAR uni4E62
ENCODING 20066
SWIDTH 1000 0
DWIDTH 14 0
BBX 13 14 1 -2
BITMAP
2100
2100
2100
A900
A900
A900
A900
A900
A900
A900
F908
8908
8108
00F8
ENDCHAR
STARTCHAR uni4E71
ENCODING 20081
SWIDTH 1000 0
DWIDTH 14 0
BBX 13 14 1 -2
BITMAP
0480
1880
7080
1080
1080
FE80
1080
1080
7C80
4480
4480
4488
7C88
4478
ENDCHAR
STARTCHAR uni4E73
ENCODING 20083
SWIDTH 1000 0
DWIDTH 14 0
BBX 13 14 1 -2
BITMAP
0680
F880
2280
9280
5480
4880
7E80
0480
0880
0E80
F880
0888
0888
1878
ENDCHAR
STARTCHAR uni4E7E
ENCODING 20094
SWIDTH 1000 0
DWIDTH 14 0
BBX 13 14 1 -2
BITMAP
1100
1100
FFF8
1100
7E00
45F0
7C20
4440
7C80
1080
FF00
1108
1108
10F8
ENDCHAR
STARTCHAR uni4E80
ENCODING 20096
SWIDTH 1000 0
DWIDTH 14 0
BBX 13 14 1 -2
BITMAP
0400
0780
1900
FFC0
1240
1FC0
1240
3FE0
2220
3FE0
2220
3FE8
2208
01F8
ENDCHAR
STARTCHAR uni4E82
ENCODING 20098
SWIDTH 1000 0
DWIDTH 14 0
BBX 13 14 1 -2
BITMAP
0E80
F480
5280
7E80
AC80
1080
FE80
AA80
FA80
BA80
AA80
9288
AA88
C678
ENDCHAR
STARTCHAR uni4E85
ENCODING 20101
SWIDTH 1000 0
DWIDTH 14 0
BBX 3 14 5 -2
BITMAP
20
20
20
20
20
20
20
20
20
20
20
20
20
C0
ENDCHAR
STARTCHAR uni4E86
ENCODING 20102
SWIDTH 1000 0
DWIDTH 14 0
BBX 10 13 2 -2
BITMAP
FFC0
0080
0100
0600
0400
0400
0400
0400
0400
0400
0400
0400
0C00
ENDCHAR
STARTCHAR uni4E88
ENCODING 20104
SWIDTH 1000 0
DWIDTH 14 0
BBX 13 13 1 -2
BITMAP
3FE0
0440
0280
0300
FFF8
0210
0220
0240
0200
0200
0200
0200
0600
ENDCHAR
STARTCHAR uni4E89
ENCODING 20105
SWIDTH 1000 0
DWIDTH 14 0
BBX 13 14 1 -2
BITMAP
0200
07C0
1880
6100
3FE0
0220
FFF8
0220
0220
3FE0
0220
0200
0200
0600
ENDCHAR
STARTCHAR uni4E8A
ENCODING 20106
SWIDTH 1000 0
DWIDTH 14 0
BBX 13 14 1 -2
BITMAP
0200
0200
FFF8
2220
1220
1240
3FE0
0220
FFF8
0220
3FE0
0220
0200
0600
ENDCHAR
STARTCHAR uni4E8B
ENCODING 20107
SWIDTH 1000 0
DWIDTH 14 0
BBX 13 14 1 -2
BITMAP
0200
FFF8
0200
1FC0
1240
1FC0
0200
3FE0
0220
FFF8
0220
3FE0
0220
0600
ENDCHAR
STARTCHAR uni4E8C
ENCODING 20108
SWIDTH 1000 0
DWIDTH 14 0
BBX 13 10 1 0
BITMAP
7FF0
0000
0000
0000
0000
0000
0000
0000
0000
FFF8
ENDCHAR
STARTCHAR uni4E8E
ENCODING 20110
SWIDTH 1000 0
DWIDTH 14 0
BBX 13 13 1 -2
BITMAP
7FF0
0200
0200
0200
0200
FFF8
0200
0200
0200
0200
0200
0200
0C00
ENDCHAR
STARTCHAR uni4E91
ENCODING 20113
SWIDTH 1000 0
DWIDTH 14 0
BBX 13 13 1 -2
BITMAP
3FE0
0000
0000
0000
FFF8
0200
0200
0280
0440
0420
08E0
7F10
0010
ENDCHAR
STARTCHAR uni4E92
ENCODING 20114
SWIDTH 1000 0
DWIDTH 14 0
BBX 13 12 1 -1
BITMAP
7FF0
0400
0400
0FC0
0840
0840
0840
1FC0
1080
0080
0080
FFF8
ENDCHAR
STARTCHAR uni4E94
ENCODING 20116
SWIDTH 1000 0
DWIDTH 14 0
BBX 13 12 1 -1
BITMAP
7FF0
0400
0400
0400
0400
7FC0
0840
0840
0840
1040
1040
FFF8
ENDCHAR
STARTCHAR uni4E95
ENCODING 20117
SWIDTH 1000 0
DWIDTH 14 0
BBX 13 14 1 -2
BITMAP
0880
0880
0880
0880
7FF0
0880
0880
0880
FFF8
0880
1080
1080
2080
4080
ENDCHAR
STARTCHAR uni4E98
ENCODING 20120
SWIDTH 1000 0
DWIDTH 14 0
BBX 13 13 1 -2
BITMAP
7FF0
0000
0000
1FC0
1040
1040
1FC0
1040
1040
1FC0
1040
0000
FFF8
ENDCHAR
STARTCHAR uni4E99
ENCODING 20121
SWIDTH 1000 0
DWIDTH 14 0
BBX 13 12 1 -1
BITMAP
7FF0
0400
0400
0FC0
0A40
0940
0940
1440
1280
1280
0080
FFF8
ENDCHAR
STARTCHAR uni4E9B
ENCODING 20123
SWIDTH 1000 0
DWIDTH 14 0
BBX 13 13 1 -1
BITMAP
1100
1100
5130
5FC0
5100
5108
5D08
E0F8
0000
3FE0
0000
0000
FFF8
ENDCHAR
STARTCHAR uni4E9C
ENCODING 20124
SWIDTH 1000 0
DWIDTH 14 0
BBX 12 12 1 -1
BITMAP
FFF0
0900
0900
7FE0
4920
4920
4920
7FE0
4920
0900
0900
FFF0
ENDCHAR
STARTCHAR uni4E9E
ENCODING 20126
SWIDTH 1000 0
DWIDTH 14 0
BBX 13 12 1 -1
BITMAP
FFF8
0880
0880
0880
78F0
4010
4010
78F0
4890
0880
0880
FFF8
ENDCHAR
STARTCHAR uni4E9F
ENCODING 20127
SWIDTH 1000 0
DWIDTH 14 0
BBX 13 12 1 -1
BITMAP
FFF8
0400
0400
0FF0
7990
4950
4960
4920
7950
4188
0600
FFF8
ENDCHAR
STARTCHAR uni4EA0
ENCODING 20128
SWIDTH 1000 0
DWIDTH 14 0
BBX 13 5 1 4
BITMAP
0200
0200
0200
0200
FFF8
ENDCHAR
STARTCHAR uni4EA1
ENCODING 20129
SWIDTH 1000 0
DWIDTH 14 0
BBX 13 13 1 -1
BITMAP
0200
0200
0200
FFF8
2000
2000
2000
2000
2000
2000
2000
2000
1FF0
ENDCHAR
STARTCHAR uni4EA2
ENCODING 20130
SWIDTH 1000 0
DWIDTH 14 0
BBX 13 14 1 -2
BITMAP
0200
0200
FFF8
0000
0000
0F80
0880
0880
0880
0880
1080
1088
2088
4078
ENDCHAR
STARTCHAR uni4EA4
ENCODING 20132
SWIDTH 1000 0
DWIDTH 14 0
BBX 13 14 1 -2
BITMAP
0200
0200
FFF8
0880
0840
10A0
2890
4490
0500
0300
0300
0480
1860
E018
ENDCHAR
STARTCHAR uni4EA5
ENCODING 20133
SWIDTH 1000 0
DWIDTH 14 0
BBX 13 14 1 -2
BITMAP
0200
0200
FFF8
0200
0480
3480
0920
0640
0480
1980
2240
0C20
3010
C010
ENDCHAR
STARTCHAR uni4EA6
ENCODING 20134
SWIDTH 1000 0
DWIDTH 14 0
BBX 13 14 1 -2
BITMAP
0200
0200
0200
FFF8
0480
0480
24A0
2490
4488
8488
0880
0880
1080
2180
ENDCHAR
STARTCHAR uni4EA8
ENCODING 20136
SWIDTH 1000 0
DWIDTH 14 0
BBX 13 14 1 -2
BITMAP
0200
FFF8
0000
1FC0
1040
1FC0
0000
3FC0
0080
0300
0200
0200
0200
0600
ENDCHAR
STARTCHAR uni4EAB
ENCODING 20139
SWIDTH 1000 0
DWIDTH 14 0
BBX 13 14 1 -2
BITMAP
0200
FFF8
0000
1FC0
1040
1FC0
0000
3FC0
0080
0300
FFF8
0200
0200
0600
ENDCHAR
STARTCHAR uni4EAC
ENCODING 20140
SWIDTH 1000 0
DWIDTH 14 0
BBX 13 14 1 -2
BITMAP
0200
0200
FFF8
0000
1FC0
1040
1040
1FC0
0200
1240
1220
2210
4210
0600
ENDCHAR
STARTCHAR uni4EAD
ENCODING 20141
SWIDTH 1000 0
DWIDTH 14 0
BBX 13 14 1 -2
BITMAP
0200
FFF8
0000
1FC0
1040
1FC0
0000
7FF8
4010
BFE0
0200
0200
0200
0600
ENDCHAR
STARTCHAR uni4EAE
ENCODING 20142
SWIDTH 1000 0
DWIDTH 14 0
BBX 13 14 1 -2
BITMAP
0200
FFF8
0000
1FC0
1040
1FC0
0000
7FF8
4010
8900
0900
0908
3108
C0F8
ENDCHAR
STARTCHAR uni4EB0
ENCODING 20144
SWIDTH 1000 0
DWIDTH 14 0
BBX 13 14 1 -2
BITMAP
0200
0200
FFF8
0000
3FE0
2020
3FE0
2020
3FE0
1240
1220
2210
4210
0600
ENDCHAR
STARTCHAR uni4EB3
ENCODING 20147
SWIDTH 1000 0
DWIDTH 14 0
BBX 13 14 1 -2
BITMAP
0200
FFF8
0000
1FC0
1040
1FC0
0000
7FF8
4190
9E00
03F0
7E00
0208
01F8
ENDCHAR
STARTCHAR uni4EB6
ENCODING 20150
SWIDTH 1000 0
DWIDTH 14 0
BBX 13 13 1 -1
BITMAP
0200
0200
FFF8
2FA0
28A0
2FA0
3FE0
1040
1FC0
1040
1FC0
0000
FFF8
ENDCHAR
STARTCHAR uni4EBA
ENCODING 20154
SWIDTH 1000 0
DWIDTH 14 0
BBX 13 14 1 -2
BITMAP
0200
0200
0200
0200
0200
0200
0700
0500
0880
0880
1040
2020
4010
8008
ENDCHAR
STARTCHAR uni4EC0
ENCODING 20160
SWIDTH 1000 0
DWIDTH 14 0
BBX 13 14 1 -2
BITMAP
0880
0880
0880
1080
1080
3FF8
5080
9080
1080
1080
1080
1080
1080
1080
ENDCHAR
STARTCHAR uni4EC1
ENCODING 20161
SWIDTH 1000 0
DWIDTH 14 0
BBX 13 14 1 -2
BITMAP
1000
1000
17F0
2000
2000
6000
A000
2000
2000
2000
2000
2FF8
2000
2000
ENDCHAR
STARTCHAR uni4EC2
ENCODING 20162
SWIDTH 1000 0
DWIDTH 14 0
BBX 12 14 1 -2
BITMAP
1100
1100
1100
2100
3FF0
6110
A110
2110
2110
2210
2210
2410
2810
3060
ENDCHAR
STARTCHAR uni4EC4
ENCODING 20164
SWIDTH 1000 0
DWIDTH 14 0
BBX 13 13 1 -2
BITMAP
3FF8
2000
2100
2100
2100
2100
2280
2280
2440
4440
4820
9010
2008
ENDCHAR
STARTCHAR uni4EC6
ENCODING 20166
SWIDTH 1000 0
DWIDTH 14 0
BBX 13 14 1 -2
BITMAP
0880
0880
0880
1080
10C0
30A0
5090
9088
1088
1080
1080
1080
1080
1080
ENDCHAR
STARTCHAR uni4EC7
ENCODING 20167
SWIDTH 1000 0
DWIDTH 14 0
BBX 13 14 1 -2
BITMAP
1200
1200
1200
2200
23C0
7E40
A240
2240
2240
2240
2448
2448
2848
3038
ENDCHAR
STARTCHAR uni4ECA
ENCODING 20170
SWIDTH 1000 0
DWIDTH 14 0
BBX 13 14 1 -2
BITMAP
0200
0200
0500
0880
3060
CF98
0000
0000
3FC0
0040
0080
0080
0100
0100
ENDCHAR
STARTCHAR uni4ECB
ENCODING 20171
SWIDTH 1000 0
DWIDTH 14 0
BBX 13 14 1 -2
BITMAP
0200
0200
0500
0880
3060
C898
0880
0880
0880
0880
1080
1080
2080
4080
ENDCHAR
STARTCHAR uni4ECD
ENCODING 20173
SWIDTH 1000 0
DWIDTH 14 0
BBX 12 14 1 -2
BITMAP
1000
1FC0
1240
2240
2240
6240
A270
2250
2210
2210
2410
2410
2810
3060
ENDCHAR
STARTCHAR uni4ECE
ENCODING 20174
SWIDTH 1000 0
DWIDTH 14 0
BBX 13 14 1 -2
BITMAP
1040
1040
1040
1040
1040
1040
1040
10C0
18A0
24A0
2520
2310
4210
8408
ENDCHAR
STARTCHAR uni4ECF
ENCODING 20175
SWIDTH 1000 0
DWIDTH 14 0
BBX 13 14 1 -2
BITMAP
1100
1100
1100
1100
2100
2100
6100
A200
2240
2220
2410
24F0
3F08
2008
ENDCHAR
STARTCHAR uni4ED4
ENCODING 20180
SWIDTH 1000 0
DWIDTH 14 0
BBX 13 14 1 -2
BITMAP
1000
17F0
1020
2040
2080
6080
A080
2FF8
2080
2080
2080
2080
2080
2180
ENDCHAR
STARTCHAR uni4ED5
ENCODING 20181
SWIDTH 1000 0
DWIDTH 14 0
BBX 13 14 1 -2
BITMAP
1080
1080
1080
2080
2080
6FF8
A080
2080
2080
2080
2080
2080
27F0
2000
ENDCHAR
STARTCHAR uni4ED6
ENCODING 20182
SWIDTH 1000 0
DWIDTH 14 0
BBX 13 14 1 -2
BITMAP
1080
1080
1480
2490
24F0
6790
BC90
2490
2490
24B0
2480
2408
2408
23F8
ENDCHAR
STARTCHAR uni4ED7
ENCODING 20183
SWIDTH 1000 0
DWIDTH 14 0
BBX 13 14 1 -2
BITMAP
1080
1080
1080
2FF8
2080
6480
A480
2280
2380
2100
2180
2240
2420
2818
ENDCHAR
STARTCHAR uni4ED8
ENCODING 20184
SWIDTH 1000 0
DWIDTH 14 0
BBX 13 14 1 -2
BITMAP
0820
0820
0820
1020
17F8
3020
5220
9120
1120
1020
1020
1020
1020
1060
ENDCHAR
STARTCHAR uni4ED9
ENCODING 20185
SWIDTH 1000 0
DWIDTH 14 0
BBX 12 14 1 -2
BITMAP
1080
1080
1080
2490
2490
6490
A490
2490
2490
2490
2490
27F0
2410
2410
ENDCHAR
STARTCHAR uni4EDD
ENCODING 20189
SWIDTH 1000 0
DWIDTH 14 0
BBX 13 13 1 -1
BITMAP
0200
0200
0500
0880
1040
2020
C018
1FC0
0200
0200
0200
0200
FFF8
ENDCHAR
STARTCHAR uni4EDE
ENCODING 20190
SWIDTH 1000 0
DWIDTH 14 0
BBX 12 14 1 -2
BITMAP
1000
1FF0
1110
2110
2110
6110
A510
2510
2910
2110
2210
2210
2410
2860
ENDCHAR
STARTCHAR uni4EDF
ENCODING 20191
SWIDTH 1000 0
DWIDTH 14 0
BBX 13 14 1 -2
BITMAP
1010
1060
1780
2080
2080
6080
BFF8
2080
2080
2080
2080
2080
2080
2080
ENDCHAR
STARTCHAR uni4EE3
ENCODING 20195
SWIDTH 1000 0
DWIDTH 14 0
BBX 13 14 1 -2
BITMAP
0920
0910
0910
1100
11F8
3E80
5080
9080
1040
1040
1028
1028
1018
1008
ENDCHAR
STARTCHAR uni4EE4
ENCODING 20196
SWIDTH 1000 0
DWIDTH 14 0
BBX 13 14 1 -2
BITMAP
0200
0200
0500
0880
3060
DFD8
0000
3FE0
0220
0220
0220
03C0
0200
0200
ENDCHAR
STARTCHAR uni4EE5
ENCODING 20197
SWIDTH 1000 0
DWIDTH 14 0
BBX 13 14 1 -2
BITMAP
2020
2020
2420
2220
2120
2120
2020
2020
2020
2060
2C50
3090
C308
0C08
ENDCHAR
STARTCHAR uni4EED
ENCODING 20205
SWIDTH 1000 0
DWIDTH 14 0
BBX 13 14 1 -2
BITMAP
1000
1FF0
1110
2110
2110
6910
A510
2310
2110
22D0
2238
2410
2810
3060
ENDCHAR
STARTCHAR uni4EEE
ENCODING 20206
SWIDTH 1000 0
DWIDTH 14 0
BBX 13 14 1 -2
BITMAP
1000
17F8
1400
2400
27F0
6510
A510
24A0
24A0
2440
2840
28A0
3310
2C08
ENDCHAR
STARTCHAR uni4EF0
ENCODING 20208
SWIDTH 1000 0
DWIDTH 14 0
BBX 12 14 1 -2
BITMAP
1080
1100
16F0
2490
2490
6490
A490
2490
2490
2790
3CE0
2080
2080
2080
ENDCHAR
STARTCHAR uni4EF2
ENCODING 20210
SWIDTH 1000 0
DWIDTH 14 0
BBX 13 14 1 -2
BITMAP
1080
1080
1080
2FF8
2888
6888
A888
2888
2FF8
2888
2080
2080
2080
2080
ENDCHAR
STARTCHAR uni4EF6
ENCODING 20214
SWIDTH 1000 0
DWIDTH 14 0
BBX 13 14 1 -2
BITMAP
1080
1280
1280
27F0
2480
6880
A080
2FF8
2080
2080
2080
2080
2080
2080
ENDCHAR
STARTCHAR uni4EF7
ENCODING 20215
SWIDTH 1000 0
DWIDTH 14 0
BBX 13 14 1 -2
BITMAP
1100
1100
1180
2280
2240
6420
AA50
3248
2240
2240
2440
2440
2840
3040
ENDCHAR
STARTCHAR uni4EFB
ENCODING 20219
SWIDTH 1000 0
DWIDTH 14 0
BBX 13 14 1 -2
BITMAP
1030
17C0
1080
2080
2080
6080
AFF8
2080
2080
2080
2080
2080
27F0
2000
ENDCHAR
STARTCHAR uni4F01
ENCODING 20225
SWIDTH 1000 0
DWIDTH 14 0
BBX 13 13 1 -1
BITMAP
0200
0200
0500
0880
3260
C218
0200
1200
13E0
1200
1200
1200
FFF8
ENDCHAR
STARTCHAR uni4F09
ENCODING 20233
SWIDTH 1000 0
DWIDTH 14 0
BBX 13 14 1 -2
BITMAP
1080
1080
1FF8
2000
2000
63C0
A240
2240
2240
2240
2440
2448
2848
3038
ENDCHAR
STARTCHAR uni4F0A
ENCODING 20234
SWIDTH 1000 0
DWIDTH 14 0
BBX 13 14 1 -2
BITMAP
1000
17F0
1090
2090
2FF8
6090
A090
27F0
2090
2080
2100
2100
2200
2400
ENDCHAR
STARTCHAR uni4F0D
ENCODING 20237
SWIDTH 1000 0
DWIDTH 14 0
BBX 13 14 1 -2
BITMAP
1000
1FF0
1100
2100
2100
6100
AFE0
2220
2220
2220
2220
2220
3FF8
2000
ENDCHAR
STARTCHAR uni4F0E
ENCODING 20238
SWIDTH 1000 0
DWIDTH 14 0
BBX 13 14 1 -2
BITMAP
1080
1080
1080
2FF8
2080
6080
A7F0
2210
2220
2120
2140
2080
2360
2C18
ENDCHAR
STARTCHAR uni4F0F
ENCODING 20239
SWIDTH 1000 0
DWIDTH 14 0
BBX 13 14 1 -2
BITMAP
1080
10A0
1090
2090
2080
6FF8
A080
2080
2080
2140
2140
2220
2C10
3008
ENDCHAR
STARTCHAR uni4F10
ENCODING 20240
SWIDTH 1000 0
DWIDTH 14 0
BBX 13 14 1 -2
BITMAP
08A0
0890
0890
1080
10F8
3F90
5090
90A0
1060
1040
10C8
1128
1618
1008
ENDCHAR
STARTCHAR uni4F11
ENCODING 20241
SWIDTH 1000 0
DWIDTH 14 0
BBX 13 14 1 -2
BITMAP
1080
1080
1080
2080
2FF8
6080
A1C0
21C0
22A0
22A0
2490
2888
2080
2080
ENDCHAR
STARTCHAR uni4F1A
ENCODING 20250
SWIDTH 1000 0
DWIDTH 14 0
BBX 13 14 1 -2
BITMAP
0200
0200
0500
0880
3060
CF98
0000
0000
7FF0
0480
0440
09E0
7E10
0010
ENDCHAR
STARTCHAR uni4F1C
ENCODING 20252
SWIDTH 1000 0
DWIDTH 14 0
BBX 13 14 1 -2
BITMAP
1100
1100
1FC0
2140
2248
6248
A438
2880
2080
2FF8
2080
2080
2080
2080
ENDCHAR
STARTCHAR uni4F1D
ENCODING 20253
SWIDTH 1000 0
DWIDTH 14 0
BBX 13 14 1 -2
BITMAP
1000
17F0
1000
2000
2000
6FF8
A100
2100
2140
2220
2210
2470
3F88
2008
ENDCHAR
STARTCHAR uni4F2F
ENCODING 20271
SWIDTH 1000 0
DWIDTH 14 0
BBX 12 14 1 -2
BITMAP
1080
1080
1080
2100
27F0
6410
A410
2410
27F0
2410
2410
2410
27F0
2410
ENDCHAR
STARTCHAR uni4F30
ENCODING 20272
SWIDTH 1000 0
DWIDTH 14 0
BBX 13 14 1 -2
BITMAP
1080
1080
1080
2FF8
2080
6080
A080
27F0
2410
2410
2410
2410
27F0
2410
ENDCHAR
STARTCHAR uni4F34
ENCODING 20276
SWIDTH 1000 0
DWIDTH 14 0
BBX 13 14 1 -2
BITMAP
1080
1490
1290
22A0
2080
67F0
A080
2080
2FF8
2080
2080
2080
2080
2080
ENDCHAR
STARTCHAR uni4F36
ENCODING 20278
SWIDTH 1000 0
DWIDTH 14 0
BBX 13 14 1 -2
BITMAP
0880
0880
0940
1140
1220
37F0
5808
97F0
1090
1090
1090
10E0
1080
1080
ENDCHAR
STARTCHAR uni4F38
ENCODING 20280
SWIDTH 1000 0
DWIDTH 14 0
BBX 12 14 1 -2
BITMAP
1080
1080
17F0
2490
2490
67F0
A490
2490
27F0
2490
2080
2080
2080
2080
ENDCHAR
STARTCHAR uni4F3A
ENCODING 20282
SWIDTH 1000 0
DWIDTH 14 0
BBX 12 14 1 -2
BITMAP
1000
1FF0
1010
2FD0
2010
6790
A490
2490
2490
2790
2490
2010
2010
2030
ENDCHAR
STARTCHAR uni4F3C
ENCODING 20284
SWIDTH 1000 0
DWIDTH 14 0
BBX 13 14 1 -2
BITMAP
1020
1420
1620
2520
24A0
64A0
A420
2420
2420
2420
2560
2650
3888
2108
ENDCHAR
STARTCHAR uni4F3D
ENCODING 20285
SWIDTH 1000 0
DWIDTH 14 0
BBX 12 14 1 -2
BITMAP
1400
1400
1470
3F50
2550
6550
A550
2550
2550
2550
2950
2970
3350
2000
ENDCHAR
STARTCHAR uni4F43
ENCODING 20291
SWIDTH 1000 0
DWIDTH 14 0
BBX 12 14 1 -2
BITMAP
1000
17F0
1490
2490
2490
6490
A7F0
2490
2490
2490
2490
2490
27F0
2410
ENDCHAR
STARTCHAR uni4F46
ENCODING 20294
SWIDTH 1000 0
DWIDTH 14 0
BBX 13 14 1 -2
BITMAP
1000
17E0
1420
2420
2420
67E0
A420
2420
2420
27E0
2420
2000
3FF8
2000
ENDCHAR
STARTCHAR uni4F47
ENCODING 20295
SWIDTH 1000 0
DWIDTH 14 0
BBX 13 14 1 -2
BITMAP
1080
1080
17F8
2408
2410
6800
AFF8
2080
2080
2080
2080
2080
2080
2180
ENDCHAR
STARTCHAR uni4F4D
ENCODING 20301
SWIDTH 1000 0
DWIDTH 14 0
BBX 13 14 1 -2
BITMAP
1100
1100
1100
2100
3FF8
6020
A420
2220
2220
2240
2240
2080
3FF8
2000
ENDCHAR
STARTCHAR uni4F4E
ENCODING 20302
SWIDTH 1000 0
DWIDTH 14 0
BBX 13 14 1 -2
BITMAP
1030
17C0
1480
2480
2480
67F8
A440
2440
2440
2720
3828
2018
2FF8
2008
ENDCHAR
STARTCHAR uni4F4F
ENCODING 20303
SWIDTH 1000 0
DWIDTH 14 0
BBX 13 14 1 -2
BITMAP
1100
1080
1080
2FF8
2080
6080
A080
27F0
2080
2080
2080
2080
2FF8
2000
ENDCHAR
STARTCHAR uni4F50
ENCODING 20304
SWIDTH 1000 0
DWIDTH 14 0
BBX 13 14 1 -2
BITMAP
1100
1100
1100
2FF8
2100
6100
A100
23F0
2240
2440
2840
3040
27F8
2000
ENDCHAR
STARTCHAR uni4F51
ENCODING 20305
SWIDTH 1000 0
DWIDTH 14 0
BBX 13 14 1 -2
BITMAP
1100
1100
1100
2FF8
2200
6200
A400
27F0
2A10
3210
2210
2210
23F0
2210
ENDCHAR
STARTCHAR uni4F53
ENCODING 20307
SWIDTH 1000 0
DWIDTH 14 0
BBX 13 14 1 -2
BITMAP
1080
1080
1080
2080
2FF8
61C0
A1C0
22A0
22A0
2490
2BE8
2080
2080
2080
ENDCHAR
STARTCHAR uni4F55
ENCODING 20309
SWIDTH 1000 0
DWIDTH 14 0
BBX 13 14 1 -2
BITMAP
1000
1FF8
1010
2010
2790
6490
A490
2490
2790
2490
2010
2010
2010
2030
ENDCHAR
STARTCHAR uni4F57
ENCODING 20311
SWIDTH 1000 0
DWIDTH 14 0
BBX 13 14 1 -2
BITMAP
1080
1080
17F8
2408
2510
6900
A110
2120
21C0
2100
2100
2108
2108
20F8
ENDCHAR
STARTCHAR uni4F59
ENCODING 20313
SWIDTH 1000 0
DWIDTH 14 0
BBX 13 14 1 -2
BITMAP
0200
0200
0500
0880
3060
DFD8
0200
0200
7FF0
1240
1220
2210
4210
0600
ENDCHAR
STARTCHAR uni4F5A
ENCODING 20314
SWIDTH 1000 0
DWIDTH 14 0
BBX 13 14 1 -2
BITMAP
1080
1480
1480
2480
27F0
6880
B080
3FF8
2180
2140
2240
2420
2810
3008
ENDCHAR
STARTCHAR uni4F5B
ENCODING 20315
SWIDTH 1000 0
DWIDTH 14 0
BBX 13 14 1 -2
BITMAP
1140
1140
1FF0
2150
2150
6FF0
A940
2940
2FF8
2948
2248
2248
2470
2840
ENDCHAR
STARTCHAR uni4F5C
ENCODING 20316
SWIDTH 1000 0
DWIDTH 14 0
BBX 13 14 1 -2
BITMAP
1200
1200
1200
27F8
2500
6900
B1F0
2100
2100
21F0
2100
2100
2100
2100
ENDCHAR
STARTCHAR uni4F5D
ENCODING 20317
SWIDTH 1000 0
DWIDTH 14 0
BBX 12 14 1 -2
BITMAP
1200
1200
1200
27F0
2410
6810
A790
2490
2490
2490
2790
2410
2010
2060
ENDCHAR
STARTCHAR uni4F5E
ENCODING 20318
SWIDTH 1000 0
DWIDTH 14 0
BBX 13 14 1 -2
BITMAP
1000
17F0
1000
2000
2FF8
6100
A100
2FF8
2220
2220
27C0
2060
2190
2E08
ENDCHAR
STARTCHAR uni4F69
ENCODING 20329
SWIDTH 1000 0
DWIDTH 14 0
BBX 13 14 1 -2
BITMAP
1000
1FE0
1820
2820
2FE0
6920
AFE0
2D60
2D60
2D60
2DE8
3518
3118
2108
ENDCHAR
STARTCHAR uni4F6F
ENCODING 20335
SWIDTH 1000 0
DWIDTH 14 0
BBX 13 14 1 -2
BITMAP
1420
1220
1240
2FF8
2080
6080
A7F0
2080
2080
2FF8
2080
2080
2080
2080
ENDCHAR
STARTCHAR uni4F70
ENCODING 20336
SWIDTH 1000 0
DWIDTH 14 0
BBX 13 14 1 -2
BITMAP
1000
1FF8
1080
2100
27F0
6410
A410
2410
27F0
2410
2410
2410
27F0
2410
ENDCHAR
STARTCHAR uni4F73
ENCODING 20339
SWIDTH 1000 0
DWIDTH 14 0
BBX 13 14 1 -2
BITMAP
1080
1080
1080
27F0
2080
6080
AFF8
2080
2080
27F0
2080
2080
2FF8
2000
ENDCHAR
STARTCHAR uni4F75
ENCODING 20341
SWIDTH 1000 0
DWIDTH 14 0
BBX 13 14 1 -2
BITMAP
1420
1220
1240
2FF0
2240
6240
A240
3FF8
2240
2240
2440
2440
2840
3040
ENDCHAR
STARTCHAR uni4F76
ENCODING 20342
SWIDTH 1000 0
DWIDTH 14 0
BBX 13 14 1 -2
BITMAP
1080
1080
1080
3FF8
2080
6080
A7F0
2000
27F0
2410
2410
2410
27F0
2410
ENDCHAR
STARTCHAR uni4F7B
ENCODING 20347
SWIDTH 1000 0
DWIDTH 14 0
BBX 13 14 1 -2
BITMAP
1140
1140
1150
2950
2560
6540
A160
2350
2548
3948
2240
2248
2448
2838
ENDCHAR
STARTCHAR uni4F7C
ENCODING 20348
SWIDTH 1000 0
DWIDTH 14 0
BBX 13 14 1 -2
BITMAP
1080
1080
1FF8
2240
2220
6450
AA50
2240
2180
2180
2180
2240
2C20
3018
ENDCHAR
STARTCHAR uni4F7F
ENCODING 20351
SWIDTH 1000 0
DWIDTH 14 0
BBX 13 14 1 -2
BITMAP
1080
1080
1FF8
2080
27F0
6490
A490
27F0
2490
2280
2100
2180
2660
3818
ENDCHAR
STARTCHAR uni4F83
ENCODING 20355
SWIDTH 1000 0
DWIDTH 14 0
BBX 13 14 1 -2
BITMAP
1000
17F0
1410
2410
2410
67F0
A000
2520
2520
2520
2520
2928
2928
3018
ENDCHAR
STARTCHAR uni4F86
ENCODING 20358
SWIDTH 1000 0
DWIDTH 14 0
BBX 13 14 1 -2
BITMAP
0200
0200
FFF8
1240
1240
1A60
2690
4710
0700
0A80
3260
C218
0200
0200
ENDCHAR
STARTCHAR uni4F88
ENCODING 20360
SWIDTH 1000 0
DWIDTH 14 0
BBX 13 14 1 -2
BITMAP
1100
11F0
1210
2520
28C0
6080
A340
2CF8
2108
2690
2060
2040
2180
2E00
ENDCHAR
STARTCHAR uni4F8B
ENCODING 20363
SWIDTH 1000 0
DWIDTH 14 0
BBX 12 14 1 -2
BITMAP
1010
1FD0
1450
2450
2750
6950
A950
3550
2350
2250
2250
2410
2810
3030
ENDCHAR
STARTCHAR uni4F8D
ENCODING 20365
SWIDTH 1000 0
DWIDTH 14 0
BBX 13 14 1 -2
BITMAP
1080
1080
17F0
2080
2080
6FF8
A020
2020
2FF8
2420
2220
2220
2020
2060
ENDCHAR
STARTCHAR uni4F8F
ENCODING 20367
SWIDTH 1000 0
DWIDTH 14 0
BBX 13 14 1 -2
BITMAP
1080
1280
1280
27F0
2480
6880
BFF8
21C0
21C0
22A0
22A0
2490
2888
2080
ENDCHAR
STARTCHAR uni4F91
ENCODING 20369
SWIDTH 1000 0
DWIDTH 14 0
BBX 13 14 1 -2
BITMAP
1100
1100
1FF8
2100
2200
63F0
A610
2BF0
3210
23F0
2210
2210
2210
2230
ENDCHAR
STARTCHAR uni4F96
ENCODING 20374
SWIDTH 1000 0
DWIDTH 14 0
BBX 13 14 1 -2
BITMAP
0200
0200
0500
0880
3FE0
C018
3FE0
2520
2520
3FE0
2520
2520
2520
2560
ENDCHAR
STARTCHAR uni4F98
ENCODING 20376
SWIDTH 1000 0
DWIDTH 14 0
BBX 13 14 1 -2
BITMAP
1080
1080
17F8
2408
2430
68C0
A780
2080
20F8
2F80
2080
2088
2088
2078
ENDCHAR
STARTCHAR uni4F9B
ENCODING 20379
SWIDTH 1000 0
DWIDTH 14 0
BBX 13 14 1 -2
BITMAP
1240
1240
1240
2240
2FF0
6240
A240
2240
3FF8
2000
2240
2220
2410
2810
ENDCHAR
STARTCHAR uni4F9D
ENCODING 20381
SWIDTH 1000 0
DWIDTH 14 0
BBX 13 14 1 -2
BITMAP
1080
1080
1080
2FF8
2100
6190
A290
26A0
2A40
2240
2220
22A0
2310
2C08
ENDCHAR
STARTCHAR uni4FA0
ENCODING 20384
SWIDTH 1000 0
DWIDTH 14 0
BBX 13 14 1 -2
BITMAP
1080
1080
1080
2FF8
2490
6290
A2A0
3FF8
2080
2140
2140
2220
2410
2808
ENDCHAR
STARTCHAR uni4FA1
ENCODING 20385
SWIDTH 1000 0
DWIDTH 14 0
BBX 13 14 1 -2
BITMAP
1000
1FF8
1140
2140
2140
67F0
A550
2550
2550
2550
2550
2550
27F0
2410
ENDCHAR
STARTCHAR uni4FAB
ENCODING 20395
SWIDTH 1000 0
DWIDTH 14 0
BBX 13 14 1 -2
BITMAP
1080
1080
1FF8
2400
2400
63F0
A100
2FF8
2220
2220
27C0
2060
2190
2E08
ENDCHAR
STARTCHAR uni4FAD
ENCODING 20397
SWIDTH 1000 0
DWIDTH 14 0
BBX 13 14 1 -2
BITMAP
1000
17F0
1410
2410
27F0
6450
A440
2520
28A0
2890
3008
2300
20C0
2020
ENDCHAR
STARTCHAR uni4FAE
ENCODING 20398
SWIDTH 1000 0
DWIDTH 14 0
BBX 13 14 1 -2
BITMAP
1200
1200
13F8
2400
27E0
6AA0
A2A0
3FF8
24A0
24A0
2FF8
2820
2020
20C0
ENDCHAR
STARTCHAR uni4FAF
ENCODING 20399
SWIDTH 1000 0
DWIDTH 14 0
BBX 13 14 1 -2
BITMAP
13E0
1020
1020
2FF8
2200
6200
A3F0
2480
2880
2FF8
20C0
2120
2610
3808
ENDCHAR
STARTCHAR uni4FB5
ENCODING 20405
SWIDTH 1000 0
DWIDTH 14 0
BBX 13 14 1 -2
BITMAP
1000
17E0
1020
27E0
2020
67E0
A000
2FF8
2810
37E0
2240
2180
2660
3818
ENDCHAR
STARTCHAR uni4FB6
ENCODING 20406
SWIDTH 1000 0
DWIDTH 14 0
BBX 12 14 1 -2
BITMAP
1000
17E0
1420
2420
2420
67E0
A100
2200
2FF0
2810
2810
2810
2FF0
2810
ENDCHAR
STARTCHAR uni4FBF
ENCODING 20415
SWIDTH 1000 0
DWIDTH 14 0
BBX 13 14 1 -2
BITMAP
1000
1FF8
1080
27F0
2490
67F0
A490
27F0
2490
2280
2100
2180
2260
2C18
ENDCHAR
STARTCHAR uni4FC2
ENCODING 20418
SWIDTH 1000 0
DWIDTH 14 0
BBX 13 14 1 -2
BITMAP
1030
11C0
1F20
2120
2640
61A0
A130
23C8
2E80
20A0
2490
2488
2888
2080
ENDCHAR
STARTCHAR uni4FC3
ENCODING 20419
SWIDTH 1000 0
DWIDTH 14 0
BBX 13 14 1 -2
BITMAP
1000
17F0
1410
2410
27F0
6490
A080
2480
24F0
2480
2480
2680
2980
3078
ENDCHAR
STARTCHAR uni4FC4
ENCODING 20420
SWIDTH 1000 0
DWIDTH 14 0
BBX 13 14 1 -2
BITMAP
10C0
1350
1E48
2248
2240
7FF8
A240
2350
2250
2620
3A20
2268
2698
2208
ENDCHAR
STARTCHAR uni4FCA
ENCODING 20426
SWIDTH 1000 0
DWIDTH 14 0
BBX 13 14 1 -2
BITMAP
1100
1120
1230
2FC8
2240
6248
A538
29E0
2220
2640
2980
2180
2660
3818
ENDCHAR
STARTCHAR uni4FCE
ENCODING 20430
SWIDTH 1000 0
DWIDTH 14 0
BBX 13 13 1 -1
BITMAP
2000
23E0
2220
3220
4A20
4BE0
A220
2220
33E0
2A20
4A20
4220
9FF8
ENDCHAR
STARTCHAR uni4FD0
ENCODING 20432
SWIDTH 1000 0
DWIDTH 14 0
BBX 12 14 1 -2
BITMAP
1090
1350
1E50
2250
2250
7FD0
A250
2650
2750
2AD0
2AD0
3210
2210
2230
ENDCHAR
STARTCHAR uni4FD1
ENCODING 20433
SWIDTH 1000 0
DWIDTH 14 0
BBX 12 14 1 -2
BITMAP
1000
17F0
1120
20C0
27F0
6490
A490
27F0
2490
2490
27F0
2490
2490
24B0
ENDCHAR
STARTCHAR uni4FD4
ENCODING 20436
SWIDTH 1000 0
DWIDTH 14 0
BBX 13 14 1 -2
BITMAP
1000
17F0
1410
27F0
2410
67F0
A410
27F0
2550
2140
2240
2248
2448
2838
ENDCHAR
STARTCHAR uni4FD7
ENCODING 20439
SWIDTH 1000 0
DWIDTH 14 0
BBX 13 14 1 -2
BITMAP
1240
1220
1410
2910
2100
6280
A240
2420
2FF0
3428
2420
2420
27E0
2420
ENDCHAR
STARTCHAR uni4FD8
ENCODING 20440
SWIDTH 1000 0
DWIDTH 14 0
BBX 13 14 1 -2
BITMAP
1010
1060
17A0
2490
2488
6808
A7F0
2060
2080
2FF8
2080
2080
2080
2180
ENDCHAR
STARTCHAR uni4FDA
ENCODING 20442
SWIDTH 1000 0
DWIDTH 14 0
BBX 13 14 1 -2
BITMAP
1000
17F0
1490
2490
27F0
6490
A490
27F0
2080
27F0
2080
2080
2FF8
2000
ENDCHAR
STARTCHAR uni4FDB
ENCODING 20443
SWIDTH 1000 0
DWIDTH 14 0
BBX 13 14 1 -2
BITMAP
1100
11E0
1240
2480
2FF0
6490
A490
27F0
24D0
2140
2140
2248
2448
2838
ENDCHAR
STARTCHAR uni4FDD
ENCODING 20445
SWIDTH 1000 0
DWIDTH 14 0
BBX 13 14 1 -2
BITMAP
1000
17F0
1410
2410
27F0
6490
A080
2FF8
21C0
22A0
2490
2888
2080
2080
ENDCHAR
STARTCHAR uni4FDF
ENCODING 20447
SWIDTH 1000 0
DWIDTH 14 0
BBX 13 14 1 -2
BITMAP
1100
1140
1120
2270
2F90
6200
A3F0
2480
2880
3FF8
2080
2140
2220
2C18
ENDCHAR
STARTCHAR uni4FE1
ENCODING 20449
SWIDTH 1000 0
DWIDTH 14 0
BBX 13 14 1 -2
BITMAP
1000
13E0
1000
2FF8
2000
67F0
A000
27F0
2000
27F0
2410
2410
27F0
2410
ENDCHAR
STARTCHAR uni4FE3
ENCODING 20451
SWIDTH 1000 0
DWIDTH 14 0
BBX 13 14 1 -2
BITMAP
1000
17F0
1410
2410
27F0
6000
A7F0
2080
2080
2FF8
20C0
2120
2610
3808
ENDCHAR
STARTCHAR uni4FE4
ENCODING 20452
SWIDTH 1000 0
DWIDTH 14 0
BBX 13 14 1 -2
BITMAP
1220
1120
1140
27F0
2090
67F0
A480
27F8
2588
2188
2288
24B0
2880
2080
ENDCHAR
STARTCHAR uni4FE5
ENCODING 20453
SWIDTH 1000 0
DWIDTH 14 0
BBX 13 14 1 -2
BITMAP
1080
1080
1FF8
2080
27F0
6490
A7F0
2490
27F0
2080
2FF8
2080
2080
2080
ENDCHAR
STARTCHAR uni4FEE
ENCODING 20462
SWIDTH 1000 0
DWIDTH 14 0
BBX 13 14 1 -2
BITMAP
1100
1100
19F8
2A20
2D40
69C0
AE78
2880
2B20
28C0
2B10
2820
20C0
2700
ENDCHAR
STARTCHAR uni4FEF
ENCODING 20463
SWIDTH 1000 0
DWIDTH 14 0
BBX 13 14 1 -2
BITMAP
1080
1080
1FF8
2910
2910
6910
ABF8
2A90
2E50
2A50
2A10
3210
3210
2230
ENDCHAR
STARTCHAR uni4FF3
ENCODING 20467
SWIDTH 1000 0
DWIDTH 14 0
BBX 13 14 1 -2
BITMAP
1140
1140
1140
2F78
2140
6140
AF78
2140
2140
2F78
2140
2240
2440
2840
ENDCHAR
STARTCHAR uni4FF5
ENCODING 20469
SWIDTH 1000 0
DWIDTH 14 0
BBX 13 14 1 -2
BITMAP
1080
1080
1FF8
2080
27F0
6080
AFF8
2180
2290
2660
2A40
22A0
2310
2C08
ENDCHAR
STARTCHAR uni4FF6
ENCODING 20470
SWIDTH 1000 0
DWIDTH 14 0
BBX 13 14 1 -2
BITMAP
1400
1400
14F0
2710
2490
6490
BF90
2450
2660
2D20
2D60
3450
2490
2D08
ENDCHAR
STARTCHAR uni4FF8
ENCODING 20472
SWIDTH 1000 0
DWIDTH 14 0
BBX 13 14 1 -2
BITMAP
1080
1080
17F0
2080
27F0
6140
AFF8
22A0
27F0
2888
27F0
2080
2080
2080
ENDCHAR
STARTCHAR uni4FFA
ENCODING 20474
SWIDTH 1000 0
DWIDTH 14 0
BBX 13 14 1 -2
BITMAP
1100
1100
1FF0
2280
2540
6930
BFE8
2920
2FE0
2920
2FE0
2928
2108
20F8
ENDCHAR
STARTCHAR uni4FFE
ENCODING 20478
SWIDTH 1000 0
DWIDTH 14 0
BBX 13 14 1 -2
BITMAP
1080
1100
17F0
2490
27F0
6490
A7F0
2080
2140
2240
2FF8
2040
2040
2040
ENDCHAR
STARTCHAR uni5005
ENCODING 20485
SWIDTH 1000 0
DWIDTH 14 0
BBX 13 14 1 -2
BITMAP
1080
1080
1FF8
2220
2220
6260
A590
2890
2080
2FF8
2080
2080
2080
2080
ENDCHAR
STARTCHAR uni5006
ENCODING 20486
SWIDTH 1000 0
DWIDTH 14 0
BBX 13 14 1 -2
BITMAP
1000
1FF8
1080
2080
2FF8
6888
AEE8
2AA8
2AA8
2DD8
2998
2888
2888
2898
ENDCHAR
STARTCHAR uni5009
ENCODING 20489
SWIDTH 1000 0
DWIDTH 14 0
BBX 13 14 1 -2
BITMAP
0200
0500
0880
3FE0
C018
1FC0
1040
1FC0
1FC0
1000
3FE0
3020
5FE0
1020
ENDCHAR
STARTCHAR uni500B
ENCODING 20491
SWIDTH 1000 0
DWIDTH 14 0
BBX 12 14 1 -2
BITMAP
1000
1FF0
1910
2910
2FF0
6910
ABD0
2A50
2A50
2BD0
2A50
2810
2FF0
2810
ENDCHAR
STARTCHAR uni500D
ENCODING 20493
SWIDTH 1000 0
DWIDTH 14 0
BBX 13 14 1 -2
BITMAP
1080
1080
1FF8
2420
2220
6240
BFF8
2000
27F0
2410
2410
2410
27F0
2410
ENDCHAR
STARTCHAR uni500F
ENCODING 20495
SWIDTH 1000 0
DWIDTH 14 0
BBX 13 14 1 -2
BITMAP
1100
1100
11F0
2B20
2CC0
69C0
AE38
28A0
2890
2FF8
2880
2940
2220
2C18
ENDCHAR
STARTCHAR uni5011
ENCODING 20497
SWIDTH 1000 0
DWIDTH 14 0
BBX 13 14 1 -2
BITMAP
1000
1F78
1948
2F78
2948
6F78
A808
2808
2808
2808
2808
2808
2808
2818
ENDCHAR
STARTCHAR uni5012
ENCODING 20498
SWIDTH 1000 0
DWIDTH 14 0
BBX 12 14 1 -2
BITMAP
1010
1FD0
1250
2350
24D0
7FD0
A250
2250
2FD0
2250
2250
2390
3C10
2030
ENDCHAR
STARTCHAR uni5014
ENCODING 20500
SWIDTH 1000 0
DWIDTH 14 0
BBX 13 14 1 -2
BITMAP
1000
17F8
1408
27F8
2440
6550
A550
2550
25F0
2648
2A48
2A48
33F8
2208
ENDCHAR
STARTCHAR uni5016
ENCODING 20502
SWIDTH 1000 0
DWIDTH 14 0
BBX 13 14 1 -2
BITMAP
1080
1080
17F0
2080
2080
6FF8
A220
2240
2FF8
2080
2080
27F0
2080
2080
ENDCHAR
STARTCHAR uni5019
ENCODING 20505
SWIDTH 1000 0
DWIDTH 14 0
BBX 13 14 1 -2
BITMAP
13E0
1020
1820
2FF8
6900
A9F0
2A40
2C40
2FF8
28C0
28A0
2920
2210
2C08
ENDCHAR
STARTCHAR uni501A
ENCODING 20506
SWIDTH 1000 0
DWIDTH 14 0
BBX 13 14 1 -2
BITMAP
1080
1080
1FF8
2140
2220
6420
BFF8
2010
2790
2490
2490
2790
2410
2030
ENDCHAR
STARTCHAR uni501F
ENCODING 20511
SWIDTH 1000 0
DWIDTH 14 0
BBX 13 14 1 -2
BITMAP
1240
1240
1240
2FF0
2240
6240
BFF8
2000
27E0
2420
27E0
2420
27E0
2420
ENDCHAR
STARTCHAR uni5021
ENCODING 20513
SWIDTH 1000 0
DWIDTH 14 0
BBX 12 14 1 -2
BITMAP
1000
17E0
1420
27E0
2420
67E0
A420
2000
2FF0
2810
2FF0
2810
2FF0
2810
ENDCHAR
STARTCHAR uni5023
ENCODING 20515
SWIDTH 1000 0
DWIDTH 14 0
BBX 13 14 1 -2
BITMAP
1440
1440
1440
3F40
24F8
6490
A790
2550
2550
2560
2920
2960
3190
2608
ENDCHAR
STARTCHAR uni5024
ENCODING 20516
SWIDTH 1000 0
DWIDTH 14 0
BBX 13 14 1 -2
BITMAP
1080
1080
1FF8
2080
2BE0
6A20
ABE0
2A20
2BE0
2A20
2BE0
2800
2FF8
2800
ENDCHAR
STARTCHAR uni5025
ENCODING 20517
SWIDTH 1000 0
DWIDTH 14 0
BBX 13 14 1 -2
BITMAP
1080
1080
17F8
2548
2550
6948
A238
2400
27F0
2080
2080
2080
2FF8
2000
ENDCHAR
STARTCHAR uni5026
ENCODING 20518
SWIDTH 1000 0
DWIDTH 14 0
BBX 13 14 1 -2
BITMAP
1080
1490
12A0
27F0
2080
6FF8
A140
23E0
2450
2BC8
2240
2210
2210
21F0
ENDCHAR
STARTCHAR uni5028
ENCODING 20520
SWIDTH 1000 0
DWIDTH 14 0
BBX 13 14 1 -2
BITMAP
1000
17F0
1410
2410
27F0
6490
A480
27F8
2480
2BF0
2A10
3210
23F0
2210
ENDCHAR
STARTCHAR uni5029
ENCODING 20521
SWIDTH 1000 0
DWIDTH 14 0
BBX 13 14 1 -2
BITMAP
1080
17F0
1080
27F0
2080
6FF8
A000
27F0
2490
2490
27F0
2410
2410
2430
ENDCHAR
STARTCHAR uni502A
ENCODING 20522
SWIDTH 1000 0
DWIDTH 14 0
BBX 13 14 1 -2
BITMAP
1100
1670
1410
2410
2770
6410
A410
27F0
2550
2140
2240
2248
2448
2838
ENDCHAR
STARTCHAR uni502B
ENCODING 20523
SWIDTH 1000 0
DWIDTH 14 0
BBX 13 14 1 -2
BITMAP
1080
1080
1140
2220
27F0
6808
B7F0
2550
2550
27F0
2550
2550
2550
2430
ENDCHAR
STARTCHAR uni502C
ENCODING 20524
SWIDTH 1000 0
DWIDTH 14 0
BBX 13 14 1 -2
BITMAP
1080
1080
10F8
2080
27F0
6410
A7F0
2410
27F0
2080
2FF8
2080
2080
2080
ENDCHAR
STARTCHAR uni502D
ENCODING 20525
SWIDTH 1000 0
DWIDTH 14 0
BBX 13 14 1 -2
BITMAP
1030
17C0
1080
2FF8
21C0
62A0
A490
2080
2FF8
2120
23A0
2040
21A0
2E10
ENDCHAR
STARTCHAR uni5036
ENCODING 20534
SWIDTH 1000 0
DWIDTH 14 0
BBX 13 14 1 -2
BITMAP
1000
17E0
1420
2420
27E0
6420
A7E0
2420
27E0
2000
3FF8
2240
2420
3810
ENDCHAR
STARTCHAR uni5039
ENCODING 20537
SWIDTH 1000 0
DWIDTH 14 0
BBX 12 14 1 -2
BITMAP
1100
1100
1280
2440
2FE0
7110
AFE0
2920
2FE0
2920
2280
2240
2420
2810
ENDCHAR
STARTCHAR uni5043
ENCODING 20547
SWIDTH 1000 0
DWIDTH 14 0
BBX 13 14 1 -2
BITMAP
1000
1FF8
1BF0
2A10
2BF0
6A10
ABF0
2880
2FF8
2B20
28C0
2BB0
2FF8
2800
ENDCHAR
STARTCHAR uni5047
ENCODING 20551
SWIDTH 1000 0
DWIDTH 14 0
BBX 13 14 1 -2
BITMAP
1000
1F70
1910
2910
2F70
6910
A800
2EF0
2890
2850
2E60
2820
2850
2988
ENDCHAR
STARTCHAR uni5048
ENCODING 20552
SWIDTH 1000 0
DWIDTH 14 0
BBX 12 14 1 -2
BITMAP
1000
17E0
1420
27E0
2420
67E0
A400
27F0
2910
3990
2A50
2C10
2FD0
2860
ENDCHAR
STARTCHAR uni5049
ENCODING 20553
SWIDTH 1000 0
DWIDTH 14 0
BBX 13 14 1 -2
BITMAP
1080
17E0
1120
2FF8
2000
67E0
A420
27E0
2040
27F0
2440
3FF8
2040
2040
ENDCHAR
STARTCHAR uni504F
ENCODING 20559
SWIDTH 1000 0
DWIDTH 14 0
BBX 12 14 1 -2
BITMAP
1000
1FF0
1000
27E0
2420
67E0
A400
27F0
2D50
2D50
37F0
2550
2550
2430
ENDCHAR
STARTCHAR uni5050
ENCODING 20560
SWIDTH 1000 0
DWIDTH 14 0
BBX 13 14 1 -2
BITMAP
1080
1FF8
1120
20C0
2320
67F8
A420
24C0
2710
2460
2588
2810
2860
3380
ENDCHAR
STARTCHAR uni5055
ENCODING 20565
SWIDTH 1000 0
DWIDTH 14 0
BBX 13 14 1 -2
BITMAP
1440
1448
17D0
2460
2440
6748
BCB8
2100
27F0
2410
27F0
2410
27F0
2410
ENDCHAR
STARTCHAR uni5056
ENCODING 20566
SWIDTH 1000 0
DWIDTH 14 0
BBX 13 14 1 -2
BITMAP
1080
1080
17F0
2090
20A0
6FF8
A0C0
2120
27F0
3A10
23F0
2210
23F0
2210
ENDCHAR
STARTCHAR uni505A
ENCODING 20570
SWIDTH 1000 0
DWIDTH 14 0
BBX 13 14 1 -2
BITMAP
1040
1440
1440
2440
3FF8
6490
A590
2F50
2960
2920
2960
2F50
2890
2108
ENDCHAR
STARTCHAR uni505C
ENCODING 20572
SWIDTH 1000 0
DWIDTH 14 0
BBX 13 14 1 -2
BITMAP
1080
1FF8
1000
23E0
2220
63E0
A000
2FF8
2810
37F0
2080
2080
2080
2180
ENDCHAR
STARTCHAR uni5065
ENCODING 20581
SWIDTH 1000 0
DWIDTH 14 0
BBX 13 14 1 -2
BITMAP
1040
11F0
1C50
27F8
2450
69F0
BE40
23F0
2A40
2BF8
2440
2640
2980
3078
ENDCHAR
STARTCHAR uni506C
ENCODING 20588
SWIDTH 1000 0
DWIDTH 14 0
BBX 13 14 1 -2
BITMAP
1200
1200
17F0
2550
2B50
72D0
A4D0
2960
2100
22A0
2A90
2A08
3228
21E0
ENDCHAR
STARTCHAR uni5072
ENCODING 20594
SWIDTH 1000 0
DWIDTH 14 0
BBX 13 14 1 -2
BITMAP
1000
17F0
1490
2490
27F0
6490
A490
27F0
2080
2240
2A50
2A08
3228
21E0
ENDCHAR
STARTCHAR uni5074
ENCODING 20596
SWIDTH 1000 0
DWIDTH 14 0
BBX 12 14 1 -2
BITMAP
1010
1F50
1950
2950
2F50
6950
A950
2F50
2950
2950
2F50
2610
2910
3030
ENDCHAR
STARTCHAR uni5075
ENCODING 20597
SWIDTH 1000 0
DWIDTH 14 0
BBX 12 14 1 -2
BITMAP
1100
1100
11F0
2100
27E0
6420
A7E0
2420
27E0
2420
27E0
2240
2C20
3010
ENDCHAR
STARTCHAR uni5076
ENCODING 20598
SWIDTH 1000 0
DWIDTH 14 0
BBX 12 14 1 -2
BITMAP
1000
17E0
1520
27E0
2520
67E0
A100
2FF0
2950
29F0
2E30
2810
2810
2830
ENDCHAR
STARTCHAR uni5078
ENCODING 20600
SWIDTH 1000 0
DWIDTH 14 0
BBX 13 14 1 -2
BITMAP
1380
1080
1140
2220
2FF0
7008
AF50
2950
2D50
2BA0
2DA0
2B50
2950
2B50
ENDCHAR
STARTCHAR uni507D
ENCODING 20605
SWIDTH 1000 0
DWIDTH 14 0
BBX 13 14 1 -2
BITMAP
1480
1280
1280
2FE0
2120
6120
A3F0
2210
27F8
2AA8
3958
2508
2408
2030
ENDCHAR
STARTCHAR uni5080
ENCODING 20608
SWIDTH 1000 0
DWIDTH 14 0
BBX 13 14 1 -2
BITMAP
1080
1100
17F0
2490
27F0
6490
A7F0
2590
21A0
21A0
22D0
22F8
2488
2878
ENDCHAR
STARTCHAR uni5085
ENCODING 20613
SWIDTH 1000 0
DWIDTH 14 0
BBX 13 14 1 -2
BITMAP
10A0
1FF8
1080
27F0
2490
67F0
A490
27F0
24B0
2020
3FF8
2220
2120
2060
ENDCHAR
STARTCHAR uni508D
ENCODING 20621
SWIDTH 1000 0
DWIDTH 14 0
BBX 13 14 1 -2
BITMAP
1080
1080
1FF8
2220
2140
6FF8
A888
3FF8
2080
21F0
2110
2210
2C10
3060
ENDCHAR
STARTCHAR uni5091
ENCODING 20625
SWIDTH 1000 0
DWIDTH 14 0
BBX 13 14 1 -2
BITMAP
1210
1210
17F8
2550
2B50
62F8
A490
2890
3FF8
21C0
22A0
2490
2888
2080
ENDCHAR
STARTCHAR uni5098
ENCODING 20632
SWIDTH 1000 0
DWIDTH 14 0
BBX 13 14 1 -2
BITMAP
0200
0500
0A80
3260
D258
1240
2AA0
5750
1240
2AA0
4710
FFF8
0200
0200
ENDCHAR
STARTCHAR uni5099
ENCODING 20633
SWIDTH 1000 0
DWIDTH 14 0
BBX 13 14 1 -2
BITMAP
1240
1240
1FF0
2240
2FF8
6800
AFF0
2C90
2FF0
2C90
2FF0
3490
2490
2430
ENDCHAR
STARTCHAR uni509A
ENCODING 20634
SWIDTH 1000 0
DWIDTH 14 0
BBX 13 14 1 -2
BITMAP
1240
1240
1240
3FF8
2A90
6990
A950
3650
2260
2220
2520
2550
2890
3108
ENDCHAR
STARTCHAR uni50AC
ENCODING 20652
SWIDTH 1000 0
DWIDTH 14 0
BBX 13 14 1 -2
BITMAP
1080
1490
1490
27F0
2530
6240
A7F8
2C40
37F0
2440
27F0
2440
27F8
2400
ENDCHAR
STARTCHAR uni50AD
ENCODING 20653
SWIDTH 1000 0
DWIDTH 14 0
BBX 13 14 1 -2
BITMAP
2080
2FF8
2880
4FF0
4890
CFF8
4890
4FF0
4880
4FF0
5490
57F0
6490
44B0
ENDCHAR
STARTCHAR uni50B2
ENCODING 20658
SWIDTH 1000 0
DWIDTH 14 0
BBX 13 14 1 -2
BITMAP
1440
1440
1F40
24F8
3F90
6490
A550
3F50
2460
2720
2520
2950
2990
3308
ENDCHAR
STARTCHAR uni50B3
ENCODING 20659
SWIDTH 1000 0
DWIDTH 14 0
BBX 13 14 1 -2
BITMAP
1080
1FF8
1080
27F0
2490
67F0
A7F0
2090
2FF8
2020
3FF8
2420
2220
2060
ENDCHAR
STARTCHAR uni50B4
ENCODING 20660
SWIDTH 1000 0
DWIDTH 14 0
BBX 13 14 1 -2
BITMAP
1000
1FF8
1800
29E0
2920
69E0
A800
2BF0
2AD0
2AD0
2BF0
2800
2FF8
2800
ENDCHAR
STARTCHAR uni50B5
ENCODING 20661
SWIDTH 1000 0
DWIDTH 14 0
BBX 13 14 1 -2
BITMAP
1080
1FF0
1080
27F0
2080
7FF8
A420
27E0
2420
27E0
2420
27E0
2620
3810
ENDCHAR
STARTCHAR uni50B7
ENCODING 20663
SWIDTH 1000 0
DWIDTH 14 0
BBX 13 14 1 -2
BITMAP
1200
13F8
1620
2BE0
3220
63E0
A000
3FF8
2400
27F0
2950
3250
2490
2160
ENDCHAR
STARTCHAR uni50BE
ENCODING 20670
SWIDTH 1000 0
DWIDTH 14 0
BBX 13 14 1 -2
BITMAP
1000
13F8
1020
2840
2AF0
6A90
ACF0
2890
28F0
2A90
2AF0
2660
2090
2308
ENDCHAR
STARTCHAR uni50C2
ENCODING 20674
SWIDTH 1000 0
DWIDTH 14 0
BBX 13 14 1 -2
BITMAP
1080
17F0
1490
2FF8
2490
67F0
A7F0
2490
27F0
2100
3FF8
2320
20E0
2F10
ENDCHAR
STARTCHAR uni50C5
ENCODING 20677
SWIDTH 1000 0
DWIDTH 14 0
BBX 13 14 1 -2
BITMAP
1220
1220
1FF8
2220
27F0
6490
A7F0
2080
27F0
2080
27F0
2080
2FF8
2000
ENDCHAR
STARTCHAR uni50C9
ENCODING 20681
SWIDTH 1000 0
DWIDTH 14 0
BBX 13 14 1 -2
BITMAP
0200
0500
0880
3FE0
C018
3DE0
2520
2520
3DE0
1040
1840
24A0
4510
8210
ENDCHAR
STARTCHAR uni50CA
ENCODING 20682
SWIDTH 1000 0
DWIDTH 14 0
BBX 13 14 1 -2
BITMAP
1000
1FF8
1240
2FF0
2A50
6FF0
A100
3FF8
2240
2FF0
3448
27C0
2410
23F0
ENDCHAR
STARTCHAR uni50CD
ENCODING 20685
SWIDTH 1000 0
DWIDTH 14 0
BBX 12 14 1 -2
BITMAP
2340
3C40
2440
7FF0
5F50
D550
5F50
5550
5F50
4450
5F50
4450
4790
5930
ENDCHAR
STARTCHAR uni50CF
ENCODING 20687
SWIDTH 1000 0
DWIDTH 14 0
BBX 13 14 1 -2
BITMAP
1100
13E0
1C40
27F0
2490
67F0
A080
2310
2DA0
22C0
2D60
2250
2C48
2180
ENDCHAR
STARTCHAR uni50D1
ENCODING 20689
SWIDTH 1000 0
DWIDTH 14 0
BBX 13 14 1 -2
BITMAP
1060
1780
1100
3FF8
2240
67E0
AA50
33C8
2FF0
2810
2BD0
2A50
2BD0
2830
ENDCHAR
STARTCHAR uni50D5
ENCODING 20693
SWIDTH 1000 0
DWIDTH 14 0
BBX 13 14 1 -2
BITMAP
1140
1550
1360
2FF8
2220
6140
AFF8
2080
27F0
2080
2FF8
2140
2620
3818
ENDCHAR
STARTCHAR uni50D6
ENCODING 20694
SWIDTH 1000 0
DWIDTH 14 0
BBX 13 14 1 -2
BITMAP
1080
1FF8
1080
27F0
2000
67F0
A410
27F0
2220
3FF8
2000
27F0
2410
27F0
ENDCHAR
STARTCHAR uni50DA
ENCODING 20698
SWIDTH 1000 0
DWIDTH 14 0
BBX 13 14 1 -2
BITMAP
1080
1080
1FF8
2948
2630
67F0
AA28
23E0
2220
23E0
2490
2488
2888
2180
ENDCHAR
STARTCHAR uni50DE
ENCODING 20702
SWIDTH 1000 0
DWIDTH 14 0
BBX 13 14 1 -2
BITMAP
1030
1FE0
1490
2888
27E0
6420
A7F0
2410
27F8
24A8
2A58
2958
3508
2430
ENDCHAR
STARTCHAR uni50E3
ENCODING 20707
SWIDTH 1000 0
DWIDTH 14 0
BBX 13 14 1 -2
BITMAP
1240
1240
1FF0
2240
3FF8
6660
A560
2990
37E8
2420
27E0
2420
27E0
2420
ENDCHAR
STARTCHAR uni50E5
ENCODING 20709
SWIDTH 1000 0
DWIDTH 14 0
BBX 13 14 1 -2
BITMAP
1080
17F0
1080
2FF8
2220
6F78
A220
2378
2C00
2FF8
2140
2140
2248
2C38
ENDCHAR
STARTCHAR uni50E7
ENCODING 20711
SWIDTH 1000 0
DWIDTH 14 0
BBX 12 14 1 -2
BITMAP
1220
1140
17F0
2490
27F0
6490
A7F0
2000
23E0
2220
23E0
2220
23E0
2220
ENDCHAR
STARTCHAR uni50ED
ENCODING 20717
SWIDTH 1000 0
DWIDTH 14 0
BBX 13 14 1 -2
BITMAP
1220
1FF8
1AA0
2AA0
2FF8
6660
AB68
3298
27F0
2410
27F0
2410
27F0
2410
ENDCHAR
STARTCHAR uni50EE
ENCODING 20718
SWIDTH 1000 0
DWIDTH 14 0
BBX 13 14 1 -2
BITMAP
1080
1FF0
1240
3FF8
2000
67F0
A490
27F0
2490
27F0
2080
27F0
2080
2FF8
ENDCHAR
STARTCHAR uni50F5
ENCODING 20725
SWIDTH 1000 0
DWIDTH 14 0
BBX 13 14 1 -2
BITMAP
1000
1FF8
17F0
2490
27F0
6490
A7F0
2FF8
27F0
2490
27F0
2490
27F0
2FF8
ENDCHAR
STARTCHAR uni50F9
ENCODING 20729
SWIDTH 1000 0
DWIDTH 14 0
BBX 13 14 1 -2
BITMAP
1000
1FF8
1240
2FF0
2A50
6FF0
A420
27E0
2420
27E0
2420
27E0
2260
2C10
ENDCHAR
STARTCHAR uni50FB
ENCODING 20731
SWIDTH 1000 0
DWIDTH 14 0
BBX 13 14 1 -2
BITMAP
1020
1720
15F8
2550
2550
6750
A4F8
2420
2F20
2DF8
3520
2520
2720
2420
ENDCHAR
STARTCHAR uni5100
ENCODING 20736
SWIDTH 1000 0
DWIDTH 14 0
BBX 13 14 1 -2
BITMAP
1220
1140
1FF8
2080
27F0
6080
AFF8
2750
2248
3FF8
2350
2E20
22D8
2608
ENDCHAR
STARTCHAR uni5101
ENCODING 20737
SWIDTH 1000 0
DWIDTH 14 0
BBX 13 14 1 -2
BITMAP
1240
1240
17F8
2480
2FF0
7480
A7F0
2480
27F8
2000
2F78
2948
29C8
2818
ENDCHAR
STARTCHAR uni5102
ENCODING 20738
SWIDTH 1000 0
DWIDTH 14 0
BBX 13 14 1 -2
BITMAP
1140
17F0
1550
27F0
2550
67F0
A000
2FF0
29C0
2FF8
2A90
3260
33A0
2E18
ENDCHAR
STARTCHAR uni5104
ENCODING 20740
SWIDTH 1000 0
DWIDTH 14 0
BBX 13 14 1 -2
BITMAP
1080
17F0
1140
2FF8
2000
63E0
A220
23E0
2220
23E0
2A90
2A48
3228
21E0
ENDCHAR
STARTCHAR uni5109
ENCODING 20745
SWIDTH 1000 0
DWIDTH 14 0
BBX 13 14 1 -2
BITMAP
1080
1080
1140
2220
2FF8
6000
A770
2550
2550
2770
2220
2330
24C8
2888
ENDCHAR
STARTCHAR uni5112
ENCODING 20754
SWIDTH 1000 0
DWIDTH 14 0
BBX 13 14 1 -2
BITMAP
1000
1FF8
1080
2FF8
2EB0
76B0
A000
2FF8
2080
27F0
2550
2550
2550
2570
ENDCHAR
STARTCHAR uni5114
ENCODING 20756
SWIDTH 1000 0
DWIDTH 14 0
BBX 13 14 1 -2
BITMAP
1080
1FF8
1080
27F0
2000
6FF8
A7D0
2080
3FF8
2010
2FF8
2A90
2E50
2030
ENDCHAR
STARTCHAR uni5115
ENCODING 20757
SWIDTH 1000 0
DWIDTH 14 0
BBX 13 14 1 -2
BITMAP
2100
3FF8
2290
7D70
5550
D570
5DD0
6428
47E0
4420
47E0
4420
4820
5020
ENDCHAR
STARTCHAR uni5116
ENCODING 20758
SWIDTH 1000 0
DWIDTH 14 0
BBX 13 14 1 -2
BITMAP
1040
1FC0
1A40
2F78
2980
6F00
AA70
2F80
2000
27F0
2550
2550
3FF8
2000
ENDCHAR
STARTCHAR uni5118
ENCODING 20760
SWIDTH 1000 0
DWIDTH 14 0
BBX 13 14 1 -2
BITMAP
2100
2FE0
2120
5FF8
4FE0
C100
7FF8
5490
6248
4FE0
4AA0
4AA0
7FF8
4000
ENDCHAR
STARTCHAR uni511A
ENCODING 20762
SWIDTH 1000 0
DWIDTH 14 0
BBX 13 14 1 -2
BITMAP
1240
1FF8
1240
27F0
2550
67F0
A000
2FF8
2888
31F0
2720
20C0
2180
2E00
ENDCHAR
STARTCHAR uni511F
ENCODING 20767
SWIDTH 1000 0
DWIDTH 14 0
BBX 13 14 1 -2
BITMAP
1510
12A0
1FF8
2BD0
3240
63C0
A7E0
2420
27E0
27E0
2420
27E0
2620
3810
ENDCHAR
STARTCHAR uni5121
ENCODING 20769
SWIDTH 1000 0
DWIDTH 14 0
BBX 13 14 1 -2
BITMAP
1000
17F0
1490
27F0
2490
67F0
A410
2000
2FF8
2AA8
2FF8
2AA8
2FF8
2888
ENDCHAR
STARTCHAR uni512A
ENCODING 20778
SWIDTH 1000 0
DWIDTH 14 0
BBX 13 14 1 -2
BITMAP
1000
1FF8
1080
23E0
2220
63E0
A220
2FF8
2B50
35E8
2348
2C80
2360
3C18
ENDCHAR
STARTCHAR uni5132
ENCODING 20786
SWIDTH 1000 0
DWIDTH 14 0
BBX 13 14 1 -2
BITMAP
1040
1E40
11F0
3E50
2060
6FF8
A040
2EF0
2190
2EF0
2A90
2A90
2EF0
2A90
ENDCHAR
STARTCHAR uni5137
ENCODING 20791
SWIDTH 1000 0
DWIDTH 14 0
BBX 13 14 1 -2
BITMAP
1F78
1000
1F78
2B68
2080
6FF8
A940
2FF0
2950
2FF0
2BC8
3270
33C8
2E38
ENDCHAR
STARTCHAR uni513A
ENCODING 20794
SWIDTH 1000 0
DWIDTH 14 0
BBX 13 14 1 -2
BITMAP
2A50
3F50
2A50
2EF8
44A0
5FA0
D5F8
5FA0
44A0
5FF8
44A0
5FA0
4AF8
5180
ENDCHAR
STARTCHAR uni513B
ENCODING 20795
SWIDTH 1000 0
DWIDTH 14 0
BBX 13 14 1 -2
BITMAP
12A0
1FF8
1A30
23E0
27F0
66B0
A5D0
27F0
2080
27F0
2080
2FF8
2550
2948
ENDCHAR
STARTCHAR uni513C
ENCODING 20796
SWIDTH 1000 0
DWIDTH 14 0
BBX 13 14 1 -2
BITMAP
2770
2550
2770
4000
5FF8
D740
5240
5FF8
55D0
5750
5720
65A0
6F50
4188
ENDCHAR
STARTCHAR uni513F
ENCODING 20799
SWIDTH 1000 0
DWIDTH 14 0
BBX 13 14 1 -2
BITMAP
0880
0880
0880
0880
0880
0880
0880
0880
0880
1080
1080
2088
4088
8078
ENDCHAR
STARTCHAR uni5140
ENCODING 20800
SWIDTH 1000 0
DWIDTH 14 0
BBX 13 13 1 -2
BITMAP
FFF8
0880
0880
0880
0880
0880
0880
0880
1080
1080
2088
4088
8078
ENDCHAR
STARTCHAR uni5141
ENCODING 20801
SWIDTH 1000 0
DWIDTH 14 0
BBX 13 14 1 -2
BITMAP
0400
0480
0860
10D0
FF08
0900
0900
0900
1100
1100
2100
2108
4108
80F8
ENDCHAR
STARTCHAR uni5143
ENCODING 20803
SWIDTH 1000 0
DWIDTH 14 0
BBX 13 13 1 -2
BITMAP
3FE0
0000
0000
0000
FFF8
0900
0900
0900
1100
1108
2108
4108
80F8
ENDCHAR
STARTCHAR uni5144
ENCODING 20804
SWIDTH 1000 0
DWIDTH 14 0
BBX 12 13 1 -2
BITMAP
3FC0
2040
2040
2040
3FC0
2A40
0A00
0A00
1200
1210
2210
4210
81F0
ENDCHAR
STARTCHAR uni5145
ENCODING 20805
SWIDTH 1000 0
DWIDTH 14 0
BBX 13 14 1 -2
BITMAP
0200
0200
FFF8
0480
0440
08E0
7F10
0480
0480
0880
0880
1088
2088
C078
ENDCHAR
STARTCHAR uni5146
ENCODING 20806
SWIDTH 1000 0
DWIDTH 14 0
BBX 13 14 1 -2
BITMAP
0900
0900
0920
4920
2940
2980
0900
0D40
1920
F120
1100
2108
4108
80F8
ENDCHAR
STARTCHAR uni5147
ENCODING 20807
SWIDTH 1000 0
DWIDTH 14 0
BBX 13 14 1 -2
BITMAP
0100
4120
5A20
4620
4520
4920
5020
7FE0
4920
0900
1100
1108
2108
C0F8
ENDCHAR
STARTCHAR uni5148
ENCODING 20808
SWIDTH 1000 0
DWIDTH 14 0
BBX 13 14 1 -2
BITMAP
0200
1200
1200
1FE0
2200
4200
FFF8
0500
0500
0900
0900
1108
2108
C0F8
ENDCHAR
STARTCHAR uni5149
ENCODING 20809
SWIDTH 1000 0
DWIDTH 14 0
BBX 13 14 1 -2
BITMAP
0200
0200
2220
1220
1240
0200
FFF8
0900
0900
0900
1100
1108
2108
C0F8
ENDCHAR
STARTCHAR uni514B
ENCODING 20811
SWIDTH 1000 0
DWIDTH 14 0
BBX 13 14 1 -2
BITMAP
0200
0200
FFF8
0200
3FE0
2020
2020
3FE0
2520
0500
0500
0908
3108
C0F8
ENDCHAR
STARTCHAR uni514C
ENCODING 20812
SWIDTH 1000 0
DWIDTH 14 0
BBX 13 14 1 -2
BITMAP
0380
0880
1040
2020
DFD8
1040
1040
1040
1FC0
0500
0500
0908
1108
60F8
ENDCHAR
STARTCHAR uni514D
ENCODING 20813
SWIDTH 1000 0
DWIDTH 14 0
BBX 13 14 1 -2
BITMAP
0800
0F80
1100
2200
FFE0
2220
2220
3FE0
2520
0500
0900
1108
2108
C0F8
ENDCHAR
STARTCHAR uni514E
ENCODING 20814
SWIDTH 1000 0
DWIDTH 14 0
BBX 13 14 1 -2
BITMAP
0060
0180
7E00
0200
3FE0
2220
2220
3FE0
2620
0680
0A40
1248
2208
C1F8
ENDCHAR
STARTCHAR uni5150
ENCODING 20816
SWIDTH 1000 0
DWIDTH 14 0
BBX 13 13 1 -2
BITMAP
27E0
2420
2420
27E0
2420
2420
27E0
2520
0900
0900
1108
2108
C0F8
ENDCHAR
STARTCHAR uni5152
ENCODING 20818
SWIDTH 1000 0
DWIDTH 14 0
BBX 13 14 1 -2
BITMAP
0400
79F0
4010
4010
7DF0
4010
4010
7FF0
4910
0900
0900
1108
2108
C0F8
ENDCHAR
STARTCHAR uni5154
ENCODING 20820
SWIDTH 1000 0
DWIDTH 14 0
BBX 13 14 1 -2
BITMAP
0400
07C0
0880
3100
FFE0
2220
2220
3FE0
2620
0680
0A40
1248
2208
C1F8
ENDCHAR
STARTCHAR uni515A
ENCODING 20826
SWIDTH 1000 0
DWIDTH 14 0
BBX 13 14 1 -2
BITMAP
0200
2220
1240
7FF8
4010
9FC0
1040
1040
1FC0
0500
0500
0908
3108
C0F8
ENDCHAR
STARTCHAR uni515C
ENCODING 20828
SWIDTH 1000 0
DWIDTH 14 0
BBX 13 14 1 -2
BITMAP
0100
1200
6FF0
4890
4F90
4890
6FB0
4010
0900
0900
0900
1108
2108
C0F8
ENDCHAR
STARTCHAR uni5162
ENCODING 20834
SWIDTH 1000 0
DWIDTH 14 0
BBX 13 14 1 -2
BITMAP
1040
1040
FFF8
1040
7DF0
4510
4510
7DF0
28A0
28A0
2AA0
4D28
5928
8218
ENDCHAR
STARTCHAR uni5165
ENCODING 20837
SWIDTH 1000 0
DWIDTH 14 0
BBX 13 14 1 -2
BITMAP
1E00
0200
0200
0200
0200
0200
0700
0500
0880
0880
1040
2020
4010
8008
ENDCHAR
STARTCHAR uni5168
ENCODING 20840
SWIDTH 1000 0
DWIDTH 14 0
BBX 13 13 1 -1
BITMAP
0200
0200
0500
0880
3060
C018
3FE0
0200
0200
1FC0
0200
0200
FFF8
ENDCHAR
STARTCHAR uni5169
ENCODING 20841
SWIDTH 1000 0
DWIDTH 14 0
BBX 13 13 1 -2
BITMAP
FFF8
0200
0200
7FF0
4210
5AD0
4A50
4A50
56B0
6730
4210
4210
4230
ENDCHAR
STARTCHAR uni516A
ENCODING 20842
SWIDTH 1000 0
DWIDTH 14 0
BBX 13 14 1 -2
BITMAP
0E00
0500
0880
3060
DFD8
0000
7C90
4490
7520
4E40
7520
4D20
4490
4C90
ENDCHAR
STARTCHAR uni516B
ENCODING 20843
SWIDTH 1000 0
DWIDTH 14 0
BBX 13 14 1 -2
BITMAP
0F80
0080
0080
0880
0880
0880
0880
1040
1040
1040
2020
2020
4010
8008
ENDCHAR
STARTCHAR uni516C
ENCODING 20844
SWIDTH 1000 0
DWIDTH 14 0
BBX 13 14 1 -2
BITMAP
0380
0880
0840
1040
1020
2210
4208
8200
0480
0440
0420
08E0
7F10
0010
ENDCHAR
STARTCHAR uni516D
ENCODING 20845
SWIDTH 1000 0
DWIDTH 14 0
BBX 13 13 1 -1
BITMAP
0200
0200
0200
FFF8
0000
0000
0880
0840
1020
1020
2010
4010
8010
ENDCHAR
STARTCHAR uni516E
ENCODING 20846
SWIDTH 1000 0
DWIDTH 14 0
BBX 13 14 1 -2
BITMAP
0380
0880
1040
2020
DFD8
0800
0800
0FC0
1040
1040
0040
0080
0080
0300
ENDCHAR
STARTCHAR uni5171
ENCODING 20849
SWIDTH 1000 0
DWIDTH 14 0
BBX 13 14 1 -2
BITMAP
0880
0880
0880
0880
7FF0
0880
0880
0880
FFF8
0000
0880
0840
1020
6020
ENDCHAR
STARTCHAR uni5175
ENCODING 20853
SWIDTH 1000 0
DWIDTH 14 0
BBX 13 14 1 -2
BITMAP
01C0
1E00
1000
1000
1FF0
1080
1080
1080
1080
FFF8
0000
0880
3060
C010
ENDCHAR
STARTCHAR uni5176
ENCODING 20854
SWIDTH 1000 0
DWIDTH 14 0
BBX 13 14 1 -2
BITMAP
0880
0880
7FF0
0880
0F80
0880
0F80
0880
0880
FFF8
0000
0880
3060
C010
ENDCHAR
STARTCHAR uni5177
ENCODING 20855
SWIDTH 1000 0
DWIDTH 14 0
BBX 13 13 1 -2
BITMAP
1FC0
1040
1040
1FC0
1040
1FC0
1040
1FC0
0000
FFF8
08C0
3020
C010
ENDCHAR
STARTCHAR uni5178
ENCODING 20856
SWIDTH 1000 0
DWIDTH 14 0
BBX 13 14 1 -2
BITMAP
0500
0500
0500
3FE0
2520
2520
3FE0
2520
2520
FFF8
0000
0880
3060
C010
ENDCHAR
STARTCHAR uni517C
ENCODING 20860
SWIDTH 1000 0
DWIDTH 14 0
BBX 13 14 1 -2
BITMAP
1040
0880
FFF8
0900
7FE0
0920
FFF8
0920
7FE0
0980
3960
C918
0900
0900
ENDCHAR
STARTCHAR uni5180
ENCODING 20864
SWIDTH 1000 0
DWIDTH 14 0
BBX 13 14 1 -2
BITMAP
0890
78E0
0888
3FF8
D240
1FC0
1240
1FC0
0880
7FF0
0880
FFF8
1040
6020
ENDCHAR
STARTCHAR uni5182
ENCODING 20866
SWIDTH 1000 0
DWIDTH 14 0
BBX 11 13 2 -2
BITMAP
FFE0
8020
8020
8020
8020
8020
8020
8020
8020
8020
8020
8020
8060
ENDCHAR
STARTCHAR uni5185
ENCODING 20869
SWIDTH 1000 0
DWIDTH 14 0
BBX 11 14 2 -2
BITMAP
0400
0400
0400
FFE0
8420
8420
8A20
8920
90A0
A0A0
8020
8020
8020
8060
ENDCHAR
STARTCHAR uni5186
ENCODING 20870
SWIDTH 1000 0
DWIDTH 14 0
BBX 11 13 2 -2
BITMAP
FFE0
8420
8420
8420
8420
8420
FFE0
8020
8020
8020
8020
8020
8060
ENDCHAR
STARTCHAR uni5189
ENCODING 20873
SWIDTH 1000 0
DWIDTH 14 0
BBX 13 14 1 -2
BITMAP
0200
0200
0200
3FE0
2220
2220
3FE0
2220
2220
FFF8
2020
2020
2020
2060
ENDCHAR
STARTCHAR uni518A
ENCODING 20874
SWIDTH 1000 0
DWIDTH 14 0
BBX 13 13 1 -2
BITMAP
3FE0
2520
2520
2520
2520
2520
FFF8
2520
2520
2520
2520
2520
2060
ENDCHAR
STARTCHAR uni518C
ENCODING 20876
SWIDTH 1000 0
DWIDTH 14 0
BBX 13 13 1 -2
BITMAP
3CF0
2490
2490
2490
2490
FFF8
2490
2490
2490
2490
4510
4510
8E30
ENDCHAR
STARTCHAR uni518D
ENCODING 20877
SWIDTH 1000 0
DWIDTH 14 0
BBX 13 13 1 -2
BITMAP
7FF0
0200
3FE0
2220
2220
3FE0
2220
2220
FFF8
2020
2020
2020
2060
ENDCHAR
STARTCHAR uni518F
ENCODING 20879
SWIDTH 1000 0
DWIDTH 14 0
BBX 11 13 2 -2
BITMAP
FFE0
9220
9220
A260
A1E0
C020
9F20
9120
9120
9120
9F20
9120
8060
ENDCHAR
STARTCHAR uni5190
ENCODING 20880
SWIDTH 1000 0
DWIDTH 14 0
BBX 11 13 2 -2
BITMAP
FFE0
8020
FFA0
8020
FFA0
8020
7FC0
4040
7FC0
4040
7FC0
4040
40C0
ENDCHAR
STARTCHAR uni5191
ENCODING 20881
SWIDTH 1000 0
DWIDTH 14 0
BBX 11 14 2 -2
BITMAP
0400
FFE0
8420
FFE0
8420
FFE0
0000
7FC0
4040
5F40
4040
5F40
4040
40C0
ENDCHAR
STARTCHAR uni5192
ENCODING 20882
SWIDTH 1000 0
DWIDTH 14 0
BBX 11 13 2 -2
BITMAP
FFE0
8020
FFE0
8020
FFE0
BFA0
2080
3F80
2080
3F80
2080
3F80
2080
ENDCHAR
STARTCHAR uni5193
ENCODING 20883
SWIDTH 1000 0
DWIDTH 14 0
BBX 13 14 1 -2
BITMAP
0880
7FF0
0880
3FE0
0880
FFF8
0200
3FE0
2220
3FE0
2220
FFF8
2020
2060
ENDCHAR
STARTCHAR uni5195
ENCODING 20885
SWIDTH 1000 0
DWIDTH 14 0
BBX 13 13 1 -2
BITMAP
3FE0
2020
3FE0
2020
3FE0
0F80
3100
FFE0
2220
3FE0
0508
1908
E0F8
ENDCHAR
STARTCHAR uni5196
ENCODING 20886
SWIDTH 1000 0
DWIDTH 14 0
BBX 13 4 1 4
BITMAP
3FF8
2008
4010
8000
ENDCHAR
STARTCHAR uni5197
ENCODING 20887
SWIDTH 1000 0
DWIDTH 14 0
BBX 12 13 1 -2
BITMAP
7FF0
4020
8000
0F00
0900
0900
0900
0900
1100
1100
2110
4110
80F0
ENDCHAR
STARTCHAR uni5199
ENCODING 20889
SWIDTH 1000 0
DWIDTH 14 0
BBX 13 13 1 -2
BITMAP
7FF8
4810
8800
0FE0
0800
0F80
0880
0080
FFF8
0080
0080
0100
0600
ENDCHAR
STARTCHAR uni51A0
ENCODING 20896
SWIDTH 1000 0
DWIDTH 14 0
BBX 13 13 1 -2
BITMAP
7FF8
4010
FC20
0020
03F8
FE20
2920
2920
2820
2820
4868
4808
87F8
ENDCHAR
STARTCHAR uni51A2
ENCODING 20898
SWIDTH 1000 0
DWIDTH 14 0
BBX 13 13 1 -2
BITMAP
7FF8
4010
BFF0
0400
0C90
3290
D6A0
1940
6B40
0D20
1910
6108
0600
ENDCHAR
STARTCHAR uni51A4
ENCODING 20900
SWIDTH 1000 0
DWIDTH 14 0
BBX 13 13 1 -2
BITMAP
7FF8
4410
8F80
3100
FFE0
2220
2220
3FE0
2620
0680
0A48
3248
C1F8
ENDCHAR
STARTCHAR uni51A5
ENCODING 20901
SWIDTH 1000 0
DWIDTH 14 0
BBX 13 13 1 -2
BITMAP
7FF8
4010
9FC0
1040
1FC0
1040
1FC0
0200
FFF8
0000
0880
3060
C010
ENDCHAR
STARTCHAR uni51A6
ENCODING 20902
SWIDTH 1000 0
DWIDTH 14 0
BBX 13 13 1 -2
BITMAP
7FF8
4090
BC80
00F8
0080
FFF0
2910
28A0
2860
28D0
4B18
4808
87F8
ENDCHAR
STARTCHAR uni51A8
ENCODING 20904
SWIDTH 1000 0
DWIDTH 14 0
BBX 13 13 1 -2
BITMAP
7FF8
4010
BFE0
1FC0
1040
1FC0
0000
3FE0
2220
3FE0
2220
3FE0
2020
ENDCHAR
STARTCHAR uni51A9
ENCODING 20905
SWIDTH 1000 0
DWIDTH 14 0
BBX 13 13 1 -2
BITMAP
7FF8
4410
B9E0
2020
3DE0
2020
3FE0
0800
3FF0
D490
4A50
4A50
8060
ENDCHAR
STARTCHAR uni51AA
ENCODING 20906
SWIDTH 1000 0
DWIDTH 14 0
BBX 13 13 1 -2
BITMAP
7FF8
4890
FFF0
1FC0
1040
1FC0
1040
1FC0
FFF8
1240
3FE0
D258
12C0
ENDCHAR
STARTCHAR uni51AB
ENCODING 20907
SWIDTH 1000 0
DWIDTH 14 0
BBX 4 13 5 -2
BITMAP
80
40
20
20
00
00
00
10
20
40
40
80
80
ENDCHAR
STARTCHAR uni51AC
ENCODING 20908
SWIDTH 1000 0
DWIDTH 14 0
BBX 13 14 1 -2
BITMAP
0200
0200
07E0
1840
6480
0300
0680
1860
E618
0100
0000
0E00
0180
0040
ENDCHAR
STARTCHAR uni51B0
ENCODING 20912
SWIDTH 1000 0
DWIDTH 14 0
BBX 13 14 1 -2
BITMAP
0080
0080
4080
2088
2FC8
01D0
01E0
22C0
22A0
44A0
4890
9088
8080
0180
ENDCHAR
STARTCHAR uni51B1
ENCODING 20913
SWIDTH 1000 0
DWIDTH 14 0
BBX 13 12 1 -1
BITMAP
1FF8
4400
2400
27E0
0420
0420
2420
27E0
4420
4020
8020
BFF8
ENDCHAR
STARTCHAR uni51B2
ENCODING 20914
SWIDTH 1000 0
DWIDTH 14 0
BBX 12 14 1 -2
BITMAP
0080
0080
4080
27F0
2490
0490
0490
2490
27F0
4490
4080
8080
8080
0080
ENDCHAR
STARTCHAR uni51B3
ENCODING 20915
SWIDTH 1000 0
DWIDTH 14 0
BBX 13 14 1 -2
BITMAP
0100
0100
4100
2FE0
2120
0120
0120
3FF8
2180
4240
4240
8420
8810
1008
ENDCHAR
STARTCHAR uni51B4
ENCODING 20916
SWIDTH 1000 0
DWIDTH 14 0
BBX 13 13 1 -2
BITMAP
07F0
4220
2220
2220
0220
1FF8
2060
2060
40A0
4120
8620
9820
0060
ENDCHAR
STARTCHAR uni51B5
ENCODING 20917
SWIDTH 1000 0
DWIDTH 14 0
BBX 13 13 1 -2
BITMAP
07F0
4410
2410
2410
07F0
0550
2140
2140
4240
4240
8448
8848
1038
ENDCHAR
STARTCHAR uni51B6
ENCODING 20918
SWIDTH 1000 0
DWIDTH 14 0
BBX 13 14 1 -2
BITMAP
0100
0100
4100
2140
2220
0270
0F88
2000
27F0
4410
4410
8410
87F0
0410
ENDCHAR
STARTCHAR uni51B7
ENCODING 20919
SWIDTH 1000 0
DWIDTH 14 0
BBX 13 14 1 -2
BITMAP
0100
0100
4280
2240
2420
0BD0
1008
2FF0
2110
4110
4110
81E0
8100
0100
ENDCHAR
STARTCHAR uni51BD
ENCODING 20925
SWIDTH 1000 0
DWIDTH 14 0
BBX 12 14 1 -2
BITMAP
0010
1F90
4450
2450
2750
0950
0950
3550
2650
4250
4450
8410
8810
1030
ENDCHAR
STARTCHAR uni51C4
ENCODING 20932
SWIDTH 1000 0
DWIDTH 14 0
BBX 13 14 1 -2
BITMAP
0100
1FF8
8100
47E0
4120
1FF8
0120
27E0
2100
5FF8
4240
87C0
81A0
1E10
ENDCHAR
STARTCHAR uni51C5
ENCODING 20933
SWIDTH 1000 0
DWIDTH 14 0
BBX 12 13 1 -2
BITMAP
0FF0
4910
2910
2FF0
0910
0910
2BD0
2A50
4A50
4BD0
8810
8FF0
0810
ENDCHAR
STARTCHAR uni51C6
ENCODING 20934
SWIDTH 1000 0
DWIDTH 14 0
BBX 13 14 1 -2
BITMAP
0220
0220
4440
27F8
2C40
0C40
17F0
2440
2440
47F0
4440
8440
87F8
0400
ENDCHAR
STARTCHAR uni51C9
ENCODING 20937
SWIDTH 1000 0
DWIDTH 14 0
BBX 13 14 1 -2
BITMAP
0080
0080
4FF8
2000
27F0
0410
0410
27F0
2080
44A0
4490
8888
9088
0180
ENDCHAR
STARTCHAR uni51CB
ENCODING 20939
SWIDTH 1000 0
DWIDTH 14 0
BBX 12 13 1 -2
BITMAP
0FF0
8910
4910
4FD0
0910
2FF0
2810
4BD0
4A50
8BD0
9250
1010
2030
ENDCHAR
STARTCHAR uni51CC
ENCODING 20940
SWIDTH 1000 0
DWIDTH 14 0
BBX 13 14 1 -2
BITMAP
0080
0080
47F0
2080
2FF8
0140
2248
2D38
41E0
4220
8D40
8080
0360
1C18
ENDCHAR
STARTCHAR uni51CD
ENCODING 20941
SWIDTH 1000 0
DWIDTH 14 0
BBX 12 14 2 -2
BITMAP
0100
0100
9FF0
4100
4FE0
0920
2FE0
2920
4FE0
4380
8540
8920
B110
0100
ENDCHAR
STARTCHAR uni51D6
ENCODING 20950
SWIDTH 1000 0
DWIDTH 14 0
BBX 13 14 1 -2
BITMAP
0220
4240
27F0
2480
0FE0
3480
27E0
4480
47F0
0200
FFF8
0200
0200
0200
ENDCHAR
STARTCHAR uni51DB
ENCODING 20955
SWIDTH 1000 0
DWIDTH 14 0
BBX 13 14 1 -2
BITMAP
0080
0FF8
4000
27F0
25D0
0550
05D0
27F0
23E0
4000
4FF8
82A0
8490
0890
ENDCHAR
STARTCHAR uni51DC
ENCODING 20956
SWIDTH 1000 0
DWIDTH 14 0
BBX 13 14 1 -2
BITMAP
0080
0FF8
4000
27F0
25D0
0550
05D0
27F0
23E0
4080
4FF8
82A0
8490
0890
ENDCHAR
STARTCHAR uni51DD
ENCODING 20957
SWIDTH 1000 0
DWIDTH 14 0
BBX 13 14 1 -2
BITMAP
1000
13F8
9C10
5160
4F20
08F8
2F30
34A0
44B8
7FA0
8CA0
8AE0
9120
2218
ENDCHAR
STARTCHAR uni51E0
ENCODING 20960
SWIDTH 1000 0
DWIDTH 14 0
BBX 13 13 1 -2
BITMAP
0F80
0880
0880
0880
0880
0880
0880
0880
1080
1080
2088
4088
8078
ENDCHAR
STARTCHAR uni51E1
ENCODING 20961
SWIDTH 1000 0
DWIDTH 14 0
BBX 13 13 1 -2
BITMAP
1F80
1080
1080
1080
1480
1280
1280
1280
1080
2080
2088
4088
8078
ENDCHAR
STARTCHAR uni51E6
ENCODING 20966
SWIDTH 1000 0
DWIDTH 14 0
BBX 13 14 1 -2
BITMAP
1000
11E0
1120
1D20
2520
2520
6520
9520
1920
0928
1A28
2418
4300
80F8
ENDCHAR
STARTCHAR uni51E7
ENCODING 20967
SWIDTH 1000 0
DWIDTH 14 0
BBX 13 13 1 -2
BITMAP
3FE0
2220
2220
2FA0
2AA0
2AA0
2AA0
2AA0
2AA0
2BA8
4218
4218
8208
ENDCHAR
STARTCHAR uni51E9
ENCODING 20969
SWIDTH 1000 0
DWIDTH 14 0
BBX 13 13 1 -2
BITMAP
3FE0
2220
2220
2220
3FE0
2220
2720
26A0
2AA0
2A68
5258
6218
8208
ENDCHAR
STARTCHAR uni51EA
ENCODING 20970
SWIDTH 1000 0
DWIDTH 14 0
BBX 13 13 1 -2
BITMAP
3FE0
2020
2220
2220
2A20
2BA0
2A20
2A20
2A20
2A28
7FD8
4018
8008
ENDCHAR
STARTCHAR uni51ED
ENCODING 20973
SWIDTH 1000 0
DWIDTH 14 0
BBX 13 14 1 -2
BITMAP
1030
17C0
2080
2FF8
6080
A080
27F0
2000
0F80
0880
0880
1088
2088
4078
ENDCHAR
STARTCHAR uni51F0
ENCODING 20976
SWIDTH 1000 0
DWIDTH 14 0
BBX 13 13 1 -2
BITMAP
3FE0
2220
2FA0
28A0
2FA0
28A0
2FA0
2020
3FE0
2228
4F98
4218
9FC8
ENDCHAR
STARTCHAR uni51F1
ENCODING 20977
SWIDTH 1000 0
DWIDTH 14 0
BBX 13 14 1 -2
BITMAP
1000
55E0
5520
7D20
0120
FD20
0120
7D20
4520
7D20
4920
2928
3E28
C418
ENDCHAR
STARTCHAR uni51F5
ENCODING 20981
SWIDTH 1000 0
DWIDTH 14 0
BBX 11 14 2 -2
BITMAP
8020
8020
8020
8020
8020
8020
8020
8020
8020
8020
8020
8020
FFE0
8020
ENDCHAR
STARTCHAR uni51F6
ENCODING 20982
SWIDTH 1000 0
DWIDTH 14 0
BBX 12 14 1 -2
BITMAP
0080
0080
8090
B110
8D10
8210
8310
8490
8850
9050
A010
FFF0
8010
8010
ENDCHAR
STARTCHAR uni51F8
ENCODING 20984
SWIDTH 1000 0
DWIDTH 14 0
BBX 11 13 2 -2
BITMAP
1F00
1100
1100
1100
1100
F1E0
9120
8020
8020
8020
8020
FFE0
8020
ENDCHAR
STARTCHAR uni51F9
ENCODING 20985
SWIDTH 1000 0
DWIDTH 14 0
BBX 11 13 2 -2
BITMAP
F1E0
9120
9120
9120
9120
9120
9F20
9120
8020
8020
8020
FFE0
8020
ENDCHAR
STARTCHAR uni51FA
ENCODING 20986
SWIDTH 1000 0
DWIDTH 14 0
BBX 11 14 2 -2
BITMAP
0400
4440
4440
4440
4440
7FC0
4440
8420
8420
8420
8420
FFE0
8020
8020
ENDCHAR
STARTCHAR uni51FD
ENCODING 20989
SWIDTH 1000 0
DWIDTH 14 0
BBX 12 13 1 -2
BITMAP
7FE0
0400
8410
8E50
A250
9390
9690
8A50
B250
8610
8010
FFF0
8010
ENDCHAR
STARTCHAR uni51FE
ENCODING 20990
SWIDTH 1000 0
DWIDTH 14 0
BBX 12 14 1 -2
BITMAP
1FC0
0080
8110
8210
BBF0
AB30
AAD0
AA50
BAB0
AB30
8210
8C10
FFF0
8010
ENDCHAR
STARTCHAR uni5200
ENCODING 20992
SWIDTH 1000 0
DWIDTH 14 0
BBX 11 13 2 -2
BITMAP
FFE0
0420
0420
0420
0420
0820
0820
0820
1020
1020
2020
4020
80C0
ENDCHAR
STARTCHAR uni5203
ENCODING 20995
SWIDTH 1000 0
DWIDTH 14 0
BBX 12 13 1 -2
BITMAP
FFF0
0410
0410
0410
0410
3C10
0E10
0910
1090
1010
2010
4010
80E0
ENDCHAR
STARTCHAR uni5204
ENCODING 20996
SWIDTH 1000 0
DWIDTH 14 0
BBX 13 13 1 -2
BITMAP
FFE0
0420
0420
4420
2420
1420
0C20
0B20
08E0
1038
2020
4040
8380
ENDCHAR
STARTCHAR uni5206
ENCODING 20998
SWIDTH 1000 0
DWIDTH 14 0
BBX 13 14 1 -2
BITMAP
0F80
0080
1080
1040
2040
2020
7FD0
8448
0440
0440
0840
0840
1040
2180
ENDCHAR
STARTCHAR uni5207
ENCODING 20999
SWIDTH 1000 0
DWIDTH 14 0
BBX 12 14 1 -2
BITMAP
2000
23F0
2090
2690
3890
E090
2090
2090
2490
2510
1D10
0210
0C10
3060
ENDCHAR
STARTCHAR uni5208
ENCODING 21000
SWIDTH 1000 0
DWIDTH 14 0
BBX 12 14 1 -2
BITMAP
0410
0490
0490
4490
2490
1890
0890
0C90
1490
1290
2290
2010
4010
8030
ENDCHAR
STARTCHAR uni520A
ENCODING 21002
SWIDTH 1000 0
DWIDTH 14 0
BBX 12 14 1 -2
BITMAP
0010
FE90
1090
1090
1090
1090
FE90
1090
1090
1090
1090
1010
1010
1030
ENDCHAR
STARTCHAR uni520B
ENCODING 21003
SWIDTH 1000 0
DWIDTH 14 0
BBX 12 14 1 -2
BITMAP
0210
0C90
7890
0890
0890
0890
FF90
0890
0890
0890
1090
1010
2010
4030
ENDCHAR
STARTCHAR uni520E
ENCODING 21006
SWIDTH 1000 0
DWIDTH 14 0
BBX 12 14 1 -2
BITMAP
2010
2050
2050
3F50
5550
5550
9550
2550
2950
4950
1150
2210
0210
0C30
ENDCHAR
STARTCHAR uni5211
ENCODING 21009
SWIDTH 1000 0
DWIDTH 14 0
BBX 12 14 1 -2
BITMAP
0010
7F90
2490
2490
2490
2490
FF90
2490
2490
2490
2490
4410
4410
8430
ENDCHAR
STARTCHAR uni5214
ENCODING 21012
SWIDTH 1000 0
DWIDTH 14 0
BBX 12 14 1 -2
BITMAP
1010
1090
1090
7E90
1290
1290
1290
FF90
1090
1890
2490
2210
4210
8030
ENDCHAR
STARTCHAR uni5217
ENCODING 21015
SWIDTH 1000 0
DWIDTH 14 0
BBX 12 14 1 -2
BITMAP
0010
FE90
1090
1090
1C90
2490
2490
5490
8C90
0890
0890
1010
2010
4030
ENDCHAR
STARTCHAR uni521D
ENCODING 21021
SWIDTH 1000 0
DWIDTH 14 0
BBX 12 14 1 -2
BITMAP
1000
13F0
1090
FC90
0890
0A90
1290
3C90
5490
9290
1110
1110
1210
1460
ENDCHAR
STARTCHAR uni5224
ENCODING 21028
SWIDTH 1000 0
DWIDTH 14 0
BBX 12 14 1 -2
BITMAP
1010
9290
5290
5490
1090
FE90
1090
1090
FE90
1090
1090
1010
1010
1030
ENDCHAR
STARTCHAR uni5225
ENCODING 21029
SWIDTH 1000 0
DWIDTH 14 0
BBX 12 14 1 -2
BITMAP
0010
7E90
4290
4290
4290
7E90
5290
1090
1E90
1290
2290
2210
4210
8C30
ENDCHAR
STARTCHAR uni5227
ENCODING 21031
SWIDTH 1000 0
DWIDTH 14 0
BBX 12 14 1 -2
BITMAP
1000
13F0
1090
7C90
1090
1090
FE90
1090
1890
2490
2D10
F310
0210
0460
ENDCHAR
STARTCHAR uni5229
ENCODING 21033
SWIDTH 1000 0
DWIDTH 14 0
BBX 12 14 1 -2
BITMAP
0210
0C90
7890
0890
0890
FE90
1890
1C90
2A90
2A90
4890
8810
0810
0830
ENDCHAR
STARTCHAR uni522A
ENCODING 21034
SWIDTH 1000 0
DWIDTH 14 0
BBX 12 14 1 -2
BITMAP
0010
7F50
5550
5550
5550
5550
FFD0
5550
5550
5550
5550
5510
5510
4330
ENDCHAR
STARTCHAR uni522E
ENCODING 21038
SWIDTH 1000 0
DWIDTH 14 0
BBX 12 14 1 -2
BITMAP
0210
0C90
7890
0890
0890
FF90
0890
0890
7E90
4290
4290
4210
7E10
4030
ENDCHAR
STARTCHAR uni5230
ENCODING 21040
SWIDTH 1000 0
DWIDTH 14 0
BBX 12 14 1 -2
BITMAP
0010
FF90
1090
1890
2490
FA90
1290
1090
FE90
1090
1090
1E10
E010
0030
ENDCHAR
STARTCHAR uni5233
ENCODING 21043
SWIDTH 1000 0
DWIDTH 14 0
BBX 12 14 1 -2
BITMAP
1010
1090
FE90
2890
4490
BA90
0090
FE90
2090
3C90
4490
0410
0410
1830
ENDCHAR
STARTCHAR uni5236
ENCODING 21046
SWIDTH 1000 0
DWIDTH 14 0
BBX 12 14 1 -2
BITMAP
2810
2890
3E90
4890
8890
FF90
0890
7E90
4A90
4A90
4A90
4C90
4810
0830
ENDCHAR
STARTCHAR uni5237
ENCODING 21047
SWIDTH 1000 0
DWIDTH 14 0
BBX 12 14 1 -2
BITMAP
0010
7E90
4290
4290
7E90
4890
4890
7E90
6A90
AA90
AA90
2E10
2810
0830
ENDCHAR
STARTCHAR uni5238
ENCODING 21048
SWIDTH 1000 0
DWIDTH 14 0
BBX 13 14 1 -2
BITMAP
0200
2220
1240
7FF0
0500
FFF8
0880
3060
DFD8
0440
0440
0840
1040
6180
ENDCHAR
STARTCHAR uni5239
ENCODING 21049
SWIDTH 1000 0
DWIDTH 14 0
BBX 12 14 1 -2
BITMAP
0410
0490
7890
0C90
3290
C890
0890
FE90
1890
1C90
2A90
4A10
8810
0830
ENDCHAR
STARTCHAR uni523A
ENCODING 21050
SWIDTH 1000 0
DWIDTH 14 0
BBX 12 14 1 -2
BITMAP
0810
0890
FF90
0890
7E90
4A90
4A90
4E90
1890
1C90
2A90
4A10
8810
0830
ENDCHAR
STARTCHAR uni523B
ENCODING 21051
SWIDTH 1000 0
DWIDTH 14 0
BBX 12 14 1 -2
BITMAP
0810
0810
FF90
1090
1490
6490
1890
0A90
1290
2490
4C10
1210
2210
C030
ENDCHAR
STARTCHAR uni5243
ENCODING 21059
SWIDTH 1000 0
DWIDTH 14 0
BBX 12 14 1 -2
BITMAP
4410
2490
2890
FE90
1290
FE90
9090
FE90
B290
3290
5C90
9010
1010
1030
ENDCHAR
STARTCHAR uni5244
ENCODING 21060
SWIDTH 1000 0
DWIDTH 14 0
BBX 12 14 1 -2
BITMAP
0010
FE90
5490
5490
A890
A890
5490
5490
0090
FE90
1090
1010
1E10
F030
ENDCHAR
STARTCHAR uni5247
ENCODING 21063
SWIDTH 1000 0
DWIDTH 14 0
BBX 12 14 1 -2
BITMAP
0010
7C90
4490
4490
7C90
4490
7C90
4490
4490
7C90
2890
2410
4410
8030
ENDCHAR
STARTCHAR uni524A
ENCODING 21066
SWIDTH 1000 0
DWIDTH 14 0
BBX 12 14 1 -2
BITMAP
1010
9290
5290
5490
1090
7C90
4490
7C90
4490
7C90
4490
4410
4410
4C30
ENDCHAR
STARTCHAR uni524B
ENCODING 21067
SWIDTH 1000 0
DWIDTH 14 0
BBX 13 14 1 -2
BITMAP
1010
1090
1090
FE90
1090
7C90
4490
4490
7C90
2890
2810
2838
4808
87F8
ENDCHAR
STARTCHAR uni524C
ENCODING 21068
SWIDTH 1000 0
DWIDTH 14 0
BBX 12 14 1 -2
BITMAP
1010
1090
FE90
1090
FE90
9290
9290
FE90
9890
3490
3290
5210
9010
1030
ENDCHAR
STARTCHAR uni524D
ENCODING 21069
SWIDTH 1000 0
DWIDTH 14 0
BBX 13 14 1 -2
BITMAP
1040
0840
0880
FFF8
0000
7C90
4490
4490
7C90
4490
7C90
4490
4410
4C30
ENDCHAR
STARTCHAR uni524F
ENCODING 21071
SWIDTH 1000 0
DWIDTH 14 0
BBX 13 14 1 -2
BITMAP
4400
2400
2BF0
FC90
2890
2A90
2990
FE90
28D0
28B0
2918
4910
4A10
8C60
ENDCHAR
STARTCHAR uni5254
ENCODING 21076
SWIDTH 1000 0
DWIDTH 14 0
BBX 12 14 1 -2
BITMAP
0010
7E90
4290
7E90
4290
7E90
2090
3E90
5690
9690
2A90
4A10
1210
2C30
ENDCHAR
STARTCHAR uni5256
ENCODING 21078
SWIDTH 1000 0
DWIDTH 14 0
BBX 12 14 1 -2
BITMAP
0810
0890
7F90
2290
1290
1490
FF90
0090
3E90
2290
2290
2210
3E10
2230
ENDCHAR
STARTCHAR uni525B
ENCODING 21083
SWIDTH 1000 0
DWIDTH 14 0
BBX 11 14 2 -2
BITMAP
0020
FEA0
CAA0
AAA0
B2A0
FEA0
92A0
D6A0
D6A0
D6A0
FEA0
C620
8220
8660
ENDCHAR
STARTCHAR uni525E
ENCODING 21086
SWIDTH 1000 0
DWIDTH 14 0
BBX 12 14 1 -2
BITMAP
0810
0890
FF90
1890
2490
4490
FF90
0290
7A90
4A90
4A90
7A10
4210
0630
ENDCHAR
STARTCHAR uni5263
ENCODING 21091
SWIDTH 1000 0
DWIDTH 14 0
BBX 12 14 1 -2
BITMAP
0810
0810
1490
2290
FF90
0890
7E90
4A90
7E90
4890
1490
1210
2210
C030
ENDCHAR
STARTCHAR uni5264
ENCODING 21092
SWIDTH 1000 0
DWIDTH 14 0
BBX 12 14 1 -2
BITMAP
0810
0890
FF90
2290
1C90
3790
E290
3E90
2290
3E90
2290
2210
4210
8230
ENDCHAR
STARTCHAR uni5265
ENCODING 21093
SWIDTH 1000 0
DWIDTH 14 0
BBX 12 14 1 -2
BITMAP
0010
7C90
0490
7C90
0490
FF90
0890
4A90
2A90
2C90
3A90
C910
0810
1830
ENDCHAR
STARTCHAR uni5269
ENCODING 21097
SWIDTH 1000 0
DWIDTH 14 0
BBX 12 14 1 -2
BITMAP
0110
7E50
0850
FFD0
2A50
EBD0
2A50
6AD0
B9D0
1C50
2A50
4910
8910
0830
ENDCHAR
STARTCHAR uni526A
ENCODING 21098
SWIDTH 1000 0
DWIDTH 14 0
BBX 13 14 1 -2
BITMAP
1040
0880
FFF8
7C90
5490
6C90
5490
5490
4C30
0000
FFF0
0410
1810
E0E0
ENDCHAR
STARTCHAR uni526F
ENCODING 21103
SWIDTH 1000 0
DWIDTH 14 0
BBX 12 14 1 -2
BITMAP
0010
FE90
0090
7C90
4490
7C90
0090
FE90
9290
FE90
9290
9210
FE10
8230
ENDCHAR
STARTCHAR uni5270
ENCODING 21104
SWIDTH 1000 0
DWIDTH 14 0
BBX 12 14 1 -2
BITMAP
0210
3C50
0850
7F50
2A50
FFD0
2A50
2A50
7F50
1C50
2A50
4A10
8810
0830
ENDCHAR
STARTCHAR uni5271
ENCODING 21105
SWIDTH 1000 0
DWIDTH 14 0
BBX 13 14 1 -2
BITMAP
1000
13F0
2890
2490
7C90
9290
7D90
5490
54D0
7CB0
2918
2510
4610
8460
ENDCHAR
STARTCHAR uni5272
ENCODING 21106
SWIDTH 1000 0
DWIDTH 14 0
BBX 12 14 1 -2
BITMAP
1010
FE90
9290
FE90
1090
7C90
1090
FE90
0090
7C90
4490
4410
7C10
4430
ENDCHAR
STARTCHAR uni5273
ENCODING 21107
SWIDTH 1000 0
DWIDTH 14 0
BBX 12 14 1 -2
BITMAP
2410
2490
FF90
2490
2890
1490
2290
3F90
4090
BE90
2290
2210
3E10
2030
ENDCHAR
STARTCHAR uni5274
ENCODING 21108
SWIDTH 1000 0
DWIDTH 14 0
BBX 12 14 1 -2
BITMAP
1010
5490
5490
7C90
0090
FE90
0090
7C90
4490
7C90
4490
2810
3C10
E030
ENDCHAR
STARTCHAR uni5275
ENCODING 21109
SWIDTH 1000 0
DWIDTH 14 0
BBX 12 14 1 -2
BITMAP
0810
0C90
1290
2990
7E90
A290
3E90
2290
3E90
2090
7E90
6210
BE10
2230
ENDCHAR
STARTCHAR uni527D
ENCODING 21117
SWIDTH 1000 0
DWIDTH 14 0
BBX 12 14 1 -2
BITMAP
0010
FE90
2890
FE90
AA90
FE90
0090
7C90
0090
FE90
5490
5210
9210
3030
ENDCHAR
STARTCHAR uni527F
ENCODING 21119
SWIDTH 1000 0
DWIDTH 14 0
BBX 12 14 1 -2
BITMAP
4910
9250
4950
7F50
4950
7F50
4950
7F50
0850
FFD0
1C50
2A10
C910
0830
ENDCHAR
STARTCHAR uni5283
ENCODING 21123
SWIDTH 1000 0
DWIDTH 14 0
BBX 12 14 1 -2
BITMAP
1010
7E90
1290
FF90
1290
7E90
1090
FF90
5290
7E90
5290
7E10
0E10
F030
ENDCHAR
STARTCHAR uni5287
ENCODING 21127
SWIDTH 1000 0
DWIDTH 14 0
BBX 12 14 1 -2
BITMAP
0810
0F50
7FD0
4D50
7750
7F50
4D50
7950
4E50
7650
4D50
7510
8410
1830
ENDCHAR
STARTCHAR uni5288
ENCODING 21128
SWIDTH 1000 0
DWIDTH 14 0
BBX 13 14 1 -2
BITMAP
0040
7C40
45F0
7CA0
43F8
7C40
65F0
BC40
2040
7FF0
0210
0410
1810
60E0
ENDCHAR
STARTCHAR uni5289
ENCODING 21129
SWIDTH 1000 0
DWIDTH 14 0
BBX 13 14 1 -2
BITMAP
1008
6F48
6548
5548
7948
CB48
1448
3E48
C948
7F48
2A48
1C08
0F08
F018
ENDCHAR
STARTCHAR uni528D
ENCODING 21133
SWIDTH 1000 0
DWIDTH 14 0
BBX 12 14 1 -2
BITMAP
0810
0890
1490
2290
7E90
8090
7E90
5A90
7E90
2490
3490
2A10
4910
9130
ENDCHAR
STARTCHAR uni5291
ENCODING 21137
SWIDTH 1000 0
DWIDTH 14 0
BBX 12 14 1 -2
BITMAP
0810
FFD0
1550
FE50
5D50
5DD0
7ED0
A250
3E50
2250
3E50
2210
4210
8230
ENDCHAR
STARTCHAR uni5292
ENCODING 21138
SWIDTH 1000 0
DWIDTH 14 0
BBX 12 14 1 -2
BITMAP
0800
09F0
1450
2250
7ED0
80D0
7F50
5B50
7E50
2450
2490
5A90
4B10
9260
ENDCHAR
STARTCHAR uni5294
ENCODING 21140
SWIDTH 1000 0
DWIDTH 14 0
BBX 13 14 1 -2
BITMAP
0800
09F0
1450
2350
7F50
80D0
7ED0
5A50
7E70
2450
2498
5A90
4B10
9260
ENDCHAR
STARTCHAR uni529B
ENCODING 21147
SWIDTH 1000 0
DWIDTH 14 0
BBX 12 14 1 -2
BITMAP
0400
0400
0400
0400
FFF0
0410
0410
0410
0810
0810
1010
2010
4010
8060
ENDCHAR
STARTCHAR uni529F
ENCODING 21151
SWIDTH 1000 0
DWIDTH 14 0
BBX 12 14 1 -2
BITMAP
0100
0100
0100
F900
27F0
2110
2110
2110
2110
2A10
3210
C210
0410
0860
ENDCHAR
STARTCHAR uni52A0
ENCODING 21152
SWIDTH 1000 0
DWIDTH 14 0
BBX 13 14 1 -2
BITMAP
1000
1000
1000
10F8
FE88
1288
1288
1288
1288
1288
2288
22F8
4288
8C00
ENDCHAR
STARTCHAR uni52A3
ENCODING 21155
SWIDTH 1000 0
DWIDTH 14 0
BBX 13 14 1 -2
BITMAP
0200
1240
1220
2250
4688
0308
0D00
F100
1FF0
0210
0410
0810
3010
C060
ENDCHAR
STARTCHAR uni52A9
ENCODING 21161
SWIDTH 1000 0
DWIDTH 14 0
BBX 12 14 1 -2
BITMAP
0080
7880
4880
4FF0
7890
4890
4890
7890
4890
4890
4D10
7110
C210
0460
ENDCHAR
STARTCHAR uni52AA
ENCODING 21162
SWIDTH 1000 0
DWIDTH 14 0
BBX 13 14 1 -2
BITMAP
1000
13F0
FD10
2490
24A0
7840
0DA0
3218
C200
7FE0
0220
0420
1820
61C0
ENDCHAR
STARTCHAR uni52AB
ENCODING 21163
SWIDTH 1000 0
DWIDTH 14 0
BBX 12 14 1 -2
BITMAP
1080
1080
1080
7C80
13F0
1090
FE90
1090
1890
2490
2D10
F310
0210
0460
ENDCHAR
STARTCHAR uni52AC
ENCODING 21164
SWIDTH 1000 0
DWIDTH 14 0
BBX 12 14 1 -2
BITMAP
2080
2080
2080
3C80
47F0
4490
F490
5490
5490
5490
7510
4510
0610
1C60
ENDCHAR
STARTCHAR uni52AD
ENCODING 21165
SWIDTH 1000 0
DWIDTH 14 0
BBX 12 14 1 -2
BITMAP
0080
FC80
2480
2480
27F0
4490
9890
0090
7C90
4490
4510
4510
7E10
4460
ENDCHAR
STARTCHAR uni52B1
ENCODING 21169
SWIDTH 1000 0
DWIDTH 14 0
BBX 13 14 1 -2
BITMAP
0340
3C40
2040
2040
3FF8
2848
2848
2E48
2A48
2A48
2A88
5288
5308
AE30
ENDCHAR
STARTCHAR uni52B4
ENCODING 21172
SWIDTH 1000 0
DWIDTH 14 0
BBX 13 14 1 -2
BITMAP
2420
1220
1240
7FF8
4010
8200
0200
7FE0
0220
0420
0420
0820
3020
C0C0
ENDCHAR
STARTCHAR uni52B5
ENCODING 21173
SWIDTH 1000 0
DWIDTH 14 0
BBX 13 14 1 -2
BITMAP
0200
1240
1220
3FF0
4210
0500
FFF8
0C80
1440
3FE0
C458
0840
1040
2180
ENDCHAR
STARTCHAR uni52B9
ENCODING 21177
SWIDTH 1000 0
DWIDTH 14 0
BBX 12 14 1 -2
BITMAP
1080
1080
1080
FE80
29F0
2490
4690
A490
1890
0890
1510
2510
4210
8460
ENDCHAR
STARTCHAR uni52BC
ENCODING 21180
SWIDTH 1000 0
DWIDTH 14 0
BBX 12 14 1 -2
BITMAP
1080
1080
1080
FE80
13F0
1090
7C90
0090
7C90
4490
4510
4510
7E10
4460
ENDCHAR
STARTCHAR uni52BE
ENCODING 21182
SWIDTH 1000 0
DWIDTH 14 0
BBX 12 14 1 -2
BITMAP
1080
1080
FE80
2080
2BF0
C890
3090
1490
2490
4890
1910
2510
4210
8460
ENDCHAR
STARTCHAR uni52C1
ENCODING 21185
SWIDTH 1000 0
DWIDTH 14 0
BBX 12 14 1 -2
BITMAP
0080
FE80
5480
5480
ABF0
A890
5490
5490
0090
FE90
1090
1110
1D10
F260
ENDCHAR
STARTCHAR uni52C3
ENCODING 21187
SWIDTH 1000 0
DWIDTH 14 0
BBX 12 14 1 -2
BITMAP
1080
1080
7E80
1080
7FF0
4490
FC90
0890
1090
1C90
F110
1110
1210
3460
ENDCHAR
STARTCHAR uni52C5
ENCODING 21189
SWIDTH 1000 0
DWIDTH 14 0
BBX 12 14 1 -2
BITMAP
1080
1080
FE80
1080
7FF0
5490
5490
7C90
3890
3490
5510
9110
1210
1460
ENDCHAR
STARTCHAR uni52C7
ENCODING 21191
SWIDTH 1000 0
DWIDTH 14 0
BBX 12 13 1 -2
BITMAP
3FC0
0980
0600
3FE0
2220
3FE0
2220
3FE0
0200
FFF0
0410
1810
E0E0
ENDCHAR
STARTCHAR uni52C9
ENCODING 21193
SWIDTH 1000 0
DWIDTH 14 0
BBX 13 14 1 -2
BITMAP
1080
1080
3C80
4880
FFF0
5490
5490
7C90
5910
1910
2A10
2C68
4808
87F8
ENDCHAR
STARTCHAR uni52CD
ENCODING 21197
SWIDTH 1000 0
DWIDTH 14 0
BBX 12 14 1 -2
BITMAP
1080
1080
FE80
0080
7FF0
4490
4490
7C90
1090
5890
5510
5510
9210
3460
ENDCHAR
STARTCHAR uni52D2
ENCODING 21202
SWIDTH 1000 0
DWIDTH 14 0
BBX 12 14 1 -2
BITMAP
2880
2880
FE80
2880
3BF0
1090
7C90
5490
7C90
1090
FF10
1110
1210
1460
ENDCHAR
STARTCHAR uni52D5
ENCODING 21205
SWIDTH 1000 0
DWIDTH 14 0
BBX 12 14 1 -2
BITMAP
0C80
7080
1080
FFF0
7C90
5490
7C90
5490
7C90
1090
7D10
1110
1E10
E460
ENDCHAR
STARTCHAR uni52D7
ENCODING 21207
SWIDTH 1000 0
DWIDTH 14 0
BBX 12 13 1 -2
BITMAP
3FE0
2020
3FE0
2020
3FE0
7C80
4480
7FF0
4490
7C90
4510
7F10
C260
ENDCHAR
STARTCHAR uni52D8
ENCODING 21208
SWIDTH 1000 0
DWIDTH 14 0
BBX 12 14 1 -2
BITMAP
2480
2480
FE80
25F0
3C90
2490
3C90
2490
FF90
5890
5A90
6710
7F10
4260
ENDCHAR
STARTCHAR uni52D9
ENCODING 21209
SWIDTH 1000 0
DWIDTH 14 0
BBX 13 14 1 -2
BITMAP
0100
7D00
09F8
3320
14A0
FC40
15A0
3698
3880
57F0
9090
1110
1210
3460
ENDCHAR
STARTCHAR uni52DD
ENCODING 21213
SWIDTH 1000 0
DWIDTH 14 0
BBX 13 14 1 -2
BITMAP
0080
7C90
4AA0
4FF0
4880
7FF8
4940
4AA0
7C90
4FE8
4920
4920
4A20
9CC0
ENDCHAR
STARTCHAR uni52DE
ENCODING 21214
SWIDTH 1000 0
DWIDTH 14 0
BBX 13 14 1 -2
BITMAP
1040
1860
5550
5550
B2C0
28A0
4510
7FF8
4410
BFE0
0420
0820
1020
60C0
ENDCHAR
STARTCHAR uni52DF
ENCODING 21215
SWIDTH 1000 0
DWIDTH 14 0
BBX 13 14 1 -2
BITMAP
0880
FFF8
0880
1FC0
1040
1FC0
1040
1FC0
FFF8
0A80
3FE0
C258
0C40
3180
ENDCHAR
STARTCHAR uni52E0
ENCODING 21216
SWIDTH 1000 0
DWIDTH 14 0
BBX 12 14 1 -2
BITMAP
0080
FE80
5680
BA80
57F0
9A90
3490
C290
1290
6890
1510
6910
1210
6460
ENDCHAR
STARTCHAR uni52E2
ENCODING 21218
SWIDTH 1000 0
DWIDTH 14 0
BBX 13 14 1 -2
BITMAP
1080
7C80
13E0
FEA0
2BA0
56A0
FCE0
1128
FE18
0200
7FE0
0420
1820
61C0
ENDCHAR
STARTCHAR uni52E3
ENCODING 21219
SWIDTH 1000 0
DWIDTH 14 0
BBX 12 14 1 -2
BITMAP
1080
FE80
1080
7C80
11F0
FE90
7C90
4490
7C90
7C90
4490
7D10
2510
C260
ENDCHAR
STARTCHAR uni52E4
ENCODING 21220
SWIDTH 1000 0
DWIDTH 14 0
BBX 12 14 1 -2
BITMAP
2880
FE80
2880
7C80
57F0
5490
7C90
1090
7C90
1090
7C90
1110
1D10
F260
ENDCHAR
STARTCHAR uni52E6
ENCODING 21222
SWIDTH 1000 0
DWIDTH 14 0
BBX 12 14 1 -2
BITMAP
5480
A880
5480
7C80
57F0
7C90
5490
7C90
1090
FC90
3910
5510
9210
1460
ENDCHAR
STARTCHAR uni52E7
ENCODING 21223
SWIDTH 1000 0
DWIDTH 14 0
BBX 12 14 1 -2
BITMAP
2080
2080
7E80
51F0
BE90
2890
7E90
C890
7E90
4890
7E90
4910
7F10
4260
ENDCHAR
STARTCHAR uni52F2
ENCODING 21234
SWIDTH 1000 0
DWIDTH 14 0
BBX 13 14 1 -2
BITMAP
0480
7880
1080
FFF0
5490
7C90
5490
FE90
1110
1F10
F260
0000
4910
8488
ENDCHAR
STARTCHAR uni52F3
ENCODING 21235
SWIDTH 1000 0
DWIDTH 14 0
BBX 12 14 1 -2
BITMAP
0C80
7080
FE80
1080
FFF0
D690
BA90
FE90
1090
FE90
1090
FD10
7510
AA60
ENDCHAR
STARTCHAR uni52F5
ENCODING 21237
SWIDTH 1000 0
DWIDTH 14 0
BBX 12 14 1 -2
BITMAP
0040
7F40
4A40
7F40
4AF0
5F50
5550
5F50
5550
5F50
7FD0
66D0
7F90
A1B0
ENDCHAR
STARTCHAR uni52F8
ENCODING 21240
SWIDTH 1000 0
DWIDTH 14 0
BBX 12 14 1 -2
BITMAP
2880
FE80
2880
EE80
ABF0
EE90
4890
7E90
4890
FC90
4890
7D10
4910
7E60
ENDCHAR
STARTCHAR uni52F9
ENCODING 21241
SWIDTH 1000 0
DWIDTH 14 0
BBX 12 14 1 -2
BITMAP
1000
1000
1000
1FF0
2010
2010
4010
8010
0010
0010
0010
0010
0020
00C0
ENDCHAR
STARTCHAR uni52FA
ENCODING 21242
SWIDTH 1000 0
DWIDTH 14 0
BBX 12 14 1 -2
BITMAP
1000
1000
1000
1FF0
2010
2010
4810
8410
0210
0210
0010
0010
0010
0060
ENDCHAR
STARTCHAR uni52FE
ENCODING 21246
SWIDTH 1000 0
DWIDTH 14 0
BBX 12 14 1 -2
BITMAP
1000
1000
1000
3FF0
2410
4410
8410
0610
0910
0B90
7C90
0010
0010
0060
ENDCHAR
STARTCHAR uni52FF
ENCODING 21247
SWIDTH 1000 0
DWIDTH 14 0
BBX 12 14 1 -2
BITMAP
1000
1000
1000
1FF0
2490
2490
4490
8890
0890
1110
2110
0210
0410
0060
ENDCHAR
STARTCHAR uni5301
ENCODING 21249
SWIDTH 1000 0
DWIDTH 14 0
BBX 13 14 1 -2
BITMAP
1000
1000
1000
1FE0
1220
2A20
2620
4220
85A0
0460
0838
1020
2040
0180
ENDCHAR
STARTCHAR uni5302
ENCODING 21250
SWIDTH 1000 0
DWIDTH 14 0
BBX 12 14 1 -2
BITMAP
1000
1000
1000
3FF0
2010
5010
9310
1C10
1010
1090
1090
0F90
0010
0060
ENDCHAR
STARTCHAR uni5305
ENCODING 21253
SWIDTH 1000 0
DWIDTH 14 0
BBX 13 14 1 -2
BITMAP
1000
1000
1000
3FF0
2010
7F10
8110
0110
3F10
2160
2000
2008
2008
1FF8
ENDCHAR
STARTCHAR uni5306
ENCODING 21254
SWIDTH 1000 0
DWIDTH 14 0
BBX 12 14 1 -2
BITMAP
1000
1000
1000
1FF0
2490
2490
5C90
8B90
0890
1150
2110
0210
0420
00C0
ENDCHAR
STARTCHAR uni5308
ENCODING 21256
SWIDTH 1000 0
DWIDTH 14 0
BBX 12 14 1 -2
BITMAP
1000
1000
1000
1FF0
2010
2210
7290
AE90
2690
2990
3090
3F90
2090
0060
ENDCHAR
STARTCHAR uni530D
ENCODING 21261
SWIDTH 1000 0
DWIDTH 14 0
BBX 12 14 1 -2
BITMAP
1000
1000
3FF0
2490
7FD0
8410
3F90
2490
3F90
2490
3F90
2490
2590
0060
ENDCHAR
STARTCHAR uni530F
ENCODING 21263
SWIDTH 1000 0
DWIDTH 14 0
BBX 13 14 1 -2
BITMAP
1080
1080
FE80
29F0
2510
7FD0
8150
FD50
21D0
3D60
4500
0508
0508
18F8
ENDCHAR
STARTCHAR uni5310
ENCODING 21264
SWIDTH 1000 0
DWIDTH 14 0
BBX 12 14 1 -2
BITMAP
1000
1000
3FF0
2010
7F90
9F10
1110
1F10
3F90
2490
3F90
2490
3F90
2060
ENDCHAR
STARTCHAR uni5315
ENCODING 21269
SWIDTH 1000 0
DWIDTH 14 0
BBX 13 14 1 -2
BITMAP
2000
2000
2010
2020
2040
2180
2600
3800
E000
2000
2008
2008
1008
0FF8
ENDCHAR
STARTCHAR uni5316
ENCODING 21270
SWIDTH 1000 0
DWIDTH 14 0
BBX 13 14 1 -2
BITMAP
0900
0900
0910
1110
1120
3140
5180
9100
1100
1100
1100
1108
1108
10F8
ENDCHAR
STARTCHAR uni5317
ENCODING 21271
SWIDTH 1000 0
DWIDTH 14 0
BBX 13 14 1 -2
BITMAP
0900
0900
0910
0910
F920
0940
0980
0900
0900
3900
C900
0908
0908
08F8
ENDCHAR
STARTCHAR uni5319
ENCODING 21273
SWIDTH 1000 0
DWIDTH 14 0
BBX 13 14 1 -2
BITMAP
0080
3E80
2280
3E90
2290
3EA0
00C0
FF80
0880
2E88
2888
3878
4C00
83F8
ENDCHAR
STARTCHAR uni531A
ENCODING 21274
SWIDTH 1000 0
DWIDTH 14 0
BBX 12 13 2 -2
BITMAP
FFE0
8000
8000
8000
8000
8000
8000
8000
8000
8000
8000
FFF0
8000
ENDCHAR
STARTCHAR uni531D
ENCODING 21277
SWIDTH 1000 0
DWIDTH 14 0
BBX 12 13 2 -2
BITMAP
FFF0
8200
8200
9FC0
9240
9240
9240
9240
9240
9380
8200
FFF0
8000
ENDCHAR
STARTCHAR uni5320
ENCODING 21280
SWIDTH 1000 0
DWIDTH 14 0
BBX 12 13 2 -2
BITMAP
FFE0
8080
8300
9C00
9000
9FE0
9100
9100
A100
A100
C100
FFF0
8000
ENDCHAR
STARTCHAR uni5321
ENCODING 21281
SWIDTH 1000 0
DWIDTH 14 0
BBX 12 13 2 -2
BITMAP
FFF0
8000
BFE0
8200
8200
9FC0
8200
8200
8200
BFE0
8000
FFF0
8000
ENDCHAR
STARTCHAR uni5323
ENCODING 21283
SWIDTH 1000 0
DWIDTH 14 0
BBX 12 13 2 -2
BITMAP
FFE0
8000
9FC0
9240
9FC0
9240
9FC0
9240
8200
8200
8200
FFF0
8000
ENDCHAR
STARTCHAR uni532A
ENCODING 21290
SWIDTH 1000 0
DWIDTH 14 0
BBX 12 13 2 -2
BITMAP
FFF0
8500
8500
BDE0
8500
BDE0
8500
BDE0
8900
8900
9100
FFF0
8000
ENDCHAR
STARTCHAR uni532F
ENCODING 21295
SWIDTH 1000 0
DWIDTH 14 0
BBX 12 13 2 -2
BITMAP
FFE0
A240
9280
D7E0
AC80
A7E0
8480
97E0
9480
A7E0
A400
FFF0
8000
ENDCHAR
STARTCHAR uni5331
ENCODING 21297
SWIDTH 1000 0
DWIDTH 14 0
BBX 12 13 2 -2
BITMAP
FFF0
8200
9FC0
9240
FFF0
9FC0
9040
9FC0
9FC0
9FC0
B060
FFF0
8000
ENDCHAR
STARTCHAR uni5333
ENCODING 21299
SWIDTH 1000 0
DWIDTH 14 0
BBX 12 13 2 -2
BITMAP
FFE0
8200
8500
9FC0
E020
9DC0
9540
9DC0
8880
9540
A620
FFF0
8000
ENDCHAR
STARTCHAR uni5338
ENCODING 21304
SWIDTH 1000 0
DWIDTH 14 0
BBX 13 12 1 -1
BITMAP
FFF8
2000
2000
2000
2000
2000
2000
2000
2000
2000
1000
0FF0
ENDCHAR
STARTCHAR uni5339
ENCODING 21305
SWIDTH 1000 0
DWIDTH 14 0
BBX 12 13 2 -2
BITMAP
FFE0
8900
8900
8900
8900
8900
9120
9120
A0E0
C000
8000
FFF0
8000
ENDCHAR
STARTCHAR uni533A
ENCODING 21306
SWIDTH 1000 0
DWIDTH 14 0
BBX 12 13 2 -2
BITMAP
FFE0
8080
8080
8100
B100
8E00
8200
8500
8880
9080
A000
FFF0
8000
ENDCHAR
STARTCHAR uni533B
ENCODING 21307
SWIDTH 1000 0
DWIDTH 14 0
BBX 12 13 2 -2
BITMAP
FFE0
8800
8800
9FC0
9200
A200
FFE0
8500
8480
8840
B040
FFF0
8000
ENDCHAR
STARTCHAR uni533F
ENCODING 21311
SWIDTH 1000 0
DWIDTH 14 0
BBX 12 13 2 -2
BITMAP
FFE0
8900
BFC0
8900
8400
FFE0
8800
9FC0
A840
CFC0
8000
FFF0
8000
ENDCHAR
STARTCHAR uni5340
ENCODING 21312
SWIDTH 1000 0
DWIDTH 14 0
BBX 13 13 1 -2
BITMAP
FFF0
4000
47C0
4440
47C0
4000
5EF0
5290
5EF0
5290
4000
7FF8
4000
ENDCHAR
STARTCHAR uni5341
ENCODING 21313
SWIDTH 1000 0
DWIDTH 14 0
BBX 13 14 1 -2
BITMAP
0200
0200
0200
0200
0200
0200
FFF8
0200
0200
0200
0200
0200
0200
0200
ENDCHAR
STARTCHAR uni5343
ENCODING 21315
SWIDTH 1000 0
DWIDTH 14 0
BBX 13 14 1 -2
BITMAP
0040
0180
3E00
0200
0200
0200
FFF8
0200
0200
0200
0200
0200
0200
0200
ENDCHAR
STARTCHAR uni5345
ENCODING 21317
SWIDTH 1000 0
DWIDTH 14 0
BBX 13 14 1 -2
BITMAP
2220
2220
2220
2220
2220
2220
FFF8
2220
2220
2220
2220
4220
4220
8020
ENDCHAR
STARTCHAR uni5346
ENCODING 21318
SWIDTH 1000 0
DWIDTH 14 0
BBX 13 14 1 -2
BITMAP
0400
0400
7F80
0880
0888
1088
2278
4200
0200
FFF8
0200
0200
0200
0200
ENDCHAR
STARTCHAR uni5347
ENCODING 21319
SWIDTH 1000 0
DWIDTH 14 0
BBX 13 14 1 -2
BITMAP
0280
0C80
7880
0880
0880
0880
FFF8
0880
0880
1080
1080
2080
4080
8080
ENDCHAR
STARTCHAR uni5348
ENCODING 21320
SWIDTH 1000 0
DWIDTH 14 0
BBX 13 14 1 -2
BITMAP
1000
1000
1FE0
2200
2200
4200
0200
FFF8
0200
0200
0200
0200
0200
0200
ENDCHAR
STARTCHAR uni5349
ENCODING 21321
SWIDTH 1000 0
DWIDTH 14 0
BBX 13 14 1 -2
BITMAP
0200
0200
0200
7FF0
0200
1240
1240
1040
FFF8
1040
1040
2040
2040
4040
ENDCHAR
STARTCHAR uni534A
ENCODING 21322
SWIDTH 1000 0
DWIDTH 14 0
BBX 13 14 1 -2
BITMAP
0200
0200
2220
1220
1240
7FF0
0200
0200
FFF8
0200
0200
0200
0200
0200
ENDCHAR
STARTCHAR uni534D
ENCODING 21325
SWIDTH 1000 0
DWIDTH 14 0
BBX 11 12 2 -1
BITMAP
FC20
0420
0420
0420
0420
FFE0
8400
8400
8400
8400
8400
87E0
ENDCHAR
STARTCHAR uni5351
ENCODING 21329
SWIDTH 1000 0
DWIDTH 14 0
BBX 13 14 1 -2
BITMAP
0400
0800
3FE0
2220
2220
3FE0
2220
3FE0
0880
1080
FFF8
0080
0080
0080
ENDCHAR
STARTCHAR uni5352
ENCODING 21330
SWIDTH 1000 0
DWIDTH 14 0
BBX 13 14 1 -2
BITMAP
0200
0200
FFF8
1080
1080
18C0
2520
4620
0200
FFF8
0200
0200
0200
0200
ENDCHAR
STARTCHAR uni5353
ENCODING 21331
SWIDTH 1000 0
DWIDTH 14 0
BBX 13 14 1 -2
BITMAP
0200
0200
03F0
0200
3FE0
2020
3FE0
2020
3FE0
0200
FFF8
0200
0200
0200
ENDCHAR
STARTCHAR uni5354
ENCODING 21332
SWIDTH 1000 0
DWIDTH 14 0
BBX 13 14 1 -2
BITMAP
2080
2080
27F0
2090
F910
2210
2460
2420
3FF8
2528
2528
2948
2948
3398
ENDCHAR
STARTCHAR uni5357
ENCODING 21335
SWIDTH 1000 0
DWIDTH 14 0
BBX 13 14 1 -2
BITMAP
0200
0200
FFF8
0200
0200
7FF0
4890
4510
5FD0
4210
5FD0
4210
4210
4230
ENDCHAR
STARTCHAR uni5358
ENCODING 21336
SWIDTH 1000 0
DWIDTH 14 0
BBX 13 14 1 -2
BITMAP
2420
1220
1240
3FE0
2220
3FE0
2220
2220
3FE0
0200
FFF8
0200
0200
0200
ENDCHAR
STARTCHAR uni535A
ENCODING 21338
SWIDTH 1000 0
DWIDTH 14 0
BBX 13 14 1 -2
BITMAP
2090
2FF8
2080
27F0
FC90
27F0
2490
27F0
2020
2FF8
2220
2120
2020
2060
ENDCHAR
STARTCHAR uni535C
ENCODING 21340
SWIDTH 1000 0
DWIDTH 14 0
BBX 5 14 6 -2
BITMAP
80
80
80
80
C0
A0
90
88
88
80
80
80
80
80
ENDCHAR
STARTCHAR uni535E
ENCODING 21342
SWIDTH 1000 0
DWIDTH 14 0
BBX 13 14 1 -2
BITMAP
0200
0200
FFF8
0200
0200
0300
0280
0240
0220
0220
0200
0200
0200
0200
ENDCHAR
STARTCHAR uni5360
ENCODING 21344
SWIDTH 1000 0
DWIDTH 14 0
BBX 11 14 2 -2
BITMAP
0800
0800
0800
0FE0
0800
0800
0800
FFC0
8040
8040
8040
8040
FFC0
8040
ENDCHAR
STARTCHAR uni5366
ENCODING 21350
SWIDTH 1000 0
DWIDTH 14 0
BBX 13 14 1 -2
BITMAP
0840
0840
0840
7F40
0840
0860
FFD0
0848
0848
7F40
0840
0840
0F40
F840
ENDCHAR
STARTCHAR uni5369
ENCODING 21353
SWIDTH 1000 0
DWIDTH 14 0
BBX 7 13 4 -2
BITMAP
FE
82
82
82
82
82
82
82
82
9C
80
80
80
ENDCHAR
STARTCHAR uni536E
ENCODING 21358
SWIDTH 1000 0
DWIDTH 14 0
BBX 13 14 1 -2
BITMAP
0030
01C0
3E00
2000
3FF8
2000
27E0
2420
2420
2420
24C0
4408
4408
83F8
ENDCHAR
STARTCHAR uni536F
ENCODING 21359
SWIDTH 1000 0
DWIDTH 14 0
BBX 12 14 1 -2
BITMAP
0400
1800
61F0
4510
4510
4510
4510
4510
4510
7D10
C9E0
0900
1100
2100
ENDCHAR
STARTCHAR uni5370
ENCODING 21360
SWIDTH 1000 0
DWIDTH 14 0
BBX 11 14 2 -2
BITMAP
0400
1800
E3E0
8220
8220
FA20
8220
8220
8220
FA20
83C0
8200
0200
0200
ENDCHAR
STARTCHAR uni5371
ENCODING 21361
SWIDTH 1000 0
DWIDTH 14 0
BBX 13 14 1 -2
BITMAP
0400
0FC0
3180
C200
3FF8
2000
27E0
2420
2420
2420
24C0
4408
4408
83F8
ENDCHAR
STARTCHAR uni5373
ENCODING 21363
SWIDTH 1000 0
DWIDTH 14 0
BBX 12 13 1 -2
BITMAP
7DF0
4510
4510
7D10
4510
4510
7D10
5110
4910
4D10
75E0
C500
0100
ENDCHAR
STARTCHAR uni5374
ENCODING 21364
SWIDTH 1000 0
DWIDTH 14 0
BBX 12 14 1 -2
BITMAP
1000
10F0
1090
7E90
1090
1090
FF90
1090
1890
2490
26E0
FA80
0280
0080
ENDCHAR
STARTCHAR uni5375
ENCODING 21365
SWIDTH 1000 0
DWIDTH 14 0
BBX 12 14 1 -2
BITMAP
0400
1800
65F0
4510
6590
5550
5550
4510
4510
5D10
E9E0
0900
1100
2100
ENDCHAR
STARTCHAR uni5377
ENCODING 21367
SWIDTH 1000 0
DWIDTH 14 0
BBX 13 14 1 -2
BITMAP
0200
1240
1220
3FE0
0500
FFF8
0880
1040
2FA0
C898
0880
0B00
0820
07E0
ENDCHAR
STARTCHAR uni5378
ENCODING 21368
SWIDTH 1000 0
DWIDTH 14 0
BBX 12 14 1 -2
BITMAP
2000
20F0
3E90
4890
8890
FF90
0890
4E90
4890
4890
4EE0
7880
C080
0080
ENDCHAR
STARTCHAR uni537B
ENCODING 21371
SWIDTH 1000 0
DWIDTH 14 0
BBX 12 14 1 -2
BITMAP
1000
18F0
2490
4290
9290
1890
2490
2290
7E90
A490
24E0
2480
3C80
2080
ENDCHAR
STARTCHAR uni537F
ENCODING 21375
SWIDTH 1000 0
DWIDTH 14 0
BBX 12 14 1 -2
BITMAP
1000
6770
4550
5550
5750
5550
5550
5750
5450
7650
D550
27E0
2C40
4040
ENDCHAR
STARTCHAR uni5382
ENCODING 21378
SWIDTH 1000 0
DWIDTH 14 0
BBX 13 13 1 -2
BITMAP
3FF8
2000
2000
2000
2000
2000
2000
2000
2000
2000
4000
4000
8000
ENDCHAR
STARTCHAR uni5384
ENCODING 21380
SWIDTH 1000 0
DWIDTH 14 0
BBX 13 13 1 -2
BITMAP
3FF8
2000
2000
27E0
2420
2420
2420
2420
24C0
2400
4408
4408
83F8
ENDCHAR
STARTCHAR uni5396
ENCODING 21398
SWIDTH 1000 0
DWIDTH 14 0
BBX 13 13 1 -2
BITMAP
3FF8
2620
2520
2550
2450
3FA0
2428
2648
2610
4A20
4A48
9208
21F8
ENDCHAR
STARTCHAR uni5398
ENCODING 21400
SWIDTH 1000 0
DWIDTH 14 0
BBX 13 13 1 -2
BITMAP
3FF8
2000
2FE0
2920
2FE0
2920
2FE0
2100
2FE0
2100
4100
7FF8
8000
ENDCHAR
STARTCHAR uni539A
ENCODING 21402
SWIDTH 1000 0
DWIDTH 14 0
BBX 13 13 1 -2
BITMAP
3FF8
27E0
2420
27E0
2420
27E0
2000
27E0
2040
5FF8
4080
8080
0180
ENDCHAR
STARTCHAR uni539F
ENCODING 21407
SWIDTH 1000 0
DWIDTH 14 0
BBX 13 13 1 -2
BITMAP
3FF8
2100
27E0
2420
27E0
2420
27E0
2100
2540
4520
4910
9110
0300
ENDCHAR
STARTCHAR uni53A0
ENCODING 21408
SWIDTH 1000 0
DWIDTH 14 0
BBX 13 13 1 -2
BITMAP
3FF8
2000
2F10
2950
2F50
2950
2F50
2950
2950
2F50
4650
4910
9130
ENDCHAR
STARTCHAR uni53A5
ENCODING 21413
SWIDTH 1000 0
DWIDTH 14 0
BBX 13 13 1 -2
BITMAP
3FF8
3140
2940
2A40
3FF8
24A8
3530
3520
3F20
3560
4450
4890
9108
ENDCHAR
STARTCHAR uni53A6
ENCODING 21414
SWIDTH 1000 0
DWIDTH 14 0
BBX 13 13 1 -2
BITMAP
3FF8
2FF0
2100
27E0
2420
27E0
27E0
2420
27E0
23E0
4E40
41C0
9E70
ENDCHAR
STARTCHAR uni53A8
ENCODING 21416
SWIDTH 1000 0
DWIDTH 14 0
BBX 13 13 1 -2
BITMAP
3FF8
2010
3F90
2010
2F10
29F8
2990
2F50
2950
2510
4610
4710
9830
ENDCHAR
STARTCHAR uni53A9
ENCODING 21417
SWIDTH 1000 0
DWIDTH 14 0
BBX 13 13 1 -2
BITMAP
7FF8
4000
5EF0
52A0
5EA0
52A0
5FF8
5060
5460
52A0
56A8
9928
6218
ENDCHAR
STARTCHAR uni53AD
ENCODING 21421
SWIDTH 1000 0
DWIDTH 14 0
BBX 13 13 1 -2
BITMAP
7FF8
4000
5E50
5248
5E40
41F8
5E40
5240
5E40
52E0
5EA0
5310
9608
ENDCHAR
STARTCHAR uni53AE
ENCODING 21422
SWIDTH 1000 0
DWIDTH 14 0
BBX 13 13 1 -2
BITMAP
3FF8
2A10
2A20
3FC0
2A80
2EF8
2AA0
2EA0
2AA0
3FA0
4AA0
4920
9120
ENDCHAR
STARTCHAR uni53B0
ENCODING 21424
SWIDTH 1000 0
DWIDTH 14 0
BBX 13 13 1 -2
BITMAP
3FF8
2440
2E40
2D40
35F8
3F90
3150
3F50
3B20
3B20
5F50
5190
9308
ENDCHAR
STARTCHAR uni53B3
ENCODING 21427
SWIDTH 1000 0
DWIDTH 14 0
BBX 13 14 1 -2
BITMAP
1210
0920
3FF8
2040
3F40
2440
3F78
2A90
2F50
2E60
4A20
7E60
8290
0308
ENDCHAR
STARTCHAR uni53B6
ENCODING 21430
SWIDTH 1000 0
DWIDTH 14 0
BBX 13 14 1 -2
BITMAP
0200
0200
0200
0200
0200
0400
0400
0400
0840
0820
1010
21F0
FE08
0008
ENDCHAR
STARTCHAR uni53BB
ENCODING 21435
SWIDTH 1000 0
DWIDTH 14 0
BBX 13 14 1 -2
BITMAP
0200
0200
0200
3FE0
0200
0200
0200
FFF8
0400
0480
0840
11E0
7E10
0010
ENDCHAR
STARTCHAR uni53C2
ENCODING 21442
SWIDTH 1000 0
DWIDTH 14 0
BBX 13 14 1 -2
BITMAP
0400
0500
08C0
7F20
0400
FFF8
0980
1240
2CA0
C318
1C40
0080
0300
3C00
ENDCHAR
STARTCHAR uni53C3
ENCODING 21443
SWIDTH 1000 0
DWIDTH 14 0
BBX 13 14 1 -2
BITMAP
0200
0480
3FE0
1020
2A50
FDF8
0880
3160
C618
1880
0320
1C40
0180
3E00
ENDCHAR
STARTCHAR uni53C8
ENCODING 21448
SWIDTH 1000 0
DWIDTH 14 0
BBX 13 13 1 -2
BITMAP
7FE0
1020
1020
1040
0840
0880
0480
0500
0200
0500
0880
3060
C018
ENDCHAR
STARTCHAR uni53C9
ENCODING 21449
SWIDTH 1000 0
DWIDTH 14 0
BBX 13 13 1 -2
BITMAP
7FE0
0420
1220
1240
0840
0880
0480
0300
0200
0500
0880
3060
C018
ENDCHAR
STARTCHAR uni53CA
ENCODING 21450
SWIDTH 1000 0
DWIDTH 14 0
BBX 13 13 1 -2
BITMAP
7FC0
0840
0880
0880
0DE0
1420
1220
1240
1140
2080
2140
4620
9818
ENDCHAR
STARTCHAR uni53CB
ENCODING 21451
SWIDTH 1000 0
DWIDTH 14 0
BBX 13 14 1 -2
BITMAP
0400
0400
0400
FFF8
0400
0400
0FE0
0C20
0A40
1280
1100
2280
4C60
B018
ENDCHAR
STARTCHAR uni53CC
ENCODING 21452
SWIDTH 1000 0
DWIDTH 14 0
BBX 13 13 1 -2
BITMAP
FFF0
0510
0510
4510
2510
18A0
08A0
08C0
1440
14C0
2120
4210
8408
ENDCHAR
STARTCHAR uni53CD
ENCODING 21453
SWIDTH 1000 0
DWIDTH 14 0
BBX 13 13 1 -2
BITMAP
3FF0
2000
2000
3FE0
2420
2420
2440
2240
2280
2100
4280
4C60
B018
ENDCHAR
STARTCHAR uni53CE
ENCODING 21454
SWIDTH 1000 0
DWIDTH 14 0
BBX 13 14 1 -2
BITMAP
0800
0BF0
4910
4910
4910
4910
48A0
48A0
4CC0
7840
C8C0
0920
0E10
0808
ENDCHAR
STARTCHAR uni53D4
ENCODING 21460
SWIDTH 1000 0
DWIDTH 14 0
BBX 13 14 1 -2
BITMAP
1000
13F0
1110
1F10
1110
10A0
FEA0
10A0
1440
5240
52A0
5120
9210
3408
ENDCHAR
STARTCHAR uni53D6
ENCODING 21462
SWIDTH 1000 0
DWIDTH 14 0
BBX 13 13 1 -2
BITMAP
FE00
27F0
2510
3D10
2510
2490
3CA0
24A0
2440
3CC0
C520
0610
0408
ENDCHAR
STARTCHAR uni53D7
ENCODING 21463
SWIDTH 1000 0
DWIDTH 14 0
BBX 13 14 1 -2
BITMAP
0060
03A0
7C20
2440
1280
7FF8
4010
BFC0
0840
0480
0300
0300
0CC0
7030
ENDCHAR
STARTCHAR uni53D9
ENCODING 21465
SWIDTH 1000 0
DWIDTH 14 0
BBX 13 14 1 -2
BITMAP
1000
13F0
2910
2510
4510
FCA0
10A0
FEA0
1040
5840
54A0
5520
9210
3408
ENDCHAR
STARTCHAR uni53DB
ENCODING 21467
SWIDTH 1000 0
DWIDTH 14 0
BBX 13 14 1 -2
BITMAP
1000
15F8
9500
5900
51F0
FD10
1110
1190
1EA0
F260
2240
24A0
4510
8808
ENDCHAR
STARTCHAR uni53DF
ENCODING 21471
SWIDTH 1000 0
DWIDTH 14 0
BBX 13 14 1 -2
BITMAP
0A00
72F0
4210
7AF0
4210
4210
7FF0
0200
7FE0
0840
0480
0300
0CC0
F038
ENDCHAR
STARTCHAR uni53E1
ENCODING 21473
SWIDTH 1000 0
DWIDTH 14 0
BBX 13 14 1 -2
BITMAP
1C00
11F0
FE10
BA90
B490
5AA0
A4A0
3E60
6440
BC60
24A0
3C90
2510
3E08
ENDCHAR
STARTCHAR uni53E2
ENCODING 21474
SWIDTH 1000 0
DWIDTH 14 0
BBX 13 14 1 -2
BITMAP
2520
1540
FFF8
0880
7FF0
3FE0
0200
FFF8
2400
3FF0
3D20
24C0
FDE0
0618
ENDCHAR
STARTCHAR uni53E3
ENCODING 21475
SWIDTH 1000 0
DWIDTH 14 0
BBX 9 11 3 -1
BITMAP
FF80
8080
8080
8080
8080
8080
8080
8080
FF80
8080
8080
ENDCHAR
STARTCHAR uni53E4
ENCODING 21476
SWIDTH 1000 0
DWIDTH 14 0
BBX 13 14 1 -2
BITMAP
0200
0200
0200
FFF8
0200
0200
0200
3FE0
2020
2020
2020
2020
3FE0
2020
ENDCHAR
STARTCHAR uni53E5
ENCODING 21477
SWIDTH 1000 0
DWIDTH 14 0
BBX 12 14 1 -2
BITMAP
1000
1000
1000
3FF0
2010
5F10
9110
1110
1110
1F10
1110
0010
0010
0060
ENDCHAR
STARTCHAR uni53E8
ENCODING 21480
SWIDTH 1000 0
DWIDTH 14 0
BBX 12 13 1 -2
BITMAP
0FF0
F110
9110
9110
9110
9110
9110
9110
9110
F210
9210
8410
0860
ENDCHAR
STARTCHAR uni53E9
ENCODING 21481
SWIDTH 1000 0
DWIDTH 14 0
BBX 12 13 1 -2
BITMAP
01F0
F910
8910
8910
8910
8910
8910
F910
8910
81E0
0100
0100
0100
ENDCHAR
STARTCHAR uni53EA
ENCODING 21482
SWIDTH 1000 0
DWIDTH 14 0
BBX 12 13 1 -2
BITMAP
3FE0
2020
2020
2020
2020
2020
3FE0
2020
0880
0840
1020
2010
C010
ENDCHAR
STARTCHAR uni53EB
ENCODING 21483
SWIDTH 1000 0
DWIDTH 14 0
BBX 13 14 1 -2
BITMAP
0020
0020
F220
9220
9220
9220
9220
9220
9238
F3E0
9E20
8020
0020
0020
ENDCHAR
STARTCHAR uni53EC
ENCODING 21484
SWIDTH 1000 0
DWIDTH 14 0
BBX 12 13 1 -2
BITMAP
FFF0
0410
0410
0810
3010
C0E0
0000
3FE0
2020
2020
2020
3FE0
2020
ENDCHAR
STARTCHAR uni53ED
ENCODING 21485
SWIDTH 1000 0
DWIDTH 14 0
BBX 13 14 1 -2
BITMAP
03C0
0040
F040
9040
9240
9240
9240
9240
9220
F220
9420
8410
0810
1008
ENDCHAR
STARTCHAR uni53EE
ENCODING 21486
SWIDTH 1000 0
DWIDTH 14 0
BBX 13 13 1 -2
BITMAP
0FF8
F040
9040
9040
9040
9040
9040
9040
9040
F040
9040
8040
00C0
ENDCHAR
STARTCHAR uni53EF
ENCODING 21487
SWIDTH 1000 0
DWIDTH 14 0
BBX 13 13 1 -2
BITMAP
FFF8
0020
0020
3E20
2220
2220
2220
3E20
2220
0020
0020
0020
0060
ENDCHAR
STARTCHAR uni53F0
ENCODING 21488
SWIDTH 1000 0
DWIDTH 14 0
BBX 13 14 1 -2
BITMAP
0200
0200
0400
0880
1060
FF90
0008
0000
3FE0
2020
2020
2020
3FE0
2020
ENDCHAR
STARTCHAR uni53F1
ENCODING 21489
SWIDTH 1000 0
DWIDTH 14 0
BBX 13 14 1 -2
BITMAP
0100
0100
F900
8910
8910
8920
8940
8980
8F00
F900
8900
8108
0108
00F8
ENDCHAR
STARTCHAR uni53F2
ENCODING 21490
SWIDTH 1000 0
DWIDTH 14 0
BBX 13 14 1 -2
BITMAP
0200
0200
0200
3FE0
2220
2220
2220
3FE0
2220
1400
0C00
0E00
3180
C078
ENDCHAR
STARTCHAR uni53F3
ENCODING 21491
SWIDTH 1000 0
DWIDTH 14 0
BBX 13 14 1 -2
BITMAP
0400
0400
0400
FFF8
0800
0800
1000
1FE0
3020
3020
5020
9020
1FE0
1020
ENDCHAR
STARTCHAR uni53F6
ENCODING 21494
SWIDTH 1000 0
DWIDTH 14 0
BBX 13 14 1 -2
BITMAP
0080
0080
F080
9080
9080
9FF8
9080
9080
9080
F080
9080
8080
0080
0080
ENDCHAR
STARTCHAR uni53F7
ENCODING 21495
SWIDTH 1000 0
DWIDTH 14 0
BBX 13 13 1 -2
BITMAP
1FC0
1040
1040
1FC0
0000
FFF8
0800
0FC0
1040
1040
0040
0080
0300
ENDCHAR
STARTCHAR uni53F8
ENCODING 21496
SWIDTH 1000 0
DWIDTH 14 0
BBX 12 13 1 -2
BITMAP
FFF0
0010
7F90
0010
3F10
2110
2110
2110
3F10
2110
0010
0010
0060
ENDCHAR
STARTCHAR uni53FA
ENCODING 21498
SWIDTH 1000 0
DWIDTH 14 0
BBX 13 14 1 -2
BITMAP
0380
0080
F080
9080
9080
9080
9180
9140
9140
F240
9220
8420
0810
1008
ENDCHAR
STARTCHAR uni5401
ENCODING 21505
SWIDTH 1000 0
DWIDTH 14 0
BBX 13 13 1 -2
BITMAP
07F0
F080
9080
9080
9080
9FF8
9080
9080
9080
F080
9080
8080
0180
ENDCHAR
STARTCHAR uni5403
ENCODING 21507
SWIDTH 1000 0
DWIDTH 14 0
BBX 13 14 1 -2
BITMAP
0200
0200
0200
F3F8
9400
9400
9BE0
9040
9080
F100
9200
8408
0408
03F8
ENDCHAR
STARTCHAR uni5404
ENCODING 21508
SWIDTH 1000 0
DWIDTH 14 0
BBX 13 14 1 -2
BITMAP
0400
0400
0FE0
1840
2480
4300
0680
1860
FFD8
1040
1040
1040
1FC0
1040
ENDCHAR
STARTCHAR uni5408
ENCODING 21512
SWIDTH 1000 0
DWIDTH 14 0
BBX 13 14 1 -2
BITMAP
0200
0200
0500
0880
3060
DFD8
0000
0000
1FC0
1040
1040
1040
1FC0
1040
ENDCHAR
STARTCHAR uni5409
ENCODING 21513
SWIDTH 1000 0
DWIDTH 14 0
BBX 13 14 1 -2
BITMAP
0200
0200
0200
FFF8
0200
0200
7FF0
0000
3FE0
2020
2020
2020
3FE0
2020
ENDCHAR
STARTCHAR uni540A
ENCODING 21514
SWIDTH 1000 0
DWIDTH 14 0
BBX 11 13 2 -2
BITMAP
7FC0
4040
4040
7FC0
4440
0400
FFE0
8420
8420
8420
8420
84C0
0400
ENDCHAR
STARTCHAR uni540B
ENCODING 21515
SWIDTH 1000 0
DWIDTH 14 0
BBX 13 14 1 -2
BITMAP
0020
0020
F020
9020
9FF8
9020
9220
9120
9120
F020
9020
8020
0020
0060
ENDCHAR
STARTCHAR uni540C
ENCODING 21516
SWIDTH 1000 0
DWIDTH 14 0
BBX 12 13 1 -2
BITMAP
FFF0
8010
8010
BFD0
8010
9F90
9090
9090
9090
9F90
9090
8010
8030
ENDCHAR
STARTCHAR uni540D
ENCODING 21517
SWIDTH 1000 0
DWIDTH 14 0
BBX 12 14 1 -2
BITMAP
0400
0400
0FC0
0840
1880
2500
4200
0400
0FF0
3810
C810
0810
0FF0
0810
ENDCHAR
STARTCHAR uni540E
ENCODING 21518
SWIDTH 1000 0
DWIDTH 14 0
BBX 13 14 1 -2
BITMAP
0070
3F80
2000
2000
3FF8
2000
2000
27E0
2420
2420
4420
4420
87E0
0420
ENDCHAR
STARTCHAR uni540F
ENCODING 21519
SWIDTH 1000 0
DWIDTH 14 0
BBX 13 14 1 -2
BITMAP
0200
0200
FFF8
0200
3FE0
2220
2220
3FE0
3220
0A00
0400
0B00
30C0
C038
ENDCHAR
STARTCHAR uni5410
ENCODING 21520
SWIDTH 1000 0
DWIDTH 14 0
BBX 13 13 1 -1
BITMAP
0080
0080
F080
9080
97F0
9080
9080
9080
9080
F080
9080
8080
1FF8
ENDCHAR
STARTCHAR uni5411
ENCODING 21521
SWIDTH 1000 0
DWIDTH 14 0
BBX 11 14 2 -2
BITMAP
0800
0800
1000
FFE0
8020
8020
9F20
9120
9120
9120
9F20
9120
8020
8060
ENDCHAR
STARTCHAR uni541B
ENCODING 21531
SWIDTH 1000 0
DWIDTH 14 0
BBX 13 13 1 -2
BITMAP
3FC0
0440
0440
FFF8
0440
0440
3FC0
0800
1FE0
2820
4820
8FE0
0820
ENDCHAR
STARTCHAR uni541D
ENCODING 21533
SWIDTH 1000 0
DWIDTH 14 0
BBX 13 14 1 -2
BITMAP
0200
0200
FFF8
0840
0480
0300
0CC0
F038
1FC0
1040
1040
1040
1FC0
1040
ENDCHAR
STARTCHAR uni541F
ENCODING 21535
SWIDTH 1000 0
DWIDTH 14 0
BBX 13 14 1 -2
BITMAP
0080
0080
F140
9140
9220
97F0
9808
9000
97F0
F010
9020
8020
0040
0040
ENDCHAR
STARTCHAR uni5420
ENCODING 21536
SWIDTH 1000 0
DWIDTH 14 0
BBX 13 14 1 -2
BITMAP
0080
00A0
F090
9090
9080
9FF8
9080
9080
90C0
F140
9120
8220
0C10
3008
ENDCHAR
STARTCHAR uni5426
ENCODING 21542
SWIDTH 1000 0
DWIDTH 14 0
BBX 13 13 1 -2
BITMAP
FFF8
0200
0780
0A60
3210
C208
0200
3FE0
2020
2020
2020
3FE0
2020
ENDCHAR
STARTCHAR uni5429
ENCODING 21545
SWIDTH 1000 0
DWIDTH 14 0
BBX 13 14 1 -2
BITMAP
00C0
0240
F240
9240
9420
9420
9FF0
9128
9120
9120
F220
9220
8420
08C0
ENDCHAR
STARTCHAR uni542B
ENCODING 21547
SWIDTH 1000 0
DWIDTH 14 0
BBX 13 14 1 -2
BITMAP
0200
0200
0500
0880
3FE0
C018
3FC0
0080
0100
3FE0
2020
2020
3FE0
2020
ENDCHAR
STARTCHAR uni542C
ENCODING 21548
SWIDTH 1000 0
DWIDTH 14 0
BBX 13 14 1 -2
BITMAP
0010
0060
F380
9200
9200
93F8
9240
9240
9240
9240
F440
8440
8840
0040
ENDCHAR
STARTCHAR uni542D
ENCODING 21549
SWIDTH 1000 0
DWIDTH 14 0
BBX 13 14 1 -2
BITMAP
0080
0080
F080
9FF8
9000
93C0
9240
9240
9240
F240
9240
8448
0448
0838
ENDCHAR
STARTCHAR uni542E
ENCODING 21550
SWIDTH 1000 0
DWIDTH 14 0
BBX 13 14 1 -2
BITMAP
0080
0080
F120
9110
9278
9FC8
9140
9140
9140
9140
F240
9248
8448
0838
ENDCHAR
STARTCHAR uni5436
ENCODING 21558
SWIDTH 1000 0
DWIDTH 14 0
BBX 12 14 1 -2
BITMAP
0380
0080
F080
97F0
9490
9490
9490
9550
9530
9630
F410
9410
8410
0430
ENDCHAR
STARTCHAR uni5438
ENCODING 21560
SWIDTH 1000 0
DWIDTH 14 0
BBX 13 13 1 -2
BITMAP
0FE0
F220
9240
9240
93F0
9310
9310
F4A0
94A0
8440
08A0
1310
2C08
ENDCHAR
STARTCHAR uni5439
ENCODING 21561
SWIDTH 1000 0
DWIDTH 14 0
BBX 13 14 1 -2
BITMAP
0200
0200
F200
9200
93F8
9490
94A0
9880
9080
F140
9140
8220
0C10
3008
ENDCHAR
STARTCHAR uni543B
ENCODING 21563
SWIDTH 1000 0
DWIDTH 14 0
BBX 12 14 1 -2
BITMAP
0200
0200
F200
97F0
9550
9550
9950
9250
9290
F490
9890
8110
0210
0060
ENDCHAR
STARTCHAR uni543C
ENCODING 21564
SWIDTH 1000 0
DWIDTH 14 0
BBX 13 14 1 -2
BITMAP
0040
0FC0
F0C0
9140
9140
9240
92C0
9340
9E40
F240
9240
8248
0248
0638
ENDCHAR
STARTCHAR uni543D
ENCODING 21565
SWIDTH 1000 0
DWIDTH 14 0
BBX 13 14 1 -2
BITMAP
0080
0280
F280
9280
93F0
9480
9480
9880
9FF8
9080
F080
9080
8080
0080
ENDCHAR
STARTCHAR uni543E
ENCODING 21566
SWIDTH 1000 0
DWIDTH 14 0
BBX 13 13 1 -2
BITMAP
7FF0
0400
0400
3FC0
0840
0840
FFF8
0000
3FE0
2020
2020
3FE0
2020
ENDCHAR
STARTCHAR uni5440
ENCODING 21568
SWIDTH 1000 0
DWIDTH 14 0
BBX 13 13 1 -2
BITMAP
07F0
F040
9440
9440
9440
97F8
90C0
9140
9140
F240
9440
8840
00C0
ENDCHAR
STARTCHAR uni5442
ENCODING 21570
SWIDTH 1000 0
DWIDTH 14 0
BBX 9 13 3 -2
BITMAP
7F00
4100
4100
4100
7F00
4900
1000
FF80
8080
8080
8080
FF80
8080
ENDCHAR
STARTCHAR uni5446
ENCODING 21574
SWIDTH 1000 0
DWIDTH 14 0
BBX 13 13 1 -2
BITMAP
3FE0
2020
2020
3FE0
2220
0200
FFF8
0700
0A80
3260
C218
0200
0200
ENDCHAR
STARTCHAR uni5448
ENCODING 21576
SWIDTH 1000 0
DWIDTH 14 0
BBX 13 12 1 -1
BITMAP
1FC0
1040
1040
1FC0
0000
7FF0
0200
0200
3FE0
0200
0200
FFF8
ENDCHAR
STARTCHAR uni5449
ENCODING 21577
SWIDTH 1000 0
DWIDTH 14 0
BBX 13 13 1 -2
BITMAP
07E0
2420
2420
27E0
2000
3FE0
2020
0020
FFF8
0000
08C0
3020
C010
ENDCHAR
STARTCHAR uni544A
ENCODING 21578
SWIDTH 1000 0
DWIDTH 14 0
BBX 13 14 1 -2
BITMAP
0200
1200
1200
3FE0
2200
4200
FFF8
0000
1FC0
1040
1040
1040
1FC0
1040
ENDCHAR
STARTCHAR uni544E
ENCODING 21582
SWIDTH 1000 0
DWIDTH 14 0
BBX 13 13 1 -2
BITMAP
03F0
F210
9210
9210
9210
93F0
9310
F280
9480
8440
0820
1010
2008
ENDCHAR
STARTCHAR uni5451
ENCODING 21585
SWIDTH 1000 0
DWIDTH 14 0
BBX 13 14 1 -2
BITMAP
0060
3F80
0200
0200
FFF8
0500
0880
3060
DFD8
1040
1040
1040
1FC0
1040
ENDCHAR
STARTCHAR uni545F
ENCODING 21599
SWIDTH 1000 0
DWIDTH 14 0
BBX 13 14 1 -2
BITMAP
0080
0080
F080
9FF8
9080
90A0
9520
9320
9140
90C0
F0A0
9110
8278
0F88
ENDCHAR
STARTCHAR uni5468
ENCODING 21608
SWIDTH 1000 0
DWIDTH 14 0
BBX 12 13 1 -2
BITMAP
3FF0
2210
2210
2F90
2210
3FD0
2010
2F90
2890
2890
4F90
4890
8030
ENDCHAR
STARTCHAR uni546A
ENCODING 21610
SWIDTH 1000 0
DWIDTH 14 0
BBX 13 13 1 -2
BITMAP
07F0
F410
9410
9410
97F0
9550
9140
9140
F240
9240
8448
0848
3038
ENDCHAR
STARTCHAR uni5470
ENCODING 21616
SWIDTH 1000 0
DWIDTH 14 0
BBX 13 14 1 -2
BITMAP
1100
1110
5120
5FC0
5100
5108
5D08
70F8
C000
1FC0
1040
1040
1FC0
1040
ENDCHAR
STARTCHAR uni5471
ENCODING 21617
SWIDTH 1000 0
DWIDTH 14 0
BBX 13 14 1 -2
BITMAP
0010
0060
F7C0
9540
9540
9540
9540
9540
9540
9520
F5A0
9950
8FF0
1028
ENDCHAR
STARTCHAR uni5473
ENCODING 21619
SWIDTH 1000 0
DWIDTH 14 0
BBX 13 14 1 -2
BITMAP
0080
0080
F7F0
9080
9080
9FF8
91C0
91C0
92A0
F490
9888
9080
0080
0080
ENDCHAR
STARTCHAR uni5475
ENCODING 21621
SWIDTH 1000 0
DWIDTH 14 0
BBX 13 13 1 -2
BITMAP
0FF8
F010
9010
9790
9490
9490
9490
9490
9790
F490
9010
8010
0030
ENDCHAR
STARTCHAR uni5476
ENCODING 21622
SWIDTH 1000 0
DWIDTH 14 0
BBX 13 14 1 -2
BITMAP
0400
0400
E5F0
A490
BF90
AA90
AA90
AA60
BA60
A620
E560
A550
8890
1108
ENDCHAR
STARTCHAR uni5477
ENCODING 21623
SWIDTH 1000 0
DWIDTH 14 0
BBX 12 13 1 -2
BITMAP
07F0
F490
9490
9490
97F0
9490
9490
9490
F7F0
9490
8080
0080
0080
ENDCHAR
STARTCHAR uni547B
ENCODING 21627
SWIDTH 1000 0
DWIDTH 14 0
BBX 12 14 1 -2
BITMAP
0080
0080
F7F0
9490
9490
97F0
9490
9490
97F0
F490
9080
8080
0080
0080
ENDCHAR
STARTCHAR uni547C
ENCODING 21628
SWIDTH 1000 0
DWIDTH 14 0
BBX 13 14 1 -2
BITMAP
0030
07C0
F090
9490
92A0
92C0
9080
9FF8
9080
F080
9080
8080
0080
0180
ENDCHAR
STARTCHAR uni547D
ENCODING 21629
SWIDTH 1000 0
DWIDTH 14 0
BBX 13 14 1 -2
BITMAP
0200
0500
0880
3060
DFD8
0000
79F0
4910
4910
4910
7910
49E0
4100
0100
ENDCHAR
STARTCHAR uni5480
ENCODING 21632
SWIDTH 1000 0
DWIDTH 14 0
BBX 13 12 1 -1
BITMAP
03E0
F220
9220
9220
93E0
9220
9220
93E0
9220
F220
9220
8FF8
ENDCHAR
STARTCHAR uni5484
ENCODING 21636
SWIDTH 1000 0
DWIDTH 14 0
BBX 12 14 1 -2
BITMAP
0080
0490
F490
9490
9490
97F0
9490
9080
9490
9490
F490
9490
87F0
0410
ENDCHAR
STARTCHAR uni5486
ENCODING 21638
SWIDTH 1000 0
DWIDTH 14 0
BBX 13 14 1 -2
BITMAP
0200
0200
F3F0
9410
9410
9BD0
9250
9250
93D0
F260
9200
8208
0208
01F8
ENDCHAR
STARTCHAR uni548B
ENCODING 21643
SWIDTH 1000 0
DWIDTH 14 0
BBX 13 14 1 -2
BITMAP
0200
0200
F200
97F8
9500
9900
91F0
9100
9100
F1F0
9100
8100
0100
0100
ENDCHAR
STARTCHAR uni548C
ENCODING 21644
SWIDTH 1000 0
DWIDTH 14 0
BBX 12 14 1 -2
BITMAP
0400
0800
71F0
1110
1110
FF10
1110
3910
3510
5510
9110
11F0
1110
1000
ENDCHAR
STARTCHAR uni548E
ENCODING 21646
SWIDTH 1000 0
DWIDTH 14 0
BBX 13 14 1 -2
BITMAP
1040
1040
3C40
24C0
68A0
9910
1A10
27F8
C000
1FC0
1040
1040
1FC0
1040
ENDCHAR
STARTCHAR uni548F
ENCODING 21647
SWIDTH 1000 0
DWIDTH 14 0
BBX 13 14 1 -2
BITMAP
0080
0040
F040
9380
9088
90C8
9FD0
91E0
91C0
92A0
F2A0
8490
8888
0180
ENDCHAR
STARTCHAR uni5490
ENCODING 21648
SWIDTH 1000 0
DWIDTH 14 0
BBX 13 14 1 -2
BITMAP
0110
0110
F110
9210
93F8
9610
9A90
9250
9250
9210
F210
9210
8210
0230
ENDCHAR
STARTCHAR uni5492
ENCODING 21650
SWIDTH 1000 0
DWIDTH 14 0
BBX 12 13 2 -2
BITMAP
FBE0
8A20
8A20
FBE0
8A20
0000
1F00
1100
1100
1100
2110
4110
80F0
ENDCHAR
STARTCHAR uni54A2
ENCODING 21666
SWIDTH 1000 0
DWIDTH 14 0
BBX 13 13 1 -2
BITMAP
7DF0
4510
7DF0
0000
3FE0
0000
FFF8
0800
0FC0
1040
0040
0080
0700
ENDCHAR
STARTCHAR uni54A4
ENCODING 21668
SWIDTH 1000 0
DWIDTH 14 0
BBX 13 14 1 -2
BITMAP
0080
0080
F7F8
9410
9860
9780
9080
90F8
9F80
9080
F080
9088
8088
0078
ENDCHAR
STARTCHAR uni54A5
ENCODING 21669
SWIDTH 1000 0
DWIDTH 14 0
BBX 13 12 1 -1
BITMAP
0FF8
F120
9110
9278
9F88
9080
9080
97F0
F080
9080
8080
1FF8
ENDCHAR
STARTCHAR uni54A8
ENCODING 21672
SWIDTH 1000 0
DWIDTH 14 0
BBX 13 14 1 -2
BITMAP
0200
0200
F3F8
0488
0890
0160
3220
C410
1FC8
1040
1040
1040
1FC0
1040
ENDCHAR
STARTCHAR uni54AB
ENCODING 21675
SWIDTH 1000 0
DWIDTH 14 0
BBX 13 13 1 -2
BITMAP
3DF0
2510
2510
2510
2510
3DF0
34C0
30A0
2910
2A10
4400
4300
80F8
ENDCHAR
STARTCHAR uni54AC
ENCODING 21676
SWIDTH 1000 0
DWIDTH 14 0
BBX 13 14 1 -2
BITMAP
0080
0080
FFF8
9220
9210
9628
9928
9120
90C0
F0C0
90C0
8120
0610
1808
ENDCHAR
STARTCHAR uni54AF
ENCODING 21679
SWIDTH 1000 0
DWIDTH 14 0
BBX 13 14 1 -2
BITMAP
0100
0100
F3E0
9220
9640
9940
90C0
9330
9FE8
F220
9220
8220
03E0
0220
ENDCHAR
STARTCHAR uni54B2
ENCODING 21682
SWIDTH 1000 0
DWIDTH 14 0
BBX 13 14 1 -2
BITMAP
0420
0220
F240
97F0
9080
9080
9080
9FF8
9080
F140
9140
8220
0C10
3008
ENDCHAR
STARTCHAR uni54B3
ENCODING 21683
SWIDTH 1000 0
DWIDTH 14 0
BBX 13 14 1 -2
BITMAP
0080
0080
FFF8
9080
9490
9320
9140
9090
9120
F640
90C0
8120
0610
1808
ENDCHAR
STARTCHAR uni54B8
ENCODING 21688
SWIDTH 1000 0
DWIDTH 14 0
BBX 13 14 1 -2
BITMAP
00A0
0090
0090
3FF8
2080
2F90
2050
2F50
2960
2920
2968
4F58
4898
8108
ENDCHAR
STARTCHAR uni54BC
ENCODING 21692
SWIDTH 1000 0
DWIDTH 14 0
BBX 11 13 2 -2
BITMAP
3F80
2080
2780
2480
2480
FFE0
8020
9F20
9120
9120
9F20
9120
8060
ENDCHAR
STARTCHAR uni54BD
ENCODING 21693
SWIDTH 1000 0
DWIDTH 14 0
BBX 12 13 1 -2
BITMAP
07F0
F490
9490
9490
97F0
9490
9490
9550
F530
9630
8410
07F0
0410
ENDCHAR
STARTCHAR uni54BE
ENCODING 21694
SWIDTH 1000 0
DWIDTH 14 0
BBX 13 14 1 -2
BITMAP
0080
0080
F7F0
9090
90A0
9FF8
9080
9110
9320
9DC0
F100
9110
8110
00F0
ENDCHAR
STARTCHAR uni54C0
ENCODING 21696
SWIDTH 1000 0
DWIDTH 14 0
BBX 13 14 1 -2
BITMAP
0200
0200
FFF8
0000
1FC0
1040
1040
1FD0
0610
1920
E940
0880
0E60
7018
ENDCHAR
STARTCHAR uni54C1
ENCODING 21697
SWIDTH 1000 0
DWIDTH 14 0
BBX 12 13 1 -2
BITMAP
1F80
1080
1080
1080
1F80
1080
0000
F9F0
8910
8910
8910
F9F0
8910
ENDCHAR
STARTCHAR uni54C2
ENCODING 21698
SWIDTH 1000 0
DWIDTH 14 0
BBX 13 13 1 -2
BITMAP
0FF8
F140
9140
97F0
9550
9550
9550
9670
F670
9410
8410
07F0
0410
ENDCHAR
STARTCHAR uni54C4
ENCODING 21700
SWIDTH 1000 0
DWIDTH 14 0
BBX 13 14 1 -2
BITMAP
0240
0240
F240
9240
9FF0
9240
9240
9240
9240
FFF8
9240
8220
0410
0810
ENDCHAR
STARTCHAR uni54C7
ENCODING 21703
SWIDTH 1000 0
DWIDTH 14 0
BBX 13 13 1 -1
BITMAP
0080
0080
F7F0
9080
9080
9FF8
9080
9080
97F0
F080
9080
8080
1FF8
ENDCHAR
STARTCHAR uni54C8
ENCODING 21704
SWIDTH 1000 0
DWIDTH 14 0
BBX 13 14 1 -2
BITMAP
0080
0080
F140
9140
9220
97F0
9808
9000
93E0
F220
9220
8220
03E0
0220
ENDCHAR
STARTCHAR uni54C9
ENCODING 21705
SWIDTH 1000 0
DWIDTH 14 0
BBX 13 14 1 -2
BITMAP
1100
1120
7F10
1110
1100
FFF8
0090
7C90
44A0
4460
4440
7CA8
4518
4008
ENDCHAR
STARTCHAR uni54D8
ENCODING 21720
SWIDTH 1000 0
DWIDTH 14 0
BBX 13 14 1 -2
BITMAP
0200
02F0
F400
9800
9100
91F8
9220
9620
9A20
F220
9220
8220
0220
0260
ENDCHAR
STARTCHAR uni54E1
ENCODING 21729
SWIDTH 1000 0
DWIDTH 14 0
BBX 11 13 2 -2
BITMAP
3F80
2080
3F80
0000
7FC0
4040
7FC0
4040
7FC0
4040
7FC0
1980
E060
ENDCHAR
STARTCHAR uni54E2
ENCODING 21730
SWIDTH 1000 0
DWIDTH 14 0
BBX 13 13 1 -2
BITMAP
07F0
F080
93E0
9080
9080
9FF8
9220
9220
FFF8
9220
8220
0420
0820
ENDCHAR
STARTCHAR uni54E5
ENCODING 21733
SWIDTH 1000 0
DWIDTH 14 0
BBX 13 13 1 -2
BITMAP
7FF0
0040
3E40
2240
3E40
0040
FFF8
0040
3E40
2240
3E40
2240
00C0
ENDCHAR
STARTCHAR uni54E6
ENCODING 21734
SWIDTH 1000 0
DWIDTH 14 0
BBX 13 14 1 -2
BITMAP
0140
0250
FE48
9248
9240
9FF8
9250
9250
9320
FE20
9268
8298
0318
0608
ENDCHAR
STARTCHAR uni54E8
ENCODING 21736
SWIDTH 1000 0
DWIDTH 14 0
BBX 13 14 1 -2
BITMAP
0080
02A0
F290
9488
9888
97F0
9410
97F0
9410
F7F0
9410
8410
0410
0430
ENDCHAR
STARTCHAR uni54E9
ENCODING 21737
SWIDTH 1000 0
DWIDTH 14 0
BBX 13 12 1 -1
BITMAP
07F0
F490
9490
97F0
9490
9490
97F0
9080
F7F0
9080
8080
1FF8
ENDCHAR
STARTCHAR uni54ED
ENCODING 21741
SWIDTH 1000 0
DWIDTH 14 0
BBX 13 13 1 -2
BITMAP
7DF0
4510
4510
7DF0
4510
0240
0220
FFF8
0200
0500
0880
3060
C018
ENDCHAR
STARTCHAR uni54EE
ENCODING 21742
SWIDTH 1000 0
DWIDTH 14 0
BBX 13 14 1 -2
BITMAP
0100
0110
F7D0
9120
9120
9FF8
9080
93F0
9660
F880
9FF8
8080
0080
0180
ENDCHAR
STARTCHAR uni54F2
ENCODING 21746
SWIDTH 1000 0
DWIDTH 14 0
BBX 13 14 1 -2
BITMAP
1030
11C0
FF00
11F8
1D20
F120
1220
3420
0000
1FC0
1040
1040
1FC0
1040
ENDCHAR
STARTCHAR uni54FA
ENCODING 21754
SWIDTH 1000 0
DWIDTH 14 0
BBX 13 14 1 -2
BITMAP
00A0
0090
FFF8
9080
97F0
9490
9490
97F0
9490
F490
97F0
8490
0490
04B0
ENDCHAR
STARTCHAR uni54FD
ENCODING 21757
SWIDTH 1000 0
DWIDTH 14 0
BBX 13 13 1 -2
BITMAP
0FF8
F080
97F0
9490
97F0
9490
97F0
9480
F300
9100
8280
0460
1818
ENDCHAR
STARTCHAR uni5504
ENCODING 21764
SWIDTH 1000 0
DWIDTH 14 0
BBX 12 13 2 -2
BITMAP
07E0
F420
9420
97E0
9420
9420
97E0
9420
F420
97E0
8240
0C20
3010
ENDCHAR
STARTCHAR uni5506
ENCODING 21766
SWIDTH 1000 0
DWIDTH 14 0
BBX 13 14 1 -2
BITMAP
0100
0120
F230
9FC8
9240
9248
9538
99E0
9220
F640
9940
8080
0360
1C18
ENDCHAR
STARTCHAR uni5507
ENCODING 21767
SWIDTH 1000 0
DWIDTH 14 0
BBX 13 13 1 -2
BITMAP
3FF0
2000
2FE0
2000
3FF8
2920
4EC0
B038
1FE0
1020
1020
1FE0
1020
ENDCHAR
STARTCHAR uni550F
ENCODING 21775
SWIDTH 1000 0
DWIDTH 14 0
BBX 13 14 1 -2
BITMAP
0020
0340
F1C0
9720
9100
9FF8
9280
9480
97F0
FC90
9490
8490
04B0
0080
ENDCHAR
STARTCHAR uni5510
ENCODING 21776
SWIDTH 1000 0
DWIDTH 14 0
BBX 13 14 1 -2
BITMAP
0100
3FF8
2100
2FE0
2120
3FF8
2120
2FE0
2000
2FE0
4820
4820
8FE0
0820
ENDCHAR
STARTCHAR uni5514
ENCODING 21780
SWIDTH 1000 0
DWIDTH 14 0
BBX 13 13 1 -2
BITMAP
0FF8
F100
9100
97E0
9220
9220
9FF8
9000
F7F0
9410
8410
07F0
0410
ENDCHAR
STARTCHAR uni5516
ENCODING 21782
SWIDTH 1000 0
DWIDTH 14 0
BBX 13 12 1 -1
BITMAP
0FF8
F140
9140
97F0
9550
9550
9550
97F0
F550
9140
8140
1FF8
ENDCHAR
STARTCHAR uni552E
ENCODING 21806
SWIDTH 1000 0
DWIDTH 14 0
BBX 13 14 1 -2
BITMAP
1040
1FF8
3080
3FF0
5080
9FF0
1080
1FF8
0000
1FE0
1020
1020
1FE0
1020
ENDCHAR
STARTCHAR uni552F
ENCODING 21807
SWIDTH 1000 0
DWIDTH 14 0
BBX 13 14 1 -2
BITMAP
0120
0120
F240
93F8
9640
9640
9BF0
9240
9240
F3F0
9240
8240
03F8
0200
ENDCHAR
STARTCHAR uni5531
ENCODING 21809
SWIDTH 1000 0
DWIDTH 14 0
BBX 12 13 1 -2
BITMAP
03E0
F220
93E0
9220
93E0
9220
9000
F7F0
9410
87F0
0410
07F0
0410
ENDCHAR
STARTCHAR uni5533
ENCODING 21811
SWIDTH 1000 0
DWIDTH 14 0
BBX 13 13 1 -2
BITMAP
0FF8
F000
97F0
9410
9410
97F0
94A0
9490
F7F8
9880
8940
1220
0C18
ENDCHAR
STARTCHAR uni5538
ENCODING 21816
SWIDTH 1000 0
DWIDTH 14 0
BBX 13 14 1 -2
BITMAP
0080
0080
F140
9220
9DD8
9000
97F0
9020
9140
F0A0
9A90
8A08
1228
01E0
ENDCHAR
STARTCHAR uni5539
ENCODING 21817
SWIDTH 1000 0
DWIDTH 14 0
BBX 13 14 1 -2
BITMAP
0220
0220
F220
9FD0
9450
9488
9548
9720
9520
F500
9940
8920
1110
2610
ENDCHAR
STARTCHAR uni553E
ENCODING 21822
SWIDTH 1000 0
DWIDTH 14 0
BBX 13 13 1 -1
BITMAP
0030
07C0
F080
97F0
92A0
92A0
9FF8
92A0
92A0
F7F0
9080
8080
1FF8
ENDCHAR
STARTCHAR uni5540
ENCODING 21824
SWIDTH 1000 0
DWIDTH 14 0
BBX 13 13 1 -2
BITMAP
07F8
F440
95F0
9440
9440
97F8
9440
9440
F5F0
9840
8840
17F8
2000
ENDCHAR
STARTCHAR uni5544
ENCODING 21828
SWIDTH 1000 0
DWIDTH 14 0
BBX 13 13 1 -2
BITMAP
0FF8
F080
9110
9390
9CA0
91C0
9240
FCE0
9150
8648
1840
0040
0180
ENDCHAR
STARTCHAR uni5545
ENCODING 21829
SWIDTH 1000 0
DWIDTH 14 0
BBX 13 14 1 -2
BITMAP
0080
0080
F0F8
9080
97F0
9410
97F0
9410
97F0
F080
9FF8
8080
0080
0080
ENDCHAR
STARTCHAR uni5546
ENCODING 21830
SWIDTH 1000 0
DWIDTH 14 0
BBX 13 14 1 -2
BITMAP
0200
0200
FFF8
1040
0880
7FF0
4910
4930
5FF0
6890
4890
4F90
4890
4030
ENDCHAR
STARTCHAR uni554C
ENCODING 21836
SWIDTH 1000 0
DWIDTH 14 0
BBX 13 13 1 -1
BITMAP
0080
0080
F7F8
9550
9940
9248
9438
9000
97F0
F080
9080
8080
1FF8
ENDCHAR
STARTCHAR uni554F
ENCODING 21839
SWIDTH 1000 0
DWIDTH 14 0
BBX 11 13 2 -2
BITMAP
FBE0
8A20
FBE0
8A20
FBE0
8020
9F20
9120
9120
9F20
9120
8020
8060
ENDCHAR
STARTCHAR uni5553
ENCODING 21843
SWIDTH 1000 0
DWIDTH 14 0
BBX 13 14 1 -2
BITMAP
0080
FE80
01F8
7F20
4520
44C0
7CC0
4720
4018
9FC0
1040
1040
1FC0
1040
ENDCHAR
STARTCHAR uni5556
ENCODING 21846
SWIDTH 1000 0
DWIDTH 14 0
BBX 13 14 1 -2
BITMAP
0080
0090
F490
95A0
9940
9220
94A0
9080
9490
F590
9960
8240
0420
1818
ENDCHAR
STARTCHAR uni5557
ENCODING 21847
SWIDTH 1000 0
DWIDTH 14 0
BBX 12 14 1 -2
BITMAP
0100
0100
F1F0
9210
9420
99C0
9670
9410
9410
F770
9410
8410
07F0
0410
ENDCHAR
STARTCHAR uni555C
ENCODING 21852
SWIDTH 1000 0
DWIDTH 14 0
BBX 13 13 1 -2
BITMAP
0FF0
F990
9550
9220
9550
9990
9FF0
9990
F550
9260
8320
0550
1888
ENDCHAR
STARTCHAR uni555D
ENCODING 21853
SWIDTH 1000 0
DWIDTH 14 0
BBX 12 14 1 -2
BITMAP
0080
0300
FE70
9250
9250
9FD0
9250
9750
9750
FAF0
8A80
1240
0220
0200
ENDCHAR
STARTCHAR uni5563
ENCODING 21859
SWIDTH 1000 0
DWIDTH 14 0
BBX 12 14 1 -2
BITMAP
0400
0400
E470
AFD0
AA50
B250
BFD0
A250
ABD0
EA50
AA50
8BE0
0E40
1840
ENDCHAR
STARTCHAR uni557B
ENCODING 21883
SWIDTH 1000 0
DWIDTH 14 0
BBX 13 14 1 -2
BITMAP
0200
7FF0
0880
0500
7FF8
4210
BFE0
2220
2260
0200
3FE0
2020
3FE0
2020
ENDCHAR
STARTCHAR uni557C
ENCODING 21884
SWIDTH 1000 0
DWIDTH 14 0
BBX 13 14 1 -2
BITMAP
0080
0080
F7F0
9220
9140
97F8
9490
9880
97F0
F490
9490
8490
04B0
0080
ENDCHAR
STARTCHAR uni557E
ENCODING 21886
SWIDTH 1000 0
DWIDTH 14 0
BBX 13 14 1 -2
BITMAP
00A0
0320
FE20
9228
9268
9FF0
92A0
9320
96A0
F6E0
9A50
9250
0288
0308
ENDCHAR
STARTCHAR uni5580
ENCODING 21888
SWIDTH 1000 0
DWIDTH 14 0
BBX 13 14 1 -2
BITMAP
0080
0080
F7F8
9510
99E0
9120
9340
94C0
9120
F7F8
9A20
8220
03E0
0220
ENDCHAR
STARTCHAR uni5583
ENCODING 21891
SWIDTH 1000 0
DWIDTH 14 0
BBX 13 14 1 -2
BITMAP
0080
0080
FFF8
9080
97F0
9650
9550
97F0
9490
F7F0
9490
8490
0490
0430
ENDCHAR
STARTCHAR uni5584
ENCODING 21892
SWIDTH 1000 0
DWIDTH 14 0
BBX 13 14 1 -2
BITMAP
1040
0880
7FF0
0200
3FE0
0200
7FF0
1240
FFF8
0000
3FE0
2020
3FE0
2020
ENDCHAR
STARTCHAR uni5587
ENCODING 21895
SWIDTH 1000 0
DWIDTH 14 0
BBX 12 14 1 -2
BITMAP
0210
0210
FFD0
A250
AFD0
AAD0
AAD0
AFD0
A250
E750
A690
8A90
1210
0230
ENDCHAR
STARTCHAR uni5589
ENCODING 21897
SWIDTH 1000 0
DWIDTH 14 0
BBX 13 14 1 -2
BITMAP
0200
03E0
F220
97F8
9480
9C80
95F8
9540
9640
F7F8
9440
84A0
0510
0608
ENDCHAR
STARTCHAR uni558A
ENCODING 21898
SWIDTH 1000 0
DWIDTH 14 0
BBX 13 14 1 -2
BITMAP
00A0
0090
E090
AFF8
A880
AF90
A850
AF50
AD60
ED20
AF68
9498
1118
2008
ENDCHAR
STARTCHAR uni558B
ENCODING 21899
SWIDTH 1000 0
DWIDTH 14 0
BBX 13 14 1 -2
BITMAP
02A0
02A0
FFF8
92A0
92E0
9200
93F0
9080
9FF8
F1C0
92A0
8C90
3088
0080
ENDCHAR
STARTCHAR uni5598
ENCODING 21912
SWIDTH 1000 0
DWIDTH 14 0
BBX 13 14 1 -2
BITMAP
0080
0490
F490
97F0
9000
9FF8
9080
97F0
9550
F550
9550
8550
0550
0430
ENDCHAR
STARTCHAR uni5599
ENCODING 21913
SWIDTH 1000 0
DWIDTH 14 0
BBX 13 14 1 -2
BITMAP
0200
03E0
F220
97C0
9040
9FF8
9110
9390
9DE0
F2C0
9DA0
8290
0C88
0300
ENDCHAR
STARTCHAR uni559A
ENCODING 21914
SWIDTH 1000 0
DWIDTH 14 0
BBX 13 14 1 -2
BITMAP
0100
01E0
F240
9480
9FF0
9550
9550
9570
9650
F490
9FF8
8140
0630
1808
ENDCHAR
STARTCHAR uni559C
ENCODING 21916
SWIDTH 1000 0
DWIDTH 14 0
BBX 13 14 1 -2
BITMAP
0200
FFF8
0200
3FE0
0000
1FC0
1040
1FC0
0880
FFF8
0000
3FE0
2020
3FE0
ENDCHAR
STARTCHAR uni559D
ENCODING 21917
SWIDTH 1000 0
DWIDTH 14 0
BBX 12 13 1 -2
BITMAP
07E0
F420
97E0
9420
97E0
9100
93F0
9CD0
F710
9410
8450
03D0
0060
ENDCHAR
STARTCHAR uni559E
ENCODING 21918
SWIDTH 1000 0
DWIDTH 14 0
BBX 12 14 1 -2
BITMAP
0400
0470
EF50
A950
AF50
A950
AF50
A950
A850
EF50
A860
8F40
0840
0840
ENDCHAR
STARTCHAR uni559F
ENCODING 21919
SWIDTH 1000 0
DWIDTH 14 0
BBX 12 13 1 -2
BITMAP
07F0
F490
97F0
9490
97F0
9000
93E0
9220
F3E0
9220
83E0
0220
0260
ENDCHAR
STARTCHAR uni55A7
ENCODING 21927
SWIDTH 1000 0
DWIDTH 14 0
BBX 13 13 1 -1
BITMAP
0080
0080
F7F0
9410
97F0
9000
93E0
9220
93E0
F220
93E0
8000
1FF8
ENDCHAR
STARTCHAR uni55A8
ENCODING 21928
SWIDTH 1000 0
DWIDTH 14 0
BBX 13 14 1 -2
BITMAP
0080
0FF8
F000
93E0
9220
93E0
9000
97F8
9410
F940
9140
8148
0248
0C38
ENDCHAR
STARTCHAR uni55A9
ENCODING 21929
SWIDTH 1000 0
DWIDTH 14 0
BBX 13 14 1 -2
BITMAP
0100
0100
E280
A440
AFE0
B010
AF58
A950
AD50
EBA0
ADA0
8B50
0950
0B50
ENDCHAR
STARTCHAR uni55AA
ENCODING 21930
SWIDTH 1000 0
DWIDTH 14 0
BBX 13 14 1 -2
BITMAP
0200
FFF8
0200
7AF0
4A90
7AF0
4A90
0200
FFF8
1120
1140
1080
1C60
E018
ENDCHAR
STARTCHAR uni55AB
ENCODING 21931
SWIDTH 1000 0
DWIDTH 14 0
BBX 13 14 1 -2
BITMAP
0400
05F0
FF50
A450
BF50
A450
A790
BCB0
A100
FFF8
A100
8280
0C60
3018
ENDCHAR
STARTCHAR uni55AC
ENCODING 21932
SWIDTH 1000 0
DWIDTH 14 0
BBX 13 14 1 -2
BITMAP
00C0
1F00
0200
FFF8
0880
3FE0
C898
0F80
7FF0
4010
4F90
4890
4F90
4030
ENDCHAR
STARTCHAR uni55AE
ENCODING 21934
SWIDTH 1000 0
DWIDTH 14 0
BBX 13 13 1 -2
BITMAP
7DF0
4510
7DF0
0000
3FE0
2220
3FE0
2220
3FE0
0200
FFF8
0200
0200
ENDCHAR
STARTCHAR uni55B0
ENCODING 21936
SWIDTH 1000 0
DWIDTH 14 0
BBX 13 14 1 -2
BITMAP
0080
0080
F140
93E0
9C18
93E0
9220
93E0
9220
F3F0
9290
8260
03B0
1E08
ENDCHAR
STARTCHAR uni55B6
ENCODING 21942
SWIDTH 1000 0
DWIDTH 14 0
BBX 13 14 1 -2
BITMAP
2420
1240
7FF8
4010
9FC0
1040
1040
1FC0
0400
3FE0
2020
2020
3FE0
2020
ENDCHAR
STARTCHAR uni55C4
ENCODING 21956
SWIDTH 1000 0
DWIDTH 14 0
BBX 13 13 1 -2
BITMAP
0FF8
F080
97E0
9420
97E0
97E0
9420
97E0
F3E0
9640
8980
0360
1C18
ENDCHAR
STARTCHAR uni55C5
ENCODING 21957
SWIDTH 1000 0
DWIDTH 14 0
BBX 13 14 1 -2
BITMAP
0080
0100
F7E0
9420
97E0
9420
97E0
9420
97E0
F110
9FF8
8180
0660
1818
ENDCHAR
STARTCHAR uni55C7
ENCODING 21959
SWIDTH 1000 0
DWIDTH 14 0
BBX 13 14 1 -2
BITMAP
0200
0200
7FF0
1240
2AA0
4B20
FFF8
0000
3FE0
2FA0
28A0
2FA0
3FE0
2020
ENDCHAR
STARTCHAR uni55D4
ENCODING 21972
SWIDTH 1000 0
DWIDTH 14 0
BBX 13 14 1 -2
BITMAP
0230
03C0
F208
91F8
95F0
9510
95F0
9510
95F0
F510
95F0
87F8
0330
1C08
ENDCHAR
STARTCHAR uni55DA
ENCODING 21978
SWIDTH 1000 0
DWIDTH 14 0
BBX 13 14 1 -2
BITMAP
0080
0100
F7E0
9420
9420
97E0
9400
97F0
9400
F7F8
9548
8AA8
0AA8
1030
ENDCHAR
STARTCHAR uni55DC
ENCODING 21980
SWIDTH 1000 0
DWIDTH 14 0
BBX 13 14 1 -2
BITMAP
0100
07F0
F120
9FF8
91B0
93C0
9D10
91F0
97E0
F420
97E0
8420
07E0
0420
ENDCHAR
STARTCHAR uni55DF
ENCODING 21983
SWIDTH 1000 0
DWIDTH 14 0
BBX 13 13 1 -1
BITMAP
0220
0140
F7F0
9080
93E0
9080
9FF8
9200
93F0
F440
9440
8840
17F8
ENDCHAR
STARTCHAR uni55E3
ENCODING 21987
SWIDTH 1000 0
DWIDTH 14 0
BBX 13 13 1 -2
BITMAP
7DF8
4408
44E8
7C08
00E8
FEA8
AAA8
AAA8
FEE8
AAA8
AA08
AA08
8618
ENDCHAR
STARTCHAR uni55E4
ENCODING 21988
SWIDTH 1000 0
DWIDTH 14 0
BBX 13 14 1 -2
BITMAP
0080
0490
F490
97F0
9100
9FF8
9080
97F0
9490
F7F0
94A0
8090
00F8
1F08
ENDCHAR
STARTCHAR uni55F7
ENCODING 22007
SWIDTH 1000 0
DWIDTH 14 0
BBX 13 14 1 -2
BITMAP
0440
0440
FF40
A440
A4F8
BF90
A490
BF50
A450
E720
A920
8950
1190
2608
ENDCHAR
STARTCHAR uni55F9
ENCODING 22009
SWIDTH 1000 0
DWIDTH 14 0
BBX 13 14 1 -2
BITMAP
0040
0840
E7F8
A440
B1F0
A950
A9F0
A150
BDF0
E440
A7F8
8440
0A40
11F8
ENDCHAR
STARTCHAR uni55FD
ENCODING 22013
SWIDTH 1000 0
DWIDTH 14 0
BBX 13 14 1 -2
BITMAP
0440
0440
FFC0
A440
BFF8
B5A8
B530
B520
FF20
AE60
8D50
1550
2488
0508
ENDCHAR
STARTCHAR uni55FE
ENCODING 22014
SWIDTH 1000 0
DWIDTH 14 0
BBX 13 14 1 -2
BITMAP
0440
0440
F440
9F78
9480
94C0
9778
95A0
9520
F5F8
9960
8950
1190
2608
ENDCHAR
STARTCHAR uni5606
ENCODING 22022
SWIDTH 1000 0
DWIDTH 14 0
BBX 13 14 1 -2
BITMAP
0220
0220
FFF8
9220
97F0
9490
97F0
9080
97F0
F080
9FF8
8140
0630
1808
ENDCHAR
STARTCHAR uni5609
ENCODING 22025
SWIDTH 1000 0
DWIDTH 14 0
BBX 13 14 1 -2
BITMAP
0200
7FF0
0200
3FE0
0000
1FC0
1040
1FC0
0880
FFF8
0800
7EF0
1290
66F0
ENDCHAR
STARTCHAR uni5614
ENCODING 22036
SWIDTH 1000 0
DWIDTH 14 0
BBX 13 13 1 -2
BITMAP
0FF0
E800
A9E0
A920
A9E0
A800
ABF0
AAD0
EBF0
AAD0
8800
0FF8
0800
ENDCHAR
STARTCHAR uni5616
ENCODING 22038
SWIDTH 1000 0
DWIDTH 14 0
BBX 13 14 1 -2
BITMAP
0080
07F0
F080
93E0
9080
9FF8
93E0
9220
93E0
F3E0
9220
83E0
0320
0C10
ENDCHAR
ENDFONT
